<?xml version="1.0" standalone="no"?>
<!DOCTYPE svg PUBLIC "-//W3C//DTD SVG 1.1//EN" "http://www.w3.org/Graphics/SVG/1.1/DTD/svg11.dtd" >
<svg xmlns="http://www.w3.org/2000/svg" xmlns:xlink="http://www.w3.org/1999/xlink" version="1.1">
<metadata>
Created by FontForge 20170731 at Thu Dec  9 04:25:42 2021
 By Aleksey,,,
</metadata>
<defs>
<font id="NEXONLv1GothicLowOTFLight" horiz-adv-x="1933" >
  <font-face 
    font-family="NEXONLv1GothicLowOTFLight"
    font-weight="200"
    font-stretch="normal"
    units-per-em="2048"
    panose-1="2 0 3 3 0 0 0 0 0 0"
    ascent="1638"
    descent="-410"
    x-height="1133"
    cap-height="1542"
    bbox="-141 -436 2068 1847"
    underline-thickness="102"
    underline-position="-307"
    unicode-range="U+000D-FFE6"
  />
<missing-glyph horiz-adv-x="569" 
 />
    <glyph glyph-name=".notdef" horiz-adv-x="569" 
 />
    <glyph glyph-name=".null" horiz-adv-x="0" 
 />
    <glyph glyph-name="nonmarkingreturn" horiz-adv-x="682" 
 />
    <glyph glyph-name="space" unicode=" " horiz-adv-x="671" 
 />
    <glyph glyph-name="exclam" unicode="!" horiz-adv-x="552" 
d="M324 1624l-13 -1339h-69l-13 1339h95zM203 -57v147h147v-147h-147z" />
    <glyph glyph-name="quotedbl" unicode="&#x22;" horiz-adv-x="671" 
d="M207 1112h-57l-19 553h94zM522 1112h-57l-19 553h95z" />
    <glyph glyph-name="numbersign" unicode="#" horiz-adv-x="1478" 
d="M1430 1030h-295l-148 -461h342l-16 -80h-350l-152 -475h-94l151 475h-446l-152 -475h-94l152 475h-291l16 80h299l148 461h-324l14 78h334l152 475h94l-152 -475h447l152 475h94l-152 -475h285zM594 1030l-148 -461h447l147 461h-446z" />
    <glyph glyph-name="dollar" unicode="$" horiz-adv-x="1259" 
d="M678 -182h-82v182q-69 3 -137 25q-115 38 -205.5 108.5t-138.5 147.5l63 59q47 -82 128.5 -144t185.5 -96q47 -14 104 -20v704l-76 33q-154 65 -242 163.5t-88 219.5q0 115 69 202.5t190 127.5q75 23 147 26v181h82v-181q110 -6 194 -43q106 -47 181 -116l-60 -58
q-74 68 -159 101q-77 29 -156 35v-629l90 -37q60 -25 107.5 -50t98 -62t83.5 -77t54.5 -95t21.5 -117q0 -127 -79 -227t-216 -150q-76 -28 -160 -31v-182zM743 725l-65 27v-672q64 6 123 24q112 37 174.5 117.5t62.5 186.5q0 96 -67 174t-228 143zM285 1200q0 -189 254 -297
l57 -24v596q-50 -2 -115 -21q-94 -33 -145 -100.5t-51 -153.5z" />
    <glyph glyph-name="percent" unicode="%" horiz-adv-x="1740" 
d="M360 14l928 1528h92l-929 -1528h-91zM788 1202q0 -155 -107 -268t-261 -113t-261.5 113t-107.5 268t107.5 268t261.5 113t261 -113t107 -268zM698 1202q0 129 -78 216t-200 87t-200.5 -87t-78.5 -216t78.5 -216t200.5 -87t200 87t78 216zM1690 354q0 -155 -107.5 -268
t-261.5 -113t-261.5 113t-107.5 268t107.5 268t261.5 113t261.5 -113t107.5 -268zM1599 354q0 129 -78 216t-200 87t-200.5 -87t-78.5 -216t78.5 -216t200.5 -87t200 87t78 216z" />
    <glyph glyph-name="ampersand" unicode="&#x26;" horiz-adv-x="1361" 
d="M315 1247q0 -148 222 -358q77 35 134 71t105 80.5t73 98.5t25 116q0 109 -79.5 179.5t-198.5 70.5q-122 0 -201.5 -72.5t-79.5 -185.5zM1319 12h-111l-168 189q-212 -234 -522 -234q-202 0 -333.5 115t-131.5 313q0 72 35 143t93.5 129.5t126.5 105t143 81.5
q-46 49 -81 90t-72 94.5t-57 107.5t-20 103q0 142 109 240t270 98q157 0 263 -93t106 -234q0 -139 -92 -236t-277 -193l432 -497q56 76 90.5 191t42.5 231h88q-26 -303 -159 -488zM147 391q0 -106 53.5 -185t138 -118t185.5 -39q263 0 455 221l-455 525
q-182 -80 -279.5 -182t-97.5 -222z" />
    <glyph glyph-name="quotesingle" unicode="'" horiz-adv-x="356" 
d="M207 1112h-57l-19 553h94z" />
    <glyph glyph-name="parenleft" unicode="(" horiz-adv-x="716" 
d="M242 786q0 -306 127.5 -574t322.5 -429l-39 -57q-220 168 -363 452.5t-143 607.5t143 608t363 453l39 -57q-195 -161 -322.5 -429.5t-127.5 -574.5z" />
    <glyph glyph-name="parenright" unicode=")" horiz-adv-x="716" 
d="M475 786q0 306 -127.5 574.5t-322.5 429.5l38 57q220 -168 363 -453t143 -608t-143 -607.5t-363 -452.5l-38 57q195 161 322.5 429t127.5 574z" />
    <glyph glyph-name="asterisk" unicode="*" horiz-adv-x="870" 
d="M434 1100l-201 -289l-67 45l213 289l-305 82l20 82l301 -97l-8 330h94l-8 -330l301 97l21 -82l-306 -82l213 -289l-67 -45z" />
    <glyph glyph-name="plus" unicode="+" horiz-adv-x="1093" 
d="M1020 823v-78h-428v-432h-90v432h-428v78h428v432h90v-432h428z" />
    <glyph glyph-name="comma" unicode="," horiz-adv-x="401" 
d="M250 66v-140q0 -70 -40 -140.5t-99 -109.5l-33 29q102 78 102 213h-78v148h148z" />
    <glyph glyph-name="hyphen" unicode="-" horiz-adv-x="962" 
d="M899 825v-82h-836v82h836z" />
    <glyph glyph-name="period" unicode="." horiz-adv-x="401" 
d="M129 -98v147h147v-147h-147z" />
    <glyph glyph-name="slash" unicode="/" horiz-adv-x="872" 
d="M53 -90l678 1737h90l-678 -1737h-90z" />
    <glyph glyph-name="zero" unicode="0" horiz-adv-x="1474" 
d="M90 778q0 183 53 336.5t143 255t206.5 157.5t244.5 56t244.5 -56t206.5 -157.5t143 -255t53 -336.5t-53 -336.5t-143 -255t-206.5 -157.5t-244.5 -56t-244.5 56t-206.5 157.5t-143 255t-53 336.5zM1292 778q0 164 -46.5 302.5t-124 230t-177.5 142t-207 50.5t-207 -50.5
t-177.5 -142t-124 -230t-46.5 -302.5t46.5 -302.5t124 -230t177.5 -142t207 -50.5t207 50.5t177.5 142t124 230t46.5 302.5z" />
    <glyph glyph-name="one" unicode="1" horiz-adv-x="1196" 
d="M266 1198l410 344h84v-1528h-92v1413l-349 -294z" />
    <glyph glyph-name="two" unicode="2" horiz-adv-x="1220" 
d="M1106 1145q0 -65 -19 -128t-46.5 -112t-72.5 -101.5t-83.5 -89t-91.5 -81.5l-609 -539h963v-80h-1075v76l667 598q51 47 80.5 76t71.5 79t65 91.5t40.5 97.5t17.5 113q0 154 -121 256t-311 102q-139 0 -238.5 -71t-181.5 -199l-70 45q82 141 206.5 223t283.5 82
q235 0 379.5 -125t144.5 -313z" />
    <glyph glyph-name="three" unicode="3" horiz-adv-x="1220" 
d="M600 53q213 0 340 114.5t127 287.5q0 177 -125.5 287t-345.5 106q-104 -3 -168 -41l-41 72l604 583h-854v80h971v-80l-563 -540q135 14 251 -15.5t195 -92.5t123.5 -156t44.5 -203q0 -207 -151 -344.5t-408 -137.5q-169 0 -307 78.5t-217 214.5l71 49
q64 -121 190.5 -191.5t262.5 -70.5z" />
    <glyph glyph-name="four" unicode="4" horiz-adv-x="1314" 
d="M946 520v895l-774 -895h774zM59 440v82l891 1020h88v-1022h248v-80h-248v-426h-92v426h-887z" />
    <glyph glyph-name="five" unicode="5" horiz-adv-x="1220" 
d="M299 1542h791v-76h-719l-97 -563q67 47 160 75t180 28q128 0 232 -41.5t171 -113.5t102.5 -166.5t35.5 -203.5q0 -221 -153 -364.5t-406 -143.5q-164 0 -304 81t-220 214l69 54q64 -120 194 -194.5t261 -74.5q209 0 338 118t129 310q0 94 -27.5 173.5t-81.5 141t-141 96
t-199 34.5q-176 0 -358 -121q-5 -4 -8 -6l-68 30z" />
    <glyph glyph-name="six" unicode="6" horiz-adv-x="1220" 
d="M625 -27q-123 0 -225.5 42.5t-169.5 115t-103.5 168.5t-36.5 205q0 147 96 319l414 719h94l-348 -614q119 78 279 78q154 0 277.5 -72t190 -191.5t66.5 -259.5q0 -106 -39.5 -200t-108.5 -162t-169 -108t-217 -40zM182 483q0 -115 56 -213t158.5 -157.5t228.5 -59.5
q196 0 319 122.5t123 307.5q0 188 -123.5 315.5t-318.5 127.5q-196 0 -319.5 -125.5t-123.5 -317.5z" />
    <glyph glyph-name="seven" unicode="7" horiz-adv-x="1220" 
d="M104 1466v76h1016v-67l-671 -1461h-93l672 1452h-924z" />
    <glyph glyph-name="eight" unicode="8" horiz-adv-x="1343" 
d="M672 -27q-258 0 -420 125.5t-162 317.5q0 82 31.5 155t83.5 125.5t114.5 88.5t129.5 53q-122 43 -194.5 135t-72.5 221q0 162 134 275.5t356 113.5q221 0 355 -113.5t134 -275.5q0 -129 -72 -221t-194 -135q67 -17 129.5 -53t114.5 -88.5t83 -125.5t31 -155
q0 -193 -161.5 -318t-419.5 -125zM672 53q226 0 357.5 100.5t131.5 262.5q0 158 -138.5 266.5t-350.5 108.5t-351 -109t-139 -266q0 -162 132 -262.5t358 -100.5zM274 1194q0 -137 111 -230.5t287 -93.5q175 0 286 93t111 231q0 142 -106 225.5t-291 83.5t-291.5 -83.5
t-106.5 -225.5z" />
    <glyph glyph-name="nine" unicode="9" horiz-adv-x="1220" 
d="M596 1583q164 0 287 -72.5t185 -192t62 -265.5q0 -148 -96 -320l-413 -719h-95l348 615q-119 -78 -278 -78q-154 0 -278 72t-190.5 191t-66.5 259q0 141 67 257t190 184.5t278 68.5zM1038 1073q0 115 -56 213t-158 157.5t-228 59.5q-196 0 -319 -122.5t-123 -307.5
q0 -188 123.5 -315t318.5 -127q196 0 319 125t123 317z" />
    <glyph glyph-name="colon" unicode=":" horiz-adv-x="442" 
d="M150 258v148h147v-148h-147zM150 1159v148h147v-148h-147z" />
    <glyph glyph-name="semicolon" unicode=";" horiz-adv-x="442" 
d="M150 1159v148h147v-148h-147zM299 287v139h-147v-147h77q0 -135 -102 -213l33 -29q59 39 99 109.5t40 140.5z" />
    <glyph glyph-name="less" unicode="&#x3c;" horiz-adv-x="1054" 
d="M979 1755l-662 -973l662 -972l-64 -50l-700 1022l700 1022z" />
    <glyph glyph-name="equal" unicode="=" horiz-adv-x="1044" 
d="M971 1057v-78h-899v78h899zM971 590v-78h-899v78h899z" />
    <glyph glyph-name="greater" unicode="&#x3e;" horiz-adv-x="1054" 
d="M737 782l-661 973l63 49l701 -1022l-701 -1022l-63 50z" />
    <glyph glyph-name="question" unicode="?" horiz-adv-x="1095" 
d="M1034 1202q0 -81 -27 -156.5t-73 -135t-108.5 -110.5t-132.5 -87t-146 -60v-368h-94v417q222 62 354.5 196t132.5 304q0 167 -116.5 274t-309.5 107q-121 0 -222.5 -68.5t-162.5 -187.5l-70 45q59 124 185 208.5t270 84.5q120 0 219 -36.5t164.5 -99.5t101 -147.5
t35.5 -179.5zM428 -57v147h147v-147h-147z" />
    <glyph glyph-name="at" unicode="@" horiz-adv-x="2129" 
d="M1055 127q-185 0 -306.5 129t-121.5 348q0 218 121.5 348.5t306.5 130.5q89 0 176.5 -39t154.5 -133v156h91v-680q0 -84 56.5 -135t143.5 -51q115 0 196 122.5t81 354.5q0 178 -66.5 334t-182 267t-279 175t-351.5 64q-180 0 -341.5 -69t-279.5 -187.5t-187.5 -287.5
t-69.5 -360q0 -193 70 -360.5t193.5 -286.5t299.5 -187.5t379 -68.5q167 0 303 47.5t229 118.5l41 -82q-232 -166 -573 -166q-225 0 -418 75t-328 205.5t-211 312.5t-76 392q0 208 75 391.5t204 313.5t308.5 205t381.5 75q208 0 389 -71t308 -193.5t199.5 -293t72.5 -363.5
q0 -267 -103 -409t-264 -142q-43 0 -79.5 7.5t-74 26.5t-68 57.5t-50.5 94.5q-54 -89 -148 -137.5t-202 -48.5zM1055 209q150 0 240.5 96t90.5 299q0 202 -91 299.5t-240 97.5q-145 0 -241.5 -106.5t-96.5 -290.5q0 -185 96 -290t242 -105z" />
    <glyph glyph-name="A" unicode="A" horiz-adv-x="1445" 
d="M1311 14l-181 426h-815l-180 -426h-98l655 1528h62l655 -1528h-98zM723 1407l-373 -885h746z" />
    <glyph glyph-name="B" unicode="B" horiz-adv-x="1392" 
d="M197 14v1528h548q202 0 324.5 -106.5t122.5 -261.5q0 -108 -59 -190t-160 -124q50 -10 99 -33t93.5 -60t78.5 -83.5t54.5 -108t20.5 -129.5q0 -86 -36.5 -164.5t-101.5 -138t-161.5 -94.5t-210.5 -35h-612zM809 799h-518v-703h518q184 0 300 102.5t116 247.5
q0 148 -115.5 250.5t-300.5 102.5zM745 1460h-454v-579h454q158 0 255.5 83.5t97.5 209.5q0 121 -97.5 203.5t-255.5 82.5z" />
    <glyph glyph-name="C" unicode="C" horiz-adv-x="1589" 
d="M1409 377l70 -51q-98 -166 -266.5 -259.5t-370.5 -93.5q-159 0 -298 58.5t-239.5 163t-158.5 255.5t-58 328q0 176 58 327t158.5 255.5t239.5 163.5t298 59q197 0 357 -85t263 -241l-73 -47q-91 141 -232 216t-315 75q-138 0 -259 -52t-209.5 -145t-140 -229.5
t-51.5 -296.5t51.5 -296.5t140 -229.5t209.5 -145t259 -52q182 0 329 82.5t238 239.5z" />
    <glyph glyph-name="D" unicode="D" horiz-adv-x="1495" 
d="M195 1542h391q182 0 336 -58.5t259.5 -160.5t164.5 -242.5t59 -302.5t-59 -302.5t-164.5 -242.5t-259.5 -160.5t-336 -58.5h-391v1528zM586 1460h-297v-1364h297q214 0 379.5 87t255.5 242t90 353q0 197 -90 352t-255.5 242.5t-379.5 87.5z" />
    <glyph glyph-name="E" unicode="E" horiz-adv-x="1298" 
d="M289 758v-662h952v-82h-1046v1528h1013v-82h-919v-620h778v-82h-778z" />
    <glyph glyph-name="F" unicode="F" horiz-adv-x="1280" 
d="M289 721v-707h-94v1528h995v-82h-901v-657h758v-82h-758z" />
    <glyph glyph-name="G" unicode="G" horiz-adv-x="1609" 
d="M883 739v82h692v-26q0 -240 -84 -424.5t-252 -291t-399 -106.5q-158 0 -296.5 58.5t-238.5 163t-157.5 255.5t-57.5 328q0 176 57.5 327t157.5 255.5t238.5 163.5t296.5 59q195 0 353 -83t261 -238l-76 -48q-86 144 -224 215.5t-314 71.5q-137 0 -257.5 -52t-208.5 -145
t-139 -229.5t-51 -296.5t51 -296.5t139 -229.5t208.5 -145t257.5 -52q149 0 270 51.5t201 142.5t124 216t46 274h-598z" />
    <glyph glyph-name="H" unicode="H" horiz-adv-x="1556" 
d="M289 1542v-682h977v682h94v-1528h-94v764h-977v-764h-94v1528h94z" />
    <glyph glyph-name="I" unicode="I" horiz-adv-x="520" 
d="M307 1542v-1528h-94v1528h94z" />
    <glyph glyph-name="J" unicode="J" horiz-adv-x="1157" 
d="M866 1542h95v-946q0 -308 -136.5 -465.5t-371.5 -157.5q-273 0 -412 213l59 62q57 -98 151.5 -145.5t201.5 -47.5q73 0 134 17.5t113.5 58t88.5 102t56.5 154.5t20.5 211v944z" />
    <glyph glyph-name="K" unicode="K" horiz-adv-x="1351" 
d="M289 1542v-708l825 708h129l-840 -717l904 -811h-131l-887 797v-797h-94v1528h94z" />
    <glyph glyph-name="L" unicode="L" horiz-adv-x="1239" 
d="M289 1542v-1448h919v-80h-1013v1528h94z" />
    <glyph glyph-name="M" unicode="M" horiz-adv-x="1896" 
d="M909 248l-620 1163v-1397h-94v1528h122l629 -1186l633 1186h123v-1528h-94v1397l-625 -1163h-74z" />
    <glyph glyph-name="N" unicode="N" horiz-adv-x="1556" 
d="M1239 14l-950 1409v-1409h-94v1528h122l951 -1409v1409h94v-1528h-123z" />
    <glyph glyph-name="O" unicode="O" horiz-adv-x="1679" 
d="M90 778q0 176 57.5 327t157.5 255.5t238.5 163.5t296.5 59t296.5 -59t238 -163.5t157 -255.5t57.5 -327q0 -177 -57.5 -328t-157 -255.5t-238 -163t-296.5 -58.5t-296.5 58.5t-238.5 163t-157.5 255.5t-57.5 328zM1495 778q0 160 -51 296.5t-139 229.5t-208 145t-257 52
t-257.5 -52t-208.5 -145t-139 -229.5t-51 -296.5t51 -296.5t139 -229.5t208.5 -145t257.5 -52t257 52t208 145t139 229.5t51 296.5z" />
    <glyph glyph-name="P" unicode="P" horiz-adv-x="1372" 
d="M291 643h463q199 0 327.5 119.5t128.5 290.5q0 169 -128.5 288t-327.5 119h-463v-817zM754 561h-463v-547h-94v1528h557q121 0 225 -39t175 -105t111 -155.5t40 -189.5t-40 -190t-111 -156.5t-175 -106t-225 -39.5z" />
    <glyph glyph-name="Q" unicode="Q" horiz-adv-x="1679" 
d="M90 778q0 176 57.5 327t157.5 255.5t238.5 163.5t296.5 59t296.5 -59t238 -163.5t157 -255.5t57.5 -327t-56.5 -325.5t-158.5 -257.5q-64 -64 -129 -107l412 -258l-55 -70l-439 283l-26 -12q-137 -58 -297 -58q-158 0 -296.5 58.5t-238.5 163t-157.5 255.5t-57.5 328z
M1495 778q0 160 -51 296.5t-139 229.5t-208 145t-257 52t-257.5 -52t-208.5 -145t-139 -229.5t-51 -296.5t51 -296.5t139 -229.5t208.5 -145t257.5 -52t257 52t208 145t139 229.5t51 296.5z" />
    <glyph glyph-name="R" unicode="R" horiz-adv-x="1351" 
d="M729 604h-440v-590h-94v1528h536q245 0 388 -131.5t143 -337.5q0 -157 -81.5 -269t-230.5 -165l-8 -4l397 -621h-106l-379 598q-52 -8 -125 -8zM289 686h442q200 0 319 108t119 279t-119 279t-319 108h-442v-774z" />
    <glyph glyph-name="S" unicode="S" horiz-adv-x="1171" 
d="M1028 1415l-59 -59q-155 145 -373 145q-170 0 -266.5 -83.5t-96.5 -205.5q0 -191 267 -305l235 -98q79 -32 139 -66.5t117.5 -84t89 -116.5t31.5 -147q0 -176 -144.5 -299t-369.5 -123q-93 0 -181 27t-155.5 71t-117.5 93.5t-83 101.5l64 60q65 -113 195.5 -192
t277.5 -79q188 0 304 96.5t116 243.5q0 98 -70 178t-237 150l-232 96q-160 69 -250 168.5t-90 224.5q0 159 126 265t331 106q257 0 432 -168z" />
    <glyph glyph-name="T" unicode="T" horiz-adv-x="1310" 
d="M608 14v1446h-559v82h1213v-82h-560v-1446h-94z" />
    <glyph glyph-name="U" unicode="U" horiz-adv-x="1556" 
d="M778 -27q-259 0 -421 167.5t-162 447.5v954h94v-954q0 -244 136 -388.5t353 -144.5t353.5 144.5t136.5 388.5v954h94v-954q0 -280 -162.5 -447.5t-421.5 -167.5z" />
    <glyph glyph-name="V" unicode="V" horiz-adv-x="1421" 
d="M33 1542h98l580 -1415l579 1415h99l-637 -1528h-82z" />
    <glyph glyph-name="W" unicode="W" horiz-adv-x="2097" 
d="M1049 1407l-420 -1393h-92l-508 1528h98l457 -1392l417 1392h95l417 -1392l457 1392h98l-507 -1528h-93z" />
    <glyph glyph-name="X" unicode="X" horiz-adv-x="1368" 
d="M1298 1542l-567 -743l598 -785h-98l-547 717l-547 -717h-98l598 785l-567 743h98l514 -676l518 676h98z" />
    <glyph glyph-name="Y" unicode="Y" horiz-adv-x="1384" 
d="M692 623l545 919h98l-596 -1001v-527h-94v527l-596 1001h98z" />
    <glyph glyph-name="Z" unicode="Z" horiz-adv-x="1208" 
d="M1137 1473l-996 -1377h1026v-82h-1134v70l991 1376h-950v82h1063v-69z" />
    <glyph glyph-name="bracketleft" unicode="[" horiz-adv-x="716" 
d="M655 1788v-82h-356v-1835h356v-82h-450v1999h450z" />
    <glyph glyph-name="backslash" unicode="\" horiz-adv-x="880" 
d="M145 1647l684 -1737h-94l-684 1737h94z" />
    <glyph glyph-name="bracketright" unicode="]" horiz-adv-x="716" 
d="M63 1706v82h451v-1999h-451v82h357v1835h-357z" />
    <glyph glyph-name="asciicircum" unicode="^" horiz-adv-x="962" 
d="M481 1460l-350 -606h-94l405 688h78l406 -688h-95z" />
    <glyph glyph-name="underscore" unicode="_" horiz-adv-x="962" 
d="M930 -70v-82h-897v82h897z" />
    <glyph glyph-name="grave" unicode="`" horiz-adv-x="466" 
d="M152 1542l264 -483h-84l-295 483h115z" />
    <glyph glyph-name="a" unicode="a" horiz-adv-x="1384" 
d="M1128 573q0 115 -37 212t-101 161.5t-150.5 100.5t-184.5 36q-199 0 -336 -145t-137 -365t137 -365t336 -145t336 145t137 365zM1130 1133h93v-1119h-93v258q-54 -101 -136.5 -167.5t-166.5 -93.5t-172 -27q-117 0 -221.5 44.5t-180 121.5t-119.5 187t-44 236
q0 168 75 303.5t204 211t286 75.5q156 0 277 -67t198 -189v226z" />
    <glyph glyph-name="b" unicode="b" horiz-adv-x="1384" 
d="M256 573q0 -220 137 -365t336 -145t336 145t137 365t-137 365t-336 145q-98 0 -184.5 -36t-150.5 -100.5t-101 -161.5t-37 -212zM162 1583h92v-676q77 122 198 189t277 67q157 0 286 -75.5t204 -211t75 -303.5q0 -126 -44 -236t-119.5 -187t-180 -121.5t-221.5 -44.5
q-88 0 -172 27t-166.5 93.5t-136.5 167.5v-258h-92v1569z" />
    <glyph glyph-name="c" unicode="c" horiz-adv-x="1157" 
d="M1081 940l-71 -47q-63 91 -158 140.5t-205 49.5q-93 0 -178 -38.5t-148.5 -105t-101 -162t-37.5 -204.5t37.5 -204.5t101 -162t148.5 -105t178 -38.5q125 0 231 61.5t166 174.5l70 -47q-72 -128 -193 -198t-274 -70q-115 0 -217.5 44.5t-177 121.5t-118.5 187t-44 236
q0 168 74.5 303.5t202 211t280.5 75.5q132 0 248.5 -61.5t185.5 -161.5z" />
    <glyph glyph-name="d" unicode="d" horiz-adv-x="1384" 
d="M1130 573q0 115 -37 212t-101 161.5t-150.5 100.5t-184.5 36q-199 0 -336 -145t-137 -365t137 -365t336 -145t336 145t137 365zM1133 1583h92v-1569h-92v258q-54 -101 -137 -167.5t-167 -93.5t-172 -27q-117 0 -221.5 44.5t-180 121.5t-119.5 187t-44 236q0 168 75 303.5
t204 211t286 75.5q156 0 277.5 -67.5t198.5 -188.5v676z" />
    <glyph glyph-name="e" unicode="e" horiz-adv-x="1249" 
d="M1155 532h-967q12 -204 138.5 -336.5t318.5 -132.5q130 0 234 61t174 169l63 -47q-83 -122 -203 -192t-268 -70q-158 0 -284.5 75.5t-198.5 210t-72 303.5q0 125 43 236t116 188t171 121.5t205 44.5q148 0 270 -75.5t191 -206t69 -287.5v-62zM182 612h881
q-12 209 -131.5 340t-306.5 131q-170 0 -296.5 -131.5t-146.5 -339.5z" />
    <glyph glyph-name="f" unicode="f" horiz-adv-x="757" 
d="M729 1573v-78q-52 10 -90 10q-82 0 -134.5 -17t-81.5 -55t-39.5 -87t-10.5 -123v-90h356v-80h-356v-1039h-92v1039h-252v80h252v90q0 173 80 267.5t266 94.5q55 0 102 -12z" />
    <glyph glyph-name="g" unicode="g" horiz-adv-x="1384" 
d="M1128 592q0 113 -38 206.5t-103 155t-150.5 95.5t-181.5 34q-95 0 -181 -36t-150.5 -99.5t-103 -156.5t-38.5 -199q0 -142 65.5 -255.5t173 -175t234.5 -61.5t234.5 61.5t173 175t65.5 255.5zM1130 1133h93v-1041q0 -250 -148.5 -389t-402.5 -139q-138 0 -264.5 63
t-200.5 166l63 51q56 -92 168 -146t234 -54q212 0 335 114t123 334v195q-45 -73 -104 -127t-122.5 -83.5t-125 -43t-123.5 -13.5q-156 0 -284.5 72t-204.5 204t-76 296t76 295.5t204.5 203.5t284.5 72q151 0 276.5 -69t198.5 -187v226z" />
    <glyph glyph-name="h" unicode="h" horiz-adv-x="1292" 
d="M254 1583v-706q33 57 75 105.5t98 90.5t129 66t155 24q274 0 389 -213q49 -93 49 -286v-650h-92v650q0 136 -41 229q-38 92 -118.5 143t-186.5 51q-147 0 -264.5 -98.5t-159.5 -238.5q-33 -113 -33 -271v-465h-92v1569h92z" />
    <glyph glyph-name="i" unicode="i" horiz-adv-x="458" 
d="M276 1133v-1119h-92v1119h92zM156 1399v147h147v-147h-147z" />
    <glyph glyph-name="j" unicode="j" horiz-adv-x="503" 
d="M326 1133v-1043q0 -234 -124 -365.5t-343 -142.5v80q173 11 273.5 120t100.5 308v1043h93zM199 1399v147h147v-147h-147z" />
    <glyph glyph-name="k" unicode="k" horiz-adv-x="1069" 
d="M883 14l-629 564v-564h-92v1569h92v-987l573 534h115l-584 -538l641 -578h-116z" />
    <glyph glyph-name="l" unicode="l" horiz-adv-x="454" 
d="M182 1583h92v-1569h-92v1569z" />
    <glyph glyph-name="m" unicode="m" horiz-adv-x="1906" 
d="M162 14v1119h92v-232q56 123 163.5 192.5t246.5 69.5q118 0 210 -83t117 -206q142 289 439 289q99 0 177.5 -59.5t118.5 -147.5q39 -85 39 -315v-627h-92v623q0 189 -33 268q-33 80 -96.5 129t-152.5 49q-111 0 -202.5 -77t-131.5 -183q-43 -103 -43 -368v-441h-92v582
q0 226 -33 301q-39 89 -100 137.5t-160 48.5q-211 0 -324 -256q-51 -125 -51 -333v-480h-92z" />
    <glyph glyph-name="n" unicode="n" horiz-adv-x="1292" 
d="M162 1133h92v-256q33 57 75 105.5t98 90.5t129 66t155 24q274 0 389 -213q49 -93 49 -286v-650h-92v650q0 136 -41 229q-38 92 -118.5 143t-186.5 51q-147 0 -264.5 -98.5t-159.5 -238.5q-33 -113 -33 -271v-465h-92v1119z" />
    <glyph glyph-name="o" unicode="o" horiz-adv-x="1290" 
d="M1108 573q0 219 -135.5 364.5t-327.5 145.5t-327.5 -145.5t-135.5 -364.5t135.5 -364.5t327.5 -145.5t327.5 145.5t135.5 364.5zM90 573q0 168 74 303.5t201 211t280 75.5t280 -75.5t201 -211t74 -303.5q0 -126 -43.5 -236t-118 -187t-176.5 -121.5t-217 -44.5t-217 44.5
t-176.5 121.5t-118 187t-43.5 236z" />
    <glyph glyph-name="p" unicode="p" horiz-adv-x="1384" 
d="M256 573q0 -220 137 -365t336 -145t336 145t137 365t-137 365t-336 145q-98 0 -184.5 -36t-150.5 -100.5t-101 -161.5t-37 -212zM162 1133h92v-226q77 122 198 189t277 67q157 0 286 -75.5t204 -211t75 -303.5q0 -126 -44 -236t-119.5 -187t-180 -121.5t-221.5 -44.5
q-88 0 -172 27t-166.5 93.5t-136.5 167.5v-667h-92v1528z" />
    <glyph glyph-name="q" unicode="q" horiz-adv-x="1384" 
d="M1128 573q0 115 -37 212t-101 161.5t-150.5 100.5t-184.5 36q-199 0 -336 -145t-137 -365t137 -365t336 -145t336 145t137 365zM1130 1133h93v-1528h-93v667q-54 -101 -136.5 -167.5t-166.5 -93.5t-172 -27q-117 0 -221.5 44.5t-180 121.5t-119.5 187t-44 236
q0 168 75 303.5t204 211t286 75.5q156 0 277 -67t198 -189v226z" />
    <glyph glyph-name="r" unicode="r" horiz-adv-x="757" 
d="M729 1163v-76q-161 0 -280.5 -94.5t-161.5 -234.5q-33 -113 -33 -279v-465h-92v1119h92v-256q30 57 73 106t101 90.5t135.5 65.5t165.5 24z" />
    <glyph glyph-name="s" unicode="s" horiz-adv-x="884" 
d="M715 1044l-51 -55q-101 96 -242 96q-119 0 -183.5 -59t-64.5 -149q0 -70 41 -119t137 -90l160 -66q287 -109 287 -313q0 -136 -101.5 -219.5t-273.5 -83.5q-123 0 -232 63t-163 148l59 53q49 -82 144 -134.5t192 -52.5q137 0 213 59t76 167q0 148 -211 233l-162 66
q-134 55 -195 123.5t-61 162.5q0 119 95 204t243 85q177 0 293 -119z" />
    <glyph glyph-name="t" unicode="t" horiz-adv-x="755" 
d="M279 1053h-250v80h250v305h92v-305h356v-80h-356v-705q0 -151 60.5 -219t205.5 -68q36 0 90 7v-76q-55 -6 -102 -6q-186 0 -266 94.5t-80 267.5v705z" />
    <glyph glyph-name="u" unicode="u" horiz-adv-x="1292" 
d="M1149 14h-92v256q-73 -124 -187.5 -205t-269.5 -81q-274 0 -389 213q-49 93 -49 286v650h92v-650q0 -136 41 -229q38 -92 118.5 -143.5t186.5 -51.5q147 0 264.5 99t159.5 239q33 113 33 271v465h92v-1119z" />
    <glyph glyph-name="v" unicode="v" horiz-adv-x="1122" 
d="M526 14l-477 1119h92l418 -1016l420 1016h92l-479 -1119h-66z" />
    <glyph glyph-name="w" unicode="w" horiz-adv-x="1646" 
d="M823 1026l-319 -1012h-86l-387 1119h92l336 -1016l323 1016h82l324 -1016l336 1016h92l-387 -1119h-86z" />
    <glyph glyph-name="x" unicode="x" horiz-adv-x="1114" 
d="M35 16l475 572l-451 545h95l403 -486l404 486h94l-451 -545l475 -572h-94l-428 514l-428 -514h-94z" />
    <glyph glyph-name="y" unicode="y" horiz-adv-x="1150" 
d="M1104 1133l-688 -1549h-88l202 461l-483 1088h92l436 -1006l437 1006h92z" />
    <glyph glyph-name="z" unicode="z" horiz-adv-x="1003" 
d="M946 1133v-86l-807 -953h830v-80h-934v86l809 953h-766v80h868z" />
    <glyph glyph-name="braceleft" unicode="{" horiz-adv-x="716" 
d="M344 1430v-357q0 -102 -36.5 -178t-106.5 -107q70 -35 106.5 -109t36.5 -175v-357q0 -137 71 -207.5t197 -70.5h43v-80h-43q-170 0 -264 95t-94 263v357q0 116 -45 177.5t-158 68.5v77q113 7 158 68.5t45 177.5v357q0 168 94 263t264 95h43v-80h-43q-126 0 -197 -70.5
t-71 -207.5z" />
    <glyph glyph-name="bar" unicode="|" horiz-adv-x="561" 
d="M328 1737v-1919h-95v1919h95z" />
    <glyph glyph-name="braceright" unicode="}" horiz-adv-x="716" 
d="M375 1073v357q0 137 -71.5 207.5t-197.5 70.5h-43v80h43q170 0 264.5 -95t94.5 -263v-357q0 -117 44.5 -178t158.5 -68v-77q-114 -7 -158.5 -68t-44.5 -178v-357q0 -168 -94.5 -263t-264.5 -95h-43v80h43q126 0 197.5 70.5t71.5 207.5v357q0 101 36.5 175t106.5 109
q-70 31 -106.5 107t-36.5 178z" />
    <glyph glyph-name="asciitilde" unicode="~" horiz-adv-x="1134" 
d="M360 987q34 0 65.5 -10t68.5 -37t54 -41t62 -55q4 -3 17 -15.5t18 -17t17 -15t18.5 -15t18 -12.5t19.5 -12t19 -8.5t21 -6t20 -1.5q40 0 74.5 19.5t60 54t43 71t31.5 79.5l76 -33q-31 -112 -111.5 -194.5t-173.5 -82.5q-99 0 -239 131q-7 6 -30 27.5t-31 28.5t-27.5 22
t-31 20.5t-28 11t-31.5 5.5q-40 0 -74.5 -19.5t-59.5 -53.5t-42.5 -70.5t-31.5 -79.5l-76 33q31 112 111 194t173 82z" />
    <glyph glyph-name="uniFF3C" unicode="&#xff3c;" 
d="M672 1647l684 -1737h-94l-684 1737h94z" />
    <glyph glyph-name="quoteleft" unicode="&#x2018;" horiz-adv-x="401" 
d="M213 1415v139q0 70 40 140.5t99 109.5l33 -28q-102 -78 -102 -213h77v-148h-147z" />
    <glyph glyph-name="quoteright" unicode="&#x2019;" horiz-adv-x="401" 
d="M147 1722v-139q0 -70 -40 -140.5t-99 -109.5l-33 29q52 39 77.5 96t25.5 117h-78v147h147z" />
    <glyph glyph-name="quotedblleft" unicode="&#x201c;" horiz-adv-x="860" 
d="M377 1415v139q0 70 40 140.5t99 109.5l33 -28q-52 -39 -77.5 -96t-25.5 -117h78v-148h-147zM672 1415v139q0 70 40 140.5t99 109.5l33 -28q-52 -39 -77.5 -96t-25.5 -117h78v-148h-147z" />
    <glyph glyph-name="quotedblright" unicode="&#x201d;" horiz-adv-x="860" 
d="M442 1722v-139q0 -70 -40 -140.5t-99 -109.5l-33 29q52 39 77.5 96t25.5 117h-78v147h147zM147 1722v-139q0 -70 -40 -140.5t-99 -109.5l-33 29q52 39 77.5 96t25.5 117h-78v147h147z" />
    <glyph glyph-name="uniFF01" unicode="&#xff01;" 
d="M1014 1624l-13 -1339h-69l-12 1339h94zM893 -57v147h147v-147h-147z" />
    <glyph glyph-name="uniFF02" unicode="&#xff02;" 
d="M838 1112h-58l-18 553h94zM1153 1112h-57l-19 553h94z" />
    <glyph glyph-name="uniFF03" unicode="&#xff03;" 
d="M1655 1030h-295l-148 -461h342l-16 -80h-350l-152 -475h-94l152 475h-447l-151 -475h-95l152 475h-291l17 80h299l147 461h-324l15 78h334l151 475h94l-151 -475h446l152 475h94l-152 -475h285zM819 1030l-147 -461h446l148 461h-447z" />
    <glyph glyph-name="uniFF04" unicode="&#xff04;" 
d="M1020 -182h-82v182q-69 3 -137 25q-115 38 -205.5 108.5t-138.5 147.5l63 59q47 -82 128.5 -144t185.5 -96q47 -14 104 -20v704l-76 33q-154 65 -242 163.5t-88 219.5q0 115 69 202.5t190 127.5q75 23 147 26v181h82v-181q110 -6 194 -43q106 -47 181 -116l-60 -58
q-74 68 -159 101q-77 29 -156 35v-629l90 -37q60 -25 107.5 -50t98 -62t83.5 -77t54.5 -95t21.5 -117q0 -127 -79 -227t-216 -150q-76 -28 -160 -31v-182zM1085 725l-65 27v-672q64 6 123 24q112 37 174.5 117.5t62.5 186.5q0 96 -67 174t-228 143zM627 1200
q0 -189 254 -297l57 -24v596q-50 -2 -115 -21q-94 -33 -145 -100.5t-51 -153.5z" />
    <glyph glyph-name="uniFF05" unicode="&#xff05;" 
d="M457 14l927 1528h93l-930 -1528h-90zM885 1202q0 -155 -107.5 -268t-261.5 -113t-261.5 113t-107.5 268t107.5 268t261.5 113t261.5 -113t107.5 -268zM795 1202q0 129 -78.5 216t-200.5 87t-200 -87t-78 -216t78 -216t200 -87t200.5 87t78.5 216zM1786 354
q0 -155 -107.5 -268t-261.5 -113t-261 113t-107 268t107 268t261 113t261.5 -113t107.5 -268zM1696 354q0 129 -78.5 216t-200.5 87t-200 -87t-78 -216t78 -216t200 -87t200.5 87t78.5 216z" />
    <glyph glyph-name="uniFF06" unicode="&#xff06;" 
d="M596 1247q0 -149 221 -358q160 74 249 161t89 205q0 109 -79.5 179.5t-198.5 70.5q-122 0 -201.5 -72.5t-79.5 -185.5zM1599 12h-110l-168 189q-212 -234 -522 -234q-202 0 -333.5 115t-131.5 313q0 72 34.5 143t93 129.5t126.5 105t143 81.5q-101 106 -165 204t-64 191
q0 142 109 240t270 98q156 0 262 -93t106 -234q0 -139 -91.5 -236t-276.5 -193l432 -497q56 76 90.5 191t42.5 231h88q-11 -134 -51.5 -263.5t-108.5 -224.5zM428 391q0 -106 53.5 -185t138 -118t185.5 -39q263 0 455 221l-455 525q-182 -80 -279.5 -182t-97.5 -222z" />
    <glyph glyph-name="uniFF07" unicode="&#xff07;" 
d="M995 1112h-57l-18 553h94z" />
    <glyph glyph-name="uniFF08" unicode="&#xff08;" 
d="M788 786q0 -305 127.5 -573.5t323.5 -429.5l-39 -57q-220 168 -363 452.5t-143 607.5t143 608t363 453l39 -57q-195 -161 -323 -429.5t-128 -574.5z" />
    <glyph glyph-name="uniFF09" unicode="&#xff09;" 
d="M1145 786q0 306 -128 574.5t-323 429.5l39 57q220 -168 363 -453t143 -608t-143 -607.5t-363 -452.5l-39 57q196 161 323.5 429.5t127.5 573.5z" />
    <glyph glyph-name="uniFF0A" unicode="&#xff0a;" 
d="M967 1100l-201 -289l-68 45l213 289l-305 82l21 82l301 -97l-8 330h94l-8 -330l301 97l20 -82l-305 -82l213 -289l-68 -45z" />
    <glyph glyph-name="uniFF0B" unicode="&#xff0b;" 
d="M1440 823v-78h-428v-432h-90v432h-428v78h428v432h90v-432h428z" />
    <glyph glyph-name="uniFF0C" unicode="&#xff0c;" 
d="M1053 66v-140q0 -70 -40.5 -140.5t-99.5 -109.5l-32 29q102 78 102 213h-78v148h148z" />
    <glyph glyph-name="uniFF0D" unicode="&#xff0d;" 
d="M1384 825v-82h-835v82h835z" />
    <glyph glyph-name="uniFF0E" unicode="&#xff0e;" 
d="M893 -98v147h147v-147h-147z" />
    <glyph glyph-name="uniFF0F" unicode="&#xff0f;" 
d="M582 -90l678 1737h90l-678 -1737h-90z" />
    <glyph glyph-name="uniFF10" unicode="&#xff10;" 
d="M319 778q0 183 53.5 336.5t143 255t206.5 157.5t245 56t244.5 -56t206.5 -157.5t143 -255t53 -336.5t-53 -336.5t-143 -255t-206.5 -157.5t-244.5 -56t-245 56t-206.5 157.5t-143 255t-53.5 336.5zM1522 778q0 164 -46.5 302.5t-124 230t-177.5 142t-207 50.5t-207 -50.5
t-177.5 -142t-124 -230t-46.5 -302.5t46.5 -302.5t124 -230t177.5 -142t207 -50.5t207 50.5t177.5 142t124 230t46.5 302.5z" />
    <glyph glyph-name="uniFF11" unicode="&#xff11;" 
d="M719 1198l409 344h84v-1528h-92v1413l-348 -294z" />
    <glyph glyph-name="uniFF12" unicode="&#xff12;" 
d="M1462 1145q0 -65 -19 -128t-46.5 -112t-72.5 -101.5t-83.5 -89t-91.5 -81.5l-608 -539h962v-80h-1075v76l668 598q50 46 80 75.5t72 79t65 91.5t40 98t17 113q0 154 -121 256t-311 102q-139 0 -238.5 -71t-181.5 -199l-69 45q82 141 206 223t283 82q235 0 379.5 -125
t144.5 -313z" />
    <glyph glyph-name="uniFF13" unicode="&#xff13;" 
d="M948 53q213 0 340 114.5t127 287.5q0 177 -125.5 287t-345.5 106q-104 -3 -168 -41l-41 72l604 583h-854v80h971v-80l-563 -540q135 14 251 -15.5t195 -92.5t123.5 -156t44.5 -203q0 -207 -151 -344.5t-408 -137.5q-169 0 -307 78.5t-217 214.5l72 49q64 -121 190 -191.5
t262 -70.5z" />
    <glyph glyph-name="uniFF14" unicode="&#xff14;" 
d="M1239 520v895l-774 -895h774zM352 440v82l891 1020h88v-1022h248v-80h-248v-426h-92v426h-887z" />
    <glyph glyph-name="uniFF15" unicode="&#xff15;" 
d="M651 1542h791v-76h-719l-96 -563q67 47 160 75t180 28q170 0 294.5 -72t185 -189.5t60.5 -263.5q0 -221 -153 -364.5t-406 -143.5q-164 0 -304 81t-220 214l70 54q64 -120 193.5 -194.5t260.5 -74.5q209 0 338 118t129 310q0 94 -27.5 173.5t-81 141t-140.5 96t-199 34.5
q-53 0 -107 -11.5t-87 -22.5t-79 -36t-54 -30.5t-40 -26.5l-68 30z" />
    <glyph glyph-name="uniFF16" unicode="&#xff16;" 
d="M967 -27q-123 0 -225.5 42.5t-169.5 115t-103.5 168.5t-36.5 205q0 147 96 319l414 719h94l-348 -614q119 78 279 78q154 0 277.5 -72t190 -191.5t66.5 -259.5q0 -106 -39.5 -200t-108.5 -162t-169 -108t-217 -40zM524 483q0 -115 56 -213t158.5 -157.5t228.5 -59.5
q196 0 319 122.5t123 307.5q0 188 -123.5 315.5t-318.5 127.5q-196 0 -319.5 -125.5t-123.5 -317.5z" />
    <glyph glyph-name="uniFF17" unicode="&#xff17;" 
d="M459 1466v76h1016v-67l-672 -1461h-92l671 1452h-923z" />
    <glyph glyph-name="uniFF18" unicode="&#xff18;" 
d="M967 -27q-258 0 -420 125.5t-162 317.5q0 82 31 155t83 125.5t114.5 88.5t129.5 53q-122 43 -194 135t-72 221q0 162 134 275.5t356 113.5q221 0 355 -113.5t134 -275.5q0 -129 -72 -221t-194 -135q67 -17 129.5 -53t114.5 -88.5t83 -125.5t31 -155q0 -193 -161.5 -318
t-419.5 -125zM967 53q226 0 357.5 100.5t131.5 262.5q0 158 -138.5 266.5t-350.5 108.5t-351 -109t-139 -266q0 -162 132 -262.5t358 -100.5zM569 1194q0 -137 111 -230.5t287 -93.5q175 0 286 93t111 231q0 142 -106 225.5t-291 83.5t-291.5 -83.5t-106.5 -225.5z" />
    <glyph glyph-name="uniFF19" unicode="&#xff19;" 
d="M967 1583q164 0 287 -72.5t185 -192t62 -265.5q0 -148 -96 -320l-414 -719h-94l348 615q-119 -78 -278 -78q-154 0 -278 72t-190.5 191t-66.5 259q0 141 67 257t190 184.5t278 68.5zM1409 1073q0 115 -56 213t-158 157.5t-228 59.5q-196 0 -319.5 -122.5t-123.5 -307.5
q0 -188 124 -315t319 -127q196 0 319 125t123 317z" />
    <glyph glyph-name="uniFF1A" unicode="&#xff1a;" 
d="M893 258v148h147v-148h-147zM893 1159v148h147v-148h-147z" />
    <glyph glyph-name="uniFF1B" unicode="&#xff1b;" 
d="M903 1159v148h148v-148h-148zM1053 287v139h-148v-147h78q0 -135 -102 -213l32 -29q59 39 99.5 109.5t40.5 140.5z" />
    <glyph glyph-name="uniFF1C" unicode="&#xff1c;" 
d="M1348 1755l-662 -973l662 -972l-64 -50l-700 1022l700 1022z" />
    <glyph glyph-name="uniFF1D" unicode="&#xff1d;" 
d="M1415 1057v-78h-899v78h899zM1415 590v-78h-899v78h899z" />
    <glyph glyph-name="uniFF1E" unicode="&#xff1e;" 
d="M1245 782l-661 973l63 49l701 -1022l-701 -1022l-63 50z" />
    <glyph glyph-name="uniFF1F" unicode="&#xff1f;" 
d="M1454 1202q0 -81 -27 -156.5t-73 -135t-108.5 -110.5t-132.5 -87t-146 -60v-368h-95v417q222 62 355 196t133 304q0 167 -116.5 274t-309.5 107q-121 0 -222.5 -68.5t-162.5 -187.5l-70 45q59 124 185 208.5t270 84.5q120 0 219 -36.5t164.5 -99.5t101 -147.5
t35.5 -179.5zM848 -57v147h147v-147h-147z" />
    <glyph glyph-name="uniFF20" unicode="&#xff20;" 
d="M946 127q-185 0 -306.5 129t-121.5 348q0 218 121.5 348.5t306.5 130.5q89 0 177 -39t155 -133v156h90v-680q0 -84 56.5 -135t144.5 -51q115 0 195.5 122.5t80.5 354.5q0 178 -66 334t-182 267t-279 175t-351 64q-180 0 -342 -69t-280 -187.5t-187.5 -287.5t-69.5 -360
q0 -193 70 -360.5t193.5 -286.5t299.5 -187.5t379 -68.5q167 0 303.5 47.5t229.5 118.5l41 -82q-232 -166 -574 -166q-225 0 -418 75t-327.5 205.5t-210.5 312.5t-76 392q0 208 75 391.5t204 313.5t308.5 205t381.5 75q208 0 389 -71t307.5 -193.5t199 -293t72.5 -363.5
q0 -267 -103 -409t-263 -142q-43 0 -79.5 7.5t-74.5 26.5t-68.5 57.5t-50.5 94.5q-54 -89 -148 -137.5t-202 -48.5zM946 209q150 0 241 96t91 299q0 202 -91.5 299.5t-240.5 97.5q-145 0 -241.5 -106.5t-96.5 -290.5q0 -185 96 -290t242 -105z" />
    <glyph glyph-name="uniFF21" unicode="&#xff21;" 
d="M1554 14l-180 426h-815l-180 -426h-98l655 1528h61l656 -1528h-99zM967 1407l-373 -885h745z" />
    <glyph glyph-name="uniFF22" unicode="&#xff22;" 
d="M406 14v1528h548q202 0 324.5 -106.5t122.5 -261.5q0 -108 -59 -190t-160 -124q50 -10 99 -33t93.5 -60t78.5 -83.5t54.5 -108t20.5 -129.5q0 -86 -36.5 -164.5t-101.5 -138t-161.5 -94.5t-210.5 -35h-612zM1018 799h-518v-703h518q184 0 300 102.5t116 247.5
q0 148 -115.5 250.5t-300.5 102.5zM954 1460h-454v-579h454q158 0 255.5 83.5t97.5 209.5q0 121 -97.5 203.5t-255.5 82.5z" />
    <glyph glyph-name="uniFF23" unicode="&#xff23;" 
d="M1591 377l70 -51q-98 -166 -266.5 -259.5t-370.5 -93.5q-159 0 -298 58.5t-239.5 163t-158.5 255.5t-58 328q0 176 58 327t158.5 255.5t239.5 163.5t298 59q197 0 357.5 -85t263.5 -241l-74 -47q-91 141 -232 216t-315 75q-137 0 -258 -52t-210 -145t-140 -229.5
t-51 -296.5t51 -296.5t140 -229.5t210 -145t258 -52q182 0 329 82.5t238 239.5z" />
    <glyph glyph-name="uniFF24" unicode="&#xff24;" 
d="M360 1542h392q182 0 336 -58.5t259.5 -160.5t164.5 -242.5t59 -302.5t-59 -302.5t-164.5 -242.5t-259.5 -160.5t-336 -58.5h-392v1528zM752 1460h-297v-1364h297q214 0 379.5 87t255.5 242t90 353q0 197 -90 352t-255.5 242.5t-379.5 87.5z" />
    <glyph glyph-name="uniFF25" unicode="&#xff25;" 
d="M537 758v-662h952v-82h-1047v1528h1014v-82h-919v-620h778v-82h-778z" />
    <glyph glyph-name="uniFF26" unicode="&#xff26;" 
d="M563 721v-707h-94v1528h995v-82h-901v-657h758v-82h-758z" />
    <glyph glyph-name="uniFF27" unicode="&#xff27;" 
d="M1016 739v82h692v-26q0 -240 -84 -424.5t-252 -291t-399 -106.5q-158 0 -296.5 58.5t-238.5 163t-157.5 255.5t-57.5 328q0 176 57.5 327t157.5 255.5t238.5 163.5t296.5 59q195 0 353 -83t261 -238l-76 -48q-86 144 -224 215.5t-314 71.5q-137 0 -257.5 -52t-208.5 -145
t-139 -229.5t-51 -296.5t51 -296.5t139 -229.5t208.5 -145t257.5 -52q149 0 270 51.5t201 142.5t124 216t46 274h-598z" />
    <glyph glyph-name="uniFF28" unicode="&#xff28;" 
d="M477 1542v-682h977v682h94v-1528h-94v764h-977v-764h-94v1528h94z" />
    <glyph glyph-name="uniFF29" unicode="&#xff29;" 
d="M1014 1542v-1528h-94v1528h94z" />
    <glyph glyph-name="uniFF2A" unicode="&#xff2a;" 
d="M1331 1542h94v-946q0 -308 -136 -465.5t-371 -157.5q-273 0 -412 213l59 62q57 -98 151.5 -145.5t201.5 -47.5q73 0 134 17.5t113.5 58t88.5 102t56.5 154.5t20.5 211v944z" />
    <glyph glyph-name="uniFF2B" unicode="&#xff2b;" 
d="M504 1542v-708l825 708h129l-840 -717l904 -811h-131l-887 797v-797h-94v1528h94z" />
    <glyph glyph-name="uniFF2C" unicode="&#xff2c;" 
d="M553 1542v-1448h920v-80h-1014v1528h94z" />
    <glyph glyph-name="uniFF2D" unicode="&#xff2d;" 
d="M928 248l-621 1163v-1397h-94v1528h123l629 -1186l632 1186h123v-1528h-94v1397l-625 -1163h-73z" />
    <glyph glyph-name="uniFF2E" unicode="&#xff2e;" 
d="M1427 14l-950 1409v-1409h-94v1528h123l950 -1409v1409h94v-1528h-123z" />
    <glyph glyph-name="uniFF2F" unicode="&#xff2f;" 
d="M217 778q0 176 57.5 327t157.5 255.5t238.5 163.5t296.5 59t296.5 -59t238 -163.5t157 -255.5t57.5 -327q0 -177 -57.5 -328t-157 -255.5t-238 -163t-296.5 -58.5t-296.5 58.5t-238.5 163t-157.5 255.5t-57.5 328zM1622 778q0 160 -51 296.5t-139 229.5t-208 145t-257 52
t-257.5 -52t-208.5 -145t-139 -229.5t-51 -296.5t51 -296.5t139 -229.5t208.5 -145t257.5 -52t257 52t208 145t139 229.5t51 296.5z" />
    <glyph glyph-name="uniFF30" unicode="&#xff30;" 
d="M506 643h463q199 0 327.5 119.5t128.5 290.5q0 169 -128.5 288t-327.5 119h-463v-817zM969 561h-463v-547h-94v1528h557q121 0 225 -39t175 -105t111 -155.5t40 -189.5t-40 -190t-111 -156.5t-175 -106t-225 -39.5z" />
    <glyph glyph-name="uniFF31" unicode="&#xff31;" 
d="M182 778q0 176 57.5 327t157.5 255.5t238.5 163.5t296.5 59t296.5 -59t238 -163.5t157 -255.5t57.5 -327t-56.5 -325.5t-158.5 -257.5q-64 -64 -129 -107l412 -258l-55 -70l-439 283l-26 -12q-137 -58 -297 -58q-158 0 -296.5 58.5t-238.5 163t-157.5 255.5t-57.5 328z
M1587 778q0 160 -51 296.5t-139 229.5t-208 145t-257 52t-257.5 -52t-208.5 -145t-139 -229.5t-51 -296.5t51 -296.5t139 -229.5t208.5 -145t257.5 -52t257 52t208 145t139 229.5t51 296.5z" />
    <glyph glyph-name="uniFF32" unicode="&#xff32;" 
d="M928 604h-441v-590h-94v1528h537q245 0 387.5 -131.5t142.5 -337.5q0 -157 -81 -269t-230 -165l-8 -4l397 -621h-106l-379 598q-52 -8 -125 -8zM487 686h443q200 0 319 108t119 279t-119 279t-319 108h-443v-774z" />
    <glyph glyph-name="uniFF33" unicode="&#xff33;" 
d="M1407 1415l-59 -59q-155 145 -373 145q-170 0 -266.5 -83.5t-96.5 -205.5q0 -191 267 -305l235 -98q79 -32 139 -66.5t117.5 -84t89 -116.5t31.5 -147q0 -176 -144.5 -299t-369.5 -123q-93 0 -181 27t-155.5 71t-117.5 93.5t-83 101.5l64 60q65 -113 195.5 -192
t277.5 -79q188 0 304 96.5t116 243.5q0 98 -70 178t-237 150l-232 96q-160 69 -250 168.5t-90 224.5q0 159 126 265t331 106q257 0 432 -168z" />
    <glyph glyph-name="uniFF34" unicode="&#xff34;" 
d="M920 14v1446h-560v82h1213v-82h-559v-1446h-94z" />
    <glyph glyph-name="uniFF35" unicode="&#xff35;" 
d="M967 -27q-259 0 -421.5 167.5t-162.5 447.5v954h94v-954q0 -244 136.5 -388.5t353.5 -144.5t353 144.5t136 388.5v954h94v-954q0 -280 -162 -447.5t-421 -167.5z" />
    <glyph glyph-name="uniFF36" unicode="&#xff36;" 
d="M289 1542h98l580 -1415l579 1415h99l-637 -1528h-82z" />
    <glyph glyph-name="uniFF37" unicode="&#xff37;" 
d="M967 1407l-420 -1393h-92l-508 1528h98l457 -1392l418 1392h94l418 -1392l456 1392h99l-508 -1528h-93z" />
    <glyph glyph-name="uniFF38" unicode="&#xff38;" 
d="M1581 1542l-567 -743l598 -785h-99l-546 717l-547 -717h-98l598 785l-568 743h99l514 -676l518 676h98z" />
    <glyph glyph-name="uniFF39" unicode="&#xff39;" 
d="M967 623l544 919h99l-596 -1001v-527h-94v527l-596 1001h98z" />
    <glyph glyph-name="uniFF3A" unicode="&#xff3a;" 
d="M1503 1473l-995 -1377h1026v-82h-1135v70l992 1376h-951v82h1063v-69z" />
    <glyph glyph-name="uniFF3B" unicode="&#xff3b;" 
d="M1192 1788v-82h-356v-1835h356v-82h-451v1999h451z" />
    <glyph glyph-name="uniFFE6" unicode="&#xffe6;" 
d="M1649 961h229v-74h-246l-231 -907h-94l-226 907h-227l-229 -907h-99l-223 907h-240v74h222l-131 536h90l133 -536h403l131 536h115l129 -536h406l133 536h92zM969 1389l-97 -428h193zM1171 887l185 -783l186 783h-371zM395 887l178 -781l191 781h-369z" />
    <glyph glyph-name="uniFF3D" unicode="&#xff3d;" 
d="M741 1706v82h451v-1999h-451v82h357v1835h-357z" />
    <glyph glyph-name="uniFF3E" unicode="&#xff3e;" 
d="M967 1460l-351 -606h-94l406 688h78l405 -688h-94z" />
    <glyph glyph-name="uniFF3F" unicode="&#xff3f;" 
d="M1415 -70v-82h-897v82h897z" />
    <glyph glyph-name="uniFF40" unicode="&#xff40;" 
d="M891 1542l264 -483h-84l-295 483h115z" />
    <glyph glyph-name="uniFF41" unicode="&#xff41;" 
d="M1438 573q0 115 -37 212t-101 161.5t-150.5 100.5t-184.5 36q-199 0 -336 -145t-137 -365t137 -365t336 -145t336 145t137 365zM1440 1133h92v-1119h-92v258q-54 -101 -136.5 -167.5t-166.5 -93.5t-172 -27q-117 0 -221.5 44.5t-180.5 121.5t-120 187t-44 236
q0 168 75 303.5t204.5 211t286.5 75.5q156 0 277 -67t198 -189v226z" />
    <glyph glyph-name="uniFF42" unicode="&#xff42;" 
d="M494 573q0 -220 137 -365t336 -145t336 145t137 365t-137 365t-336 145q-98 0 -184.5 -36t-150.5 -100.5t-101 -161.5t-37 -212zM399 1583h93v-676q77 122 198 189t277 67q157 0 286 -75.5t204 -211t75 -303.5q0 -126 -44 -236t-119.5 -187t-180 -121.5t-221.5 -44.5
q-88 0 -172 27t-166.5 93.5t-136.5 167.5v-258h-93v1569z" />
    <glyph glyph-name="uniFF43" unicode="&#xff43;" 
d="M1446 940l-72 -47q-63 91 -157.5 140.5t-204.5 49.5q-93 0 -178 -38.5t-148.5 -105t-101 -162t-37.5 -204.5t37.5 -204.5t101 -162t148.5 -105t178 -38.5q125 0 231 61.5t166 174.5l70 -47q-72 -128 -193 -198t-274 -70q-115 0 -217.5 44.5t-177 121.5t-118.5 187
t-44 236q0 168 74.5 303.5t202 211t280.5 75.5q132 0 248.5 -61.5t185.5 -161.5z" />
    <glyph glyph-name="uniFF44" unicode="&#xff44;" 
d="M1438 573q0 115 -37 212t-101 161.5t-150.5 100.5t-184.5 36q-199 0 -336 -145t-137 -365t137 -365t336 -145t336 145t137 365zM1440 1583h92v-1569h-92v258q-54 -101 -136.5 -167.5t-166.5 -93.5t-172 -27q-117 0 -221.5 44.5t-180.5 121.5t-120 187t-44 236
q0 168 75 303.5t204.5 211t286.5 75.5q156 0 277 -67t198 -189v676z" />
    <glyph glyph-name="uniFF45" unicode="&#xff45;" 
d="M1499 532h-967q12 -204 138.5 -336.5t318.5 -132.5q130 0 234 61t174 169l63 -47q-83 -122 -203 -192t-268 -70q-158 0 -284.5 75.5t-198.5 210t-72 303.5q0 125 43 236t116 188t171 121.5t205 44.5q148 0 270 -75.5t191 -206t69 -287.5v-62zM526 612h881
q-12 209 -131.5 340t-306.5 131q-170 0 -296.5 -131.5t-146.5 -339.5z" />
    <glyph glyph-name="uniFF46" unicode="&#xff46;" 
d="M1317 1573v-78q-52 10 -90 10q-82 0 -134.5 -17t-81.5 -55t-39.5 -87t-10.5 -123v-90h356v-80h-356v-1039h-93v1039h-252v80h252v90q0 173 80 267.5t266 94.5q56 0 103 -12z" />
    <glyph glyph-name="uniFF47" unicode="&#xff47;" 
d="M1438 592q0 113 -38 206.5t-103 155t-150.5 95.5t-181.5 34q-95 0 -181 -36t-150.5 -99.5t-103 -156.5t-38.5 -199q0 -142 65.5 -255.5t173 -175t234.5 -61.5t234.5 61.5t173 175t65.5 255.5zM1440 1133h92v-1041q0 -250 -148.5 -389t-402.5 -139q-138 0 -264.5 63
t-200.5 166l64 51q56 -92 167.5 -146t233.5 -54q212 0 335.5 114t123.5 334v195q-45 -73 -104 -127t-122.5 -83.5t-125 -43t-123.5 -13.5q-156 0 -285 72t-205 204t-76 296t76 295.5t205 203.5t285 72q151 0 276.5 -69t198.5 -187v226z" />
    <glyph glyph-name="uniFF48" unicode="&#xff48;" 
d="M565 1583v-706q33 57 75 105.5t98 90.5t129 66t155 24q274 0 389 -213q49 -93 49 -286v-650h-92v650q0 136 -41 229q-38 92 -118.5 143t-186.5 51q-147 0 -264.5 -98.5t-159.5 -238.5q-33 -113 -33 -271v-465h-92v1569h92z" />
    <glyph glyph-name="uniFF49" unicode="&#xff49;" 
d="M1014 1133v-1119h-92v1119h92zM893 1399v147h147v-147h-147z" />
    <glyph glyph-name="uniFF4A" unicode="&#xff4a;" 
d="M1190 1133v-1043q0 -234 -124 -365.5t-343 -142.5v80q173 11 274 120.5t101 307.5v1043h92zM1063 1399v147h147v-147h-147z" />
    <glyph glyph-name="uniFF4B" unicode="&#xff4b;" 
d="M1268 14l-629 564v-564h-92v1569h92v-987l573 534h115l-584 -538l641 -578h-116z" />
    <glyph glyph-name="uniFF4C" unicode="&#xff4c;" 
d="M920 1583h92v-1569h-92v1569z" />
    <glyph glyph-name="uniFF4D" unicode="&#xff4d;" 
d="M164 14v1119h92v-232q56 123 163.5 192.5t246.5 69.5q118 0 210 -83t117 -206q142 289 439 289q99 0 178.5 -59.5t118.5 -147.5q38 -83 38 -315v-627h-92v623q0 189 -33 268q-33 80 -96.5 129t-152.5 49q-111 0 -202.5 -77t-131.5 -183q-43 -103 -43 -368v-441h-92v582
q0 226 -33 301q-39 89 -100 137.5t-160 48.5q-211 0 -324 -256q-51 -125 -51 -333v-480h-92z" />
    <glyph glyph-name="uniFF4E" unicode="&#xff4e;" 
d="M473 1133h92v-256q33 57 75 105.5t98 90.5t129 66t155 24q274 0 389 -213q49 -93 49 -286v-650h-92v650q0 136 -41 229q-38 92 -118.5 143t-186.5 51q-147 0 -264.5 -98.5t-159.5 -238.5q-33 -113 -33 -271v-465h-92v1119z" />
    <glyph glyph-name="uniFF4F" unicode="&#xff4f;" 
d="M1430 573q0 219 -135.5 364.5t-327.5 145.5t-327.5 -145.5t-135.5 -364.5t135.5 -364.5t327.5 -145.5t327.5 145.5t135.5 364.5zM412 573q0 168 74 303.5t201 211t280 75.5t280 -75.5t201 -211t74 -303.5q0 -126 -43.5 -236t-118 -187t-176.5 -121.5t-217 -44.5
t-217 44.5t-176.5 121.5t-118 187t-43.5 236z" />
    <glyph glyph-name="uniFF50" unicode="&#xff50;" 
d="M494 573q0 -220 137 -365t336 -145t336 145t137 365t-137 365t-336 145q-98 0 -184.5 -36t-150.5 -100.5t-101 -161.5t-37 -212zM399 1133h93v-226q77 122 198 189t277 67q157 0 286 -75.5t204 -211t75 -303.5q0 -126 -44 -236t-119.5 -187t-180 -121.5t-221.5 -44.5
q-88 0 -172 27t-166.5 93.5t-136.5 167.5v-667h-93v1528z" />
    <glyph glyph-name="uniFF51" unicode="&#xff51;" 
d="M1438 573q0 115 -37 212t-101 161.5t-150.5 100.5t-184.5 36q-199 0 -336 -145t-137 -365t137 -365t336 -145t336 145t137 365zM1440 1133h92v-1528h-92v667q-54 -101 -136.5 -167.5t-166.5 -93.5t-172 -27q-117 0 -221.5 44.5t-180.5 121.5t-120 187t-44 236
q0 168 75 303.5t204.5 211t286.5 75.5q156 0 277 -67t198 -189v226z" />
    <glyph glyph-name="uniFF52" unicode="&#xff52;" 
d="M1249 1163v-76q-161 0 -280.5 -94.5t-161.5 -234.5q-33 -113 -33 -279v-465h-92v1119h92v-256q30 57 73 106t101 90.5t135.5 65.5t165.5 24z" />
    <glyph glyph-name="uniFF53" unicode="&#xff53;" 
d="M1268 1044l-51 -55q-101 96 -242 96q-119 0 -183.5 -59t-64.5 -149q0 -70 41 -119t137 -90l160 -66q287 -109 287 -313q0 -136 -101.5 -219.5t-273.5 -83.5q-123 0 -232 63t-163 148l59 53q49 -82 144 -134.5t192 -52.5q137 0 213 59t76 167q0 148 -211 233l-162 66
q-134 55 -195 123.5t-61 162.5q0 119 95 204t243 85q177 0 293 -119z" />
    <glyph glyph-name="uniFF54" unicode="&#xff54;" 
d="M866 1053h-250v80h250v305h92v-305h357v-80h-357v-705q0 -151 61 -219t206 -68q36 0 90 7v-76q-55 -6 -103 -6q-186 0 -266 94.5t-80 267.5v705z" />
    <glyph glyph-name="uniFF55" unicode="&#xff55;" 
d="M1460 14h-92v256q-73 -124 -187.5 -205t-269.5 -81q-274 0 -389 213q-49 93 -49 286v650h92v-650q0 -136 41 -229q38 -92 118.5 -143.5t186.5 -51.5q147 0 264.5 99t159.5 239q33 113 33 271v465h92v-1119z" />
    <glyph glyph-name="uniFF56" unicode="&#xff56;" 
d="M932 14l-477 1119h92l418 -1016l419 1016h93l-480 -1119h-65z" />
    <glyph glyph-name="uniFF57" unicode="&#xff57;" 
d="M967 1026l-320 -1012h-86l-387 1119h92l336 -1016l324 1016h82l323 -1016l336 1016h92l-387 -1119h-86z" />
    <glyph glyph-name="uniFF58" unicode="&#xff58;" 
d="M444 16l476 572l-451 545h94l404 -486l403 486h94l-450 -545l475 -572h-94l-428 514l-428 -514h-95z" />
    <glyph glyph-name="uniFF59" unicode="&#xff59;" 
d="M1495 1133l-688 -1549h-88l203 461l-484 1088h92l437 -1006l436 1006h92z" />
    <glyph glyph-name="uniFF5A" unicode="&#xff5a;" 
d="M1411 1133v-86l-807 -953h830v-80h-934v86l809 953h-766v80h868z" />
    <glyph glyph-name="uniFF5B" unicode="&#xff5b;" 
d="M956 1430v-357q0 -102 -36.5 -178t-106.5 -107q70 -35 106.5 -109t36.5 -175v-357q0 -137 71.5 -207.5t197.5 -70.5h43v-80h-43q-170 0 -264.5 95t-94.5 263v357q0 116 -44.5 177.5t-157.5 68.5v77q113 7 157.5 68.5t44.5 177.5v357q0 168 94.5 263t264.5 95h43v-80h-43
q-126 0 -197.5 -70.5t-71.5 -207.5z" />
    <glyph glyph-name="uniFF5C" unicode="&#xff5c;" 
d="M1014 1737v-1919h-94v1919h94z" />
    <glyph glyph-name="uniFF5D" unicode="&#xff5d;" 
d="M975 1073v357q0 137 -71 207.5t-197 70.5h-43v80h43q170 0 264 -95t94 -263v-357q0 -117 44.5 -178t158.5 -68v-77q-114 -7 -158.5 -68t-44.5 -178v-357q0 -168 -94 -263t-264 -95h-43v80h43q126 0 197 70.5t71 207.5v357q0 101 36.5 175t106.5 109q-70 31 -106.5 107
t-36.5 178z" />
    <glyph glyph-name="uniFFE3" unicode="&#xffe3;" 
d="M500 1751h932v-80h-932v80z" />
    <glyph glyph-name="uni3131" unicode="&#x3131;" 
d="M1548 317v943h-1302v81h1401v-1024h-99z" />
    <glyph glyph-name="uni3132" unicode="&#x3132;" 
d="M1612 317v943h-594v81h690v-1024h-96zM823 317v943h-600v81h697v-1024h-97z" />
    <glyph glyph-name="uni3133" unicode="&#x3133;" 
d="M1772 373l-64 -70q-143 109 -248 268q-75 113 -131 248q-13 -38 -33 -86q-103 -250 -280 -436l-68 55q165 160 267 416.5t102 572.5h98q0 -179 -33 -325l-18 -80q25 -74 59 -143q64 -128 156 -239t193 -181zM782 317v943h-559v81h656v-1024h-97z" />
    <glyph glyph-name="uni3134" unicode="&#x3134;" 
d="M383 1341v-942h1303v-82h-1401v1024h98z" />
    <glyph glyph-name="uni3135" unicode="&#x3135;" 
d="M1008 299l-64 63q166 132 266 365q97 227 103 533h-357v81h791v-81h-336q0 -161 -31 -304q-9 -43 -14 -61q60 -164 160 -293q103 -136 246 -221l-58 -76q-140 93 -248 234q-84 117 -135 241q-11 -37 -37 -94q-103 -226 -286 -387zM322 1341v-942h591v-82h-690v1024h99z
" />
    <glyph glyph-name="uni3136" unicode="&#x3136;" 
d="M1550 1403v-82h-528v82h528zM322 1341v-942h550v-82h-649v1024h99zM1755 1116v-82h-274q69 -34 120.5 -129t51.5 -209q0 -188 -101.5 -304t-265.5 -116t-265 116t-101 304q0 114 51.5 209t120.5 129h-275v82h938zM1286 1034q-127 0 -198.5 -96t-71.5 -242t71.5 -242
t198.5 -96t198.5 96t71.5 242t-71.5 242t-198.5 96z" />
    <glyph glyph-name="uni3137" unicode="&#x3137;" 
d="M383 1260v-861h1282v-82h-1380v1024h1360v-81h-1262z" />
    <glyph glyph-name="uni3138" unicode="&#x3138;" 
d="M319 1260v-861h570v-82h-666v1024h666v-81h-570zM1104 1260v-861h629v-82h-725v1024h704v-81h-608z" />
    <glyph glyph-name="uni3139" unicode="&#x3139;" 
d="M383 799v-420h1303v-82h-1401v584h1261v399h-1261v82h1360v-563h-1262z" />
    <glyph glyph-name="uni313A" unicode="&#x313a;" 
d="M319 799v-420h703v-82h-799v584h600v399h-600v82h697v-563h-601zM1612 297v983h-594v82h690v-1065h-96z" />
    <glyph glyph-name="uni313B" unicode="&#x313b;" 
d="M319 799v-420h590v-82h-686v584h570v399h-570v82h666v-563h-570zM1028 1362h680v-1065h-680v1065zM1124 1280v-901h488v901h-488z" />
    <glyph glyph-name="uni313C" unicode="&#x313c;" 
d="M319 799v-420h590v-82h-686v584h570v399h-570v82h666v-563h-570zM1612 1362h96v-1065h-680v1065h96v-420h488v420zM1124 379h488v481h-488v-481z" />
    <glyph glyph-name="uni313D" unicode="&#x313d;" 
d="M319 799v-420h611v-82h-707v584h570v399h-570v82h666v-563h-570zM1772 352l-64 -69q-143 109 -248 268q-85 130 -133 258l-31 -82q-106 -267 -280 -451l-68 56q164 159 266.5 430t102.5 600h98q0 -184 -33 -336q-5 -29 -22 -98q35 -98 63 -156q64 -128 156 -239t193 -181
z" />
    <glyph glyph-name="uni313E" unicode="&#x313e;" 
d="M319 799v-420h590v-82h-686v584h570v399h-570v82h666v-563h-570zM1124 799v-420h584v-82h-680v1065h680v-82h-584v-399h553v-82h-553z" />
    <glyph glyph-name="uni313F" unicode="&#x313f;" 
d="M1729 379v-82h-762v82h151l-14 903h-117v80h721v-80h-121l-14 -903h156zM1200 1282l12 -903h267l12 903h-291zM319 799v-420h570v-82h-666v584h549v399h-549v82h645v-563h-549z" />
    <glyph glyph-name="uni3140" unicode="&#x3140;" 
d="M319 799v-420h611v-82h-707v584h508v399h-508v82h604v-563h-508zM1581 1403v-82h-487v82h487zM1337 276q-158 0 -252 117t-94 303q0 112 48 208.5t116 129.5h-235v82h835v-82h-235q67 -33 115 -129.5t48 -208.5q0 -186 -94 -303t-252 -117zM1337 358q121 0 185.5 97.5
t64.5 240.5t-64.5 240.5t-185.5 97.5t-185.5 -97.5t-64.5 -240.5t64.5 -240.5t185.5 -97.5z" />
    <glyph glyph-name="uni3141" unicode="&#x3141;" 
d="M1645 1341v-1024h-1360v1024h1360zM1546 399v861h-1163v-861h1163z" />
    <glyph glyph-name="uni3142" unicode="&#x3142;" 
d="M1546 1362h99v-1045h-1360v1045h98v-430h1163v430zM383 399h1163v451h-1163v-451z" />
    <glyph glyph-name="uni3143" unicode="&#x3143;" 
d="M799 1362h96v-1045h-672v1045h96v-430h480v430zM319 399h480v451h-480v-451zM1612 1362h96v-1045h-672v1045h97v-430h479v430zM1133 399h479v451h-479v-451z" />
    <glyph glyph-name="uni3144" unicode="&#x3144;" 
d="M840 1362h96v-1045h-713v1045h96v-430h521v430zM319 399h521v451h-521v-451zM1772 373l-64 -70q-143 109 -248 268q-75 113 -131 248q-13 -38 -33 -86q-103 -250 -280 -436l-68 55q165 160 267 416.5t102 572.5h98q0 -179 -33 -325l-18 -80q22 -67 59 -143
q64 -128 156 -239t193 -181z" />
    <glyph glyph-name="uni3145" unicode="&#x3145;" 
d="M1763 369l-57 -80q-177 58 -346 179t-297 280q-62 76 -117 174q-60 -117 -155 -230q-115 -134 -263 -236t-311 -165l-55 74q163 58 304 154t249.5 222.5t177 288t82.5 340.5h98q-15 -194 -86 -362q51 -97 127 -191q125 -153 292.5 -270.5t356.5 -177.5z" />
    <glyph glyph-name="uni3146" unicode="&#x3146;" 
d="M827 268l-59 62q122 86 207 184q-45 33 -74 59q-115 106 -207 234l-43 67q-8 -19 -53 -106q-144 -252 -397 -414l-60 62q245 152 372.5 394t139.5 552h95q-3 -208 -64 -395q18 -37 64 -107q86 -119 210 -217q71 -51 74 -53q53 73 96 164q123 268 144 608h94
q-9 -226 -57 -401q29 -75 73 -142q84 -124 201 -231.5t246 -173.5l-66 -80q-117 63 -232.5 175.5t-203.5 246.5q-39 67 -53 96q-31 -80 -60 -135q-138 -271 -387 -449z" />
    <glyph glyph-name="uni3147" unicode="&#x3147;" 
d="M967 1386q149 0 273 -44t207 -119.5t129 -176.5t46 -215q0 -115 -46 -216t-129 -176.5t-207 -119t-273 -43.5t-273.5 43.5t-207.5 119t-129 176.5t-46 216q0 114 46 215t129 176.5t207.5 119.5t273.5 44zM967 358q250 0 403.5 134.5t153.5 338.5t-153.5 339t-403.5 135
t-403.5 -135t-153.5 -339t153.5 -338.5t403.5 -134.5z" />
    <glyph glyph-name="uni3148" unicode="&#x3148;" 
d="M201 289l-51 78q259 72 452.5 227.5t290.5 378.5q58 131 76 287h-680v81h1353v-81h-573q-14 -169 -82 -320l-2 -2q123 -203 320 -344q208 -149 471 -219l-58 -80q-180 50 -348 151.5t-299 241.5q-68 74 -127 168q-63 -118 -149 -209q-115 -125 -268 -216.5t-326 -141.5z
" />
    <glyph glyph-name="uni3149" unicode="&#x3149;" 
d="M160 354l-60 62q254 149 371 370q111 205 129 474h-352v81h667v-81h-221q-10 -183 -53 -320q26 -50 57 -92q90 -117 217 -217l78 -56q49 61 103 154q120 217 147 531h-237v81h667v-81h-334q-9 -158 -47 -291q-2 -14 -10 -37q65 -154 186 -281q137 -143 320 -235l-64 -82
q-258 140 -428 403q-39 63 -53 90q-26 -68 -65 -135q-134 -238 -392 -424l-59 62q121 85 205 174q-27 20 -74 57q-127 113 -213 234q-16 21 -39 55q-19 -45 -55 -109q-139 -233 -391 -387z" />
    <glyph glyph-name="uni314A" unicode="&#x314a;" 
d="M1796 381l-55 -82q-173 32 -349.5 112.5t-312.5 196.5q-69 57 -127 131q-77 -109 -186 -190q-231 -174 -588 -256l-49 80q244 48 443.5 160t308.5 276q61 93 84 195h-719v81h1442v-81h-623q-17 -100 -66 -193q55 -76 131 -137q260 -212 666 -293zM561 1403h811v-82h-811
v82z" />
    <glyph glyph-name="uni314B" unicode="&#x314b;" 
d="M1548 297v451l-1325 -19v82l1325 14v435h-1302v81h1401v-1044h-99z" />
    <glyph glyph-name="uni314C" unicode="&#x314c;" 
d="M383 379h1303v-82h-1401v1065h1360v-82h-1262v-399h1241v-82h-1241v-420z" />
    <glyph glyph-name="uni314D" unicode="&#x314d;" 
d="M203 401h348l-33 713h98l31 -713h635l33 713h98l-35 -713h351v-84h-1526v84zM260 1341h1411v-81h-1411v81z" />
    <glyph glyph-name="uni314E" unicode="&#x314e;" 
d="M532 1423h869v-82h-869v82zM1729 1071h-1524v82h1524v-82zM967 932q168 0 301 -44t208.5 -127t75.5 -192q0 -108 -75.5 -191t-208 -127t-301.5 -44t-301.5 44t-208.5 127t-76 191t76 191.5t209 127.5t301 44zM967 287q218 0 353.5 73t135.5 209t-135.5 209.5t-353.5 73.5
t-354 -73.5t-136 -209.5t136 -209t354 -73z" />
    <glyph glyph-name="uni314F" unicode="&#x314f;" 
d="M967 -150h-99v1819h99v-780h438v-82h-438v-957z" />
    <glyph glyph-name="uni3150" unicode="&#x3150;" 
d="M1286 1669v-1816h-96v964h-406v-919h-96v1751h96v-750h406v770h96z" />
    <glyph glyph-name="uni3151" unicode="&#x3151;" 
d="M967 -150h-99v1819h99v-473h438v-80h-438v-575h438v-80h-438v-611z" />
    <glyph glyph-name="uni3152" unicode="&#x3152;" 
d="M1286 1669v-1816h-96v593h-406v-548h-96v1751h96v-488h406v508h96zM784 1081v-555h406v555h-406z" />
    <glyph glyph-name="uni3153" unicode="&#x3153;" 
d="M1180 -150h-99v957h-438v82h438v780h99v-1819z" />
    <glyph glyph-name="uni3154" unicode="&#x3154;" 
d="M473 807v82h381v760h96v-1751h-96v909h-381zM1229 1669h96v-1816h-96v1816z" />
    <glyph glyph-name="uni3155" unicode="&#x3155;" 
d="M1081 561v533h-438v82h438v493h99v-1819h-99v629h-438v82h438z" />
    <glyph glyph-name="uni3156" unicode="&#x3156;" 
d="M473 1094v82h381v473h96v-1751h-96v581h-381v82h381v533h-381zM1229 1669h96v-1816h-96v1816z" />
    <glyph glyph-name="uni3157" unicode="&#x3157;" 
d="M1864 326h-1794v82h848v798h98v-798h848v-82z" />
    <glyph glyph-name="uni3158" unicode="&#x3158;" 
d="M1624 -150h-98v1819h98v-760h285v-82h-285v-977zM1423 346l-1355 -20v86l606 6v586h98v-584l651 8v-82z" />
    <glyph glyph-name="uni3159" unicode="&#x3159;" 
d="M549 1006h96v-586l481 8v-82l-1034 -20v86l457 8v586zM1755 1669v-1816h-96v974h-336v-905h-96v1727h96v-740h336v760h96z" />
    <glyph glyph-name="uni315A" unicode="&#x315a;" 
d="M1718 -150h-98v1819h98v-1819zM1518 346l-1397 -20v86l637 6v586h98v-584l662 8v-82z" />
    <glyph glyph-name="uni315B" unicode="&#x315b;" 
d="M1864 326h-1794v82h499v800h99v-800h598v800h98v-800h500v-82z" />
    <glyph glyph-name="uni315C" unicode="&#x315c;" 
d="M1016 -150h-98v816h-848v82h1794v-82h-848v-816z" />
    <glyph glyph-name="uni315D" unicode="&#x315d;" 
d="M1112 324v82h508v1263h98v-1819h-98v474h-508zM813 -106h-98v839l-594 -8v86l1376 16v-82l-684 -10v-841z" />
    <glyph glyph-name="uni315E" unicode="&#x315e;" 
d="M915 334v82h371v1233h96v-1727h-96v412h-371zM1755 -150h-96v1819h96v-1819zM670 -66h-97v799l-460 -8v86l1061 16v-82l-504 -10v-801z" />
    <glyph glyph-name="uni315F" unicode="&#x315f;" 
d="M834 -106h-99v839l-614 -8v86l1397 16v-82l-684 -10v-841zM1718 -150h-98v1819h98v-1819z" />
    <glyph glyph-name="uni3160" unicode="&#x3160;" 
d="M670 -150h-97v816h-503v82h1794v-82h-498v-816h-96v816h-600v-816z" />
    <glyph glyph-name="uni3161" unicode="&#x3161;" 
d="M1864 346h-1794v82h1794v-82z" />
    <glyph glyph-name="uni3162" unicode="&#x3162;" 
d="M1518 428l-1397 -20v86l1397 16v-82zM1718 -150h-98v1819h98v-1819z" />
    <glyph glyph-name="uni3163" unicode="&#x3163;" 
d="M1036 -150h-98v1819h98v-1819z" />
    <glyph glyph-name="uniAC00" unicode="&#xac00;" 
d="M180 1505v82h934q-2 -241 -73.5 -466.5t-196.5 -409.5t-290 -331t-361 -249l-66 74q256 124 453.5 329.5t309 456.5t122.5 514h-832zM1583 -150h-98v1819h98v-739h318v-82h-318v-998z" />
    <glyph glyph-name="uniAC01" unicode="&#xac01;" 
d="M188 1524v82h922q0 -153 -54 -294.5t-146.5 -252t-216 -200.5t-263.5 -149t-289 -89l-49 81q246 49 445.5 165t324.5 287t146 370h-820zM1626 -158h-98v543h-1262v82h1360v-625zM1898 1176v-82h-268v-504h-98v1079h98v-493h268z" />
    <glyph glyph-name="uniAC04" unicode="&#xac04;" 
d="M188 1524v82h922q0 -156 -53 -300.5t-144 -259t-214.5 -209t-264 -158.5t-291.5 -99l-51 79q252 54 452.5 179.5t321.5 303t142 382.5h-820zM336 453h98v-500h1256v-82h-1354v582zM1898 1135v-82h-268v-723h-98v1339h98v-534h268z" />
    <glyph glyph-name="uniAC07" unicode="&#xac07;" 
d="M328 508h1298v-80h-1200v-483h1245v-82h-1343v645zM188 1524v82h922q0 -126 -38 -244.5t-105.5 -215.5t-159 -181.5t-200 -148t-226.5 -109t-240 -70.5l-49 82q245 49 443.5 161.5t325 280t147.5 363.5h-820zM1532 631v1038h98v-473h268v-82h-268v-483h-98z" />
    <glyph glyph-name="uniAC08" unicode="&#xac08;" 
d="M1898 1247v-82h-268v-444h-98v948h98v-422h268zM1626 203h-1200v-258h1241v-82h-1339v418h1200v245h-1200v80h1298v-403zM188 1526v80h922q0 -122 -39.5 -234t-109.5 -201t-163 -164.5t-202.5 -130.5t-224.5 -92.5t-234 -56.5l-45 84q175 27 330.5 88t280 150t205.5 212
t100 265h-820z" />
    <glyph glyph-name="uniAC09" unicode="&#xac09;" 
d="M1898 1247v-82h-268v-444h-98v948h98v-422h268zM270 281h555v245h-555v80h652v-403h-555v-264l731 24v-80l-828 -33v431zM1626 -158h-98v684h-492v80h590v-764zM188 1526v80h922q0 -122 -39.5 -234t-109.5 -201t-163 -164.5t-202.5 -130.5t-224.5 -92.5t-234 -56.5
l-45 84q175 27 330.5 88t280 150t205.5 212t100 265h-820z" />
    <glyph glyph-name="uniAC0A" unicode="&#xac0a;" 
d="M1898 1247v-82h-268v-444h-98v948h98v-422h268zM188 1526v80h922q0 -122 -39.5 -234t-109.5 -201t-163 -164.5t-202.5 -130.5t-224.5 -92.5t-234 -56.5l-45 84q175 27 330.5 88t280 150t205.5 212t100 265h-820zM270 281h529v245h-529v80h625v-403h-528v-264l569 24v-80
l-666 -33v431zM1026 606h600v-743h-600v743zM1532 526h-412v-583h412v583z" />
    <glyph glyph-name="uniAC10" unicode="&#xac10;" 
d="M328 528h1298v-665h-1298v665zM1528 449h-1102v-504h1102v504zM188 1524v82h922q0 -126 -38 -244.5t-105.5 -215.5t-159 -181.5t-200 -148t-226.5 -109t-240 -70.5l-49 82q245 49 443.5 161.5t325 280t147.5 363.5h-820zM1532 651v1018h98v-473h268v-82h-268v-463h-98z
" />
    <glyph glyph-name="uniAC11" unicode="&#xac11;" 
d="M1528 596h98v-733h-1298v733h98v-234h1102v234zM426 -55h1102v338h-1102v-338zM188 1526v80h922q0 -122 -39.5 -234t-109.5 -201t-163 -164.5t-202.5 -130.5t-224.5 -92.5t-234 -56.5l-45 84q175 27 330.5 88t280 150t205.5 212t100 265h-820zM1898 1227v-82h-268v-434
h-98v958h98v-442h268z" />
    <glyph glyph-name="uniAC12" unicode="&#xac12;" 
d="M915 596h97v-733h-701v733h97v-256h507v256zM188 1526v80h922q0 -122 -39.5 -234t-109.5 -201t-163 -164.5t-202.5 -130.5t-224.5 -92.5t-234 -56.5l-45 84q175 27 330.5 88t280 150t205.5 212t100 265h-820zM408 -57h507v319h-507v-319zM1874 -70l-66 -77
q-84 41 -172 122t-159 177q-24 34 -47 71q-18 -35 -39 -69q-118 -190 -295 -310l-64 68q169 102 277.5 285t120.5 399h98q-3 -118 -41 -234l-19 -49q22 -46 64 -100q64 -87 155 -162.5t187 -120.5zM1898 1227v-82h-268v-434h-98v958h98v-442h268z" />
    <glyph glyph-name="uniAC13" unicode="&#xac13;" 
d="M188 1524v82h922q0 -156 -53 -300.5t-144 -259t-214.5 -209t-264 -158.5t-291.5 -99l-51 79q252 54 452.5 179.5t321.5 303t142 382.5h-820zM297 -160l-55 80q196 44 365.5 143.5t282 240.5t136.5 296h107q-15 -119 -80 -231q48 -64 123 -133q114 -101 263 -179.5
t308 -117.5l-49 -86q-144 37 -297.5 119.5t-272.5 189.5q-64 58 -118 139q-69 -97 -162 -178q-234 -204 -551 -283zM1898 1155v-82h-268v-620h-98v1216h98v-514h268z" />
    <glyph glyph-name="uniAC14" unicode="&#xac14;" 
d="M1843 -57l-57 -80q-209 87 -385 282q-36 41 -58 72q-46 -78 -75 -113q-142 -175 -361 -284l-55 61q98 51 178 111q-32 14 -78 45q-110 72 -200 168q-12 12 -52 57q-48 -74 -100 -129q-155 -165 -385 -256l-53 68q224 83 370 239.5t170 347.5h99q-12 -111 -64 -204
q21 -29 62 -70q95 -92 202 -154q69 -39 101 -53q44 39 92 101q136 174 162 380h98q-15 -120 -65 -229l-7 -14q69 -101 177 -185q118 -96 284 -161zM188 1524v82h922q0 -126 -38 -244.5t-105.5 -215.5t-159 -181.5t-200 -148t-226.5 -109t-240 -70.5l-49 82
q245 49 443.5 161.5t325 280t147.5 363.5h-820zM1532 651v1018h98v-473h268v-82h-268v-463h-98z" />
    <glyph glyph-name="uniAC15" unicode="&#xac15;" 
d="M1090 -186q-256 0 -411 124t-155 308t155 308t411 124t410.5 -124t154.5 -308t-154.5 -308t-410.5 -124zM1090 -106q217 0 341.5 102t124.5 250t-124.5 250t-341.5 102t-342 -102t-125 -250t125 -250t342 -102zM188 1524v82h922q0 -151 -54.5 -287t-147 -240t-217 -188.5
t-263 -139.5t-287.5 -85l-49 82q247 50 444 155t324 266t148 355h-820zM1898 1227v-82h-268v-467h-98v991h98v-442h268z" />
    <glyph glyph-name="uniAC16" unicode="&#xac16;" 
d="M1751 -66l-53 -81q-153 28 -306 92.5t-278 156.5q-89 68 -137 121q-76 -92 -178 -160q-225 -159 -537 -223l-57 76q218 36 403 133.5t291 226.5q66 81 88 173h-680v79h1340v-79h-551q-22 -89 -72 -162q68 -68 131 -113q124 -87 278.5 -150t317.5 -90zM188 1524v82h922
q0 -147 -55.5 -280.5t-149.5 -235.5t-219 -184.5t-262.5 -135.5t-282.5 -80l-49 82q238 41 437 145.5t328.5 263t150.5 343.5h-820zM1898 1227v-82h-268v-494h-98v1018h98v-442h268z" />
    <glyph glyph-name="uniAC17" unicode="&#xac17;" 
d="M1792 -72l-49 -80q-150 12 -313 63.5t-297 131.5q-85 53 -152 119q-79 -82 -178 -139q-229 -141 -531 -183l-47 76q221 32 403 112.5t290 200.5q52 55 79 123h-671v80h1360v-80h-582q-28 -72 -72 -131q56 -55 135 -102q131 -75 296 -125.5t329 -65.5zM188 1526v80h922
q0 -122 -39.5 -234t-109.5 -201t-163 -164.5t-202.5 -130.5t-224.5 -92.5t-234 -56.5l-45 84q175 27 330.5 88t280 150t205.5 212t100 265h-820zM1898 1247v-82h-268v-465h-98v969h98v-422h268zM1374 690v-80h-737v80h737z" />
    <glyph glyph-name="uniAC19" unicode="&#xac19;" 
d="M1898 1247v-82h-268v-444h-98v948h98v-422h268zM188 1526v80h922q0 -122 -39.5 -234t-109.5 -201t-163 -164.5t-202.5 -130.5t-224.5 -92.5t-234 -56.5l-45 84q175 27 330.5 88t280 150t205.5 212t100 265h-820zM1606 281v-78h-1180v-258h1241v-82h-1339v743h1298v-80
h-1200v-245h1180z" />
    <glyph glyph-name="uniAC1A" unicode="&#xac1a;" 
d="M1667 455h-262l-14 -510h317v-82h-1421v82h331l-12 510h-278v82h1339v-82zM705 455l12 -510h575l15 510h-602zM188 1524v82h922q0 -151 -54.5 -287t-147 -240t-217 -188.5t-263 -139.5t-287.5 -85l-49 82q247 50 444 155t324 266t148 355h-820zM1898 1206v-82h-268v-469
h-98v1014h98v-463h268z" />
    <glyph glyph-name="uniAC1B" unicode="&#xac1b;" 
d="M979 -207q-254 0 -400.5 95.5t-146.5 246.5q0 96 68.5 166.5t163.5 97.5h-392v78h1414v-78h-392q95 -27 163.5 -97.5t68.5 -166.5q0 -151 -146.5 -246.5t-400.5 -95.5zM979 -129q205 0 326.5 75t121.5 189q0 115 -121 189.5t-327 74.5t-327.5 -74.5t-121.5 -189.5
q0 -114 122 -189t327 -75zM188 1526v80h922q-2 -146 -60 -275t-152.5 -224t-220.5 -169.5t-261.5 -120.5t-278.5 -69l-45 83q176 27 330.5 86t279 145t205.5 205.5t101 258.5h-820zM1898 1247v-82h-268v-469h-98v973h98v-422h268zM1343 707v-78h-737v78h737z" />
    <glyph glyph-name="uniAC1C" unicode="&#xac1c;" 
d="M172 1495v82h731q0 -231 -55.5 -449t-155.5 -399.5t-232 -330.5t-290 -259l-74 68q311 204 499 549t208 739h-631zM1735 1669v-1816h-97v1005h-360v-960h-96v1751h96v-709h360v729h97z" />
    <glyph glyph-name="uniAC1D" unicode="&#xac1d;" 
d="M188 1522v80h750q-4 -181 -67 -342t-172 -283.5t-252 -213.5t-312 -145l-55 78q222 67 387 192.5t257 286.5t114 347h-650zM1733 1669v-1079h-97v518h-356v-518h-96v1063h96v-465h356v481h97zM1729 -158h-99v543h-1302v82h1401v-625z" />
    <glyph glyph-name="uniAC20" unicode="&#xac20;" 
d="M188 1522v80h750q0 -186 -62.5 -355.5t-171.5 -301t-253 -231t-312 -157.5l-59 78q333 108 530.5 345.5t227.5 541.5h-650zM1733 1669v-1358h-97v766h-356v-717h-96v1293h96v-496h356v512h97zM397 453h99v-500h1284v-82h-1383v582z" />
    <glyph glyph-name="uniAC24" unicode="&#xac24;" 
d="M1733 1669v-948h-97v448h-356v-448h-96v932h96v-404h356v420h97zM1729 203h-1242v-258h1282v-82h-1380v418h1241v245h-1241v80h1340v-403zM188 1524v78h750q0 -137 -44.5 -260t-119.5 -218.5t-179.5 -175t-219.5 -135t-244 -92.5l-51 82q318 79 522 270t236 451h-650z
" />
    <glyph glyph-name="uniAC2C" unicode="&#xac2c;" 
d="M188 1522v80h750q-4 -177 -67.5 -335t-173 -278t-252 -209t-310.5 -141l-55 78q334 101 529.5 312.5t228.5 492.5h-650zM1733 1669v-1018h-97v477h-356v-477h-96v1002h96v-445h356v461h97zM389 528h1340v-665h-1340v665zM1630 449h-1143v-504h1143v504z" />
    <glyph glyph-name="uniAC2D" unicode="&#xac2d;" 
d="M1733 1669v-967h-97v457h-356v-457h-96v951h96v-414h356v430h97zM1630 588h99v-725h-1340v725h98v-230h1143v230zM487 -55h1143v334h-1143v-334zM188 1524v78h750q-2 -138 -46 -263.5t-119 -224t-177.5 -180.5t-219 -139.5t-245.5 -94.5l-51 82q318 83 522 280t236 462
h-650z" />
    <glyph glyph-name="uniAC2F" unicode="&#xac2f;" 
d="M1733 1669v-1223h-97v652h-356v-467h-96v1022h96v-475h356v491h97zM188 1522v80h750q0 -183 -62.5 -349t-172 -294.5t-253 -225t-311.5 -155.5l-59 77q334 108 531 338.5t227 528.5h-650zM317 -160l-55 80q189 39 355.5 125.5t284.5 217t145 276.5h106q-17 -110 -80 -211
q121 -133 295 -234q183 -103 399 -155l-49 -86q-146 38 -295 112t-268 172q-74 61 -125 127q-71 -89 -166 -166q-234 -184 -547 -258z" />
    <glyph glyph-name="uniAC30" unicode="&#xac30;" 
d="M1876 -57l-57 -80q-209 87 -385 282q-36 41 -58 72q-44 -74 -76 -113q-143 -176 -360 -284l-55 61q98 51 178 111q-31 14 -78 45q-112 73 -201 168q-3 3 -51 57q-48 -74 -100 -129q-155 -165 -385 -256l-53 68q224 83 370 239.5t170 347.5h99q-12 -111 -64 -204
q23 -32 61 -70q94 -90 203 -154q69 -39 101 -53q44 39 92 101q136 174 162 380h98q-15 -117 -66 -229l-6 -14q71 -102 176 -185q117 -95 285 -161zM1733 1669v-1018h-97v477h-356v-477h-96v1002h96v-445h356v461h97zM188 1522v80h750q-4 -177 -67.5 -335t-173 -278
t-252 -209t-310.5 -141l-55 78q334 101 529.5 312.5t228.5 492.5h-650z" />
    <glyph glyph-name="uniAC31" unicode="&#xac31;" 
d="M188 1522v80h750q-4 -177 -67.5 -335t-173 -278t-252 -209t-310.5 -141l-55 78q334 101 529.5 312.5t228.5 492.5h-650zM1733 1669v-1012h-97v502h-356v-420h-96v914h96v-414h356v430h97zM1147 -186q-256 0 -410.5 119.5t-154.5 297.5t154.5 298t410.5 120t410.5 -120
t154.5 -298t-154.5 -297.5t-410.5 -119.5zM1147 -106q218 0 342.5 96t124.5 241t-124.5 241.5t-342.5 96.5t-342.5 -96.5t-124.5 -241.5t124.5 -241t342.5 -96z" />
    <glyph glyph-name="uniAC38" unicode="&#xac38;" 
d="M180 1505v82h934q-2 -241 -73.5 -466.5t-196.5 -409.5t-290 -331t-361 -249l-66 74q256 124 453.5 329.5t309 456.5t122.5 514h-832zM1583 1669v-412h318v-81h-318v-553h318v-82h-318v-691h-98v1819h98z" />
    <glyph glyph-name="uniAC39" unicode="&#xac39;" 
d="M188 1524v82h922q0 -153 -54 -294.5t-146.5 -252t-216 -200.5t-263.5 -149t-289 -89l-49 81q246 49 445.5 165t324.5 287t146 370h-820zM1626 -158h-98v543h-1262v82h1360v-625zM1898 973v-82h-268v-301h-98v1079h98v-268h268v-82h-268v-346h268z" />
    <glyph glyph-name="uniAC3C" unicode="&#xac3c;" 
d="M188 1524v82h922q0 -156 -53 -300.5t-144 -259t-214.5 -209t-264 -158.5t-291.5 -99l-51 79q252 54 452.5 179.5t321.5 303t142 382.5h-820zM1898 911v-82h-268v-499h-98v1339h98v-289h268v-82h-268v-387h268zM336 453h98v-500h1256v-82h-1354v582z" />
    <glyph glyph-name="uniAC40" unicode="&#xac40;" 
d="M1626 203h-1200v-258h1241v-82h-1339v418h1200v245h-1200v80h1298v-403zM188 1526v80h922q0 -122 -39.5 -234t-109.5 -201t-163 -164.5t-202.5 -130.5t-224.5 -92.5t-234 -56.5l-45 84q175 27 330.5 88t280 150t205.5 212t100 265h-820zM1898 1055v-82h-268v-252h-98v948
h98v-248h268v-82h-268v-284h268z" />
    <glyph glyph-name="uniAC4B" unicode="&#xac4b;" 
d="M188 1524v82h922q0 -156 -53 -300.5t-144 -259t-214.5 -209t-264 -158.5t-291.5 -99l-51 79q252 54 452.5 179.5t321.5 303t142 382.5h-820zM297 -160l-55 80q196 44 365.5 143.5t282 240.5t136.5 296h107q-15 -119 -80 -231q48 -64 123 -133q114 -101 263 -179.5
t308 -117.5l-49 -86q-144 37 -297.5 119.5t-272.5 189.5q-64 58 -118 139q-69 -97 -162 -178q-234 -204 -551 -283zM1898 952v-82h-268v-417h-98v1216h98v-289h268v-82h-268v-346h268z" />
    <glyph glyph-name="uniAC4D" unicode="&#xac4d;" 
d="M1090 -186q-256 0 -411 124t-155 308t155 308t411 124t410.5 -124t154.5 -308t-154.5 -308t-410.5 -124zM1090 -106q217 0 341.5 102t124.5 250t-124.5 250t-341.5 102t-342 -102t-125 -250t125 -250t342 -102zM188 1524v82h922q0 -151 -54.5 -287t-147 -240t-217 -188.5
t-263 -139.5t-287.5 -85l-49 82q247 50 444 155t324 266t148 355h-820zM1898 1034v-82h-268v-274h-98v991h98v-248h268v-82h-268v-305h268z" />
    <glyph glyph-name="uniAC54" unicode="&#xac54;" 
d="M1638 -147v708h-360v-663h-96v1751h96v-412h360v432h97v-1816h-97zM172 1495v82h731q0 -231 -55.5 -449t-155.5 -399.5t-232 -330.5t-290 -259l-74 68q311 204 499 549t208 739h-631zM1278 1155v-512h360v512h-360z" />
    <glyph glyph-name="uniAC58" unicode="&#xac58;" 
d="M1636 311v520h-356v-471h-96v1293h96v-293h356v309h97v-1358h-97zM188 1522v80h750q0 -186 -62.5 -355.5t-171.5 -301t-253 -231t-312 -157.5l-59 78q333 108 530.5 345.5t227.5 541.5h-650zM397 453h99v-500h1284v-82h-1383v582zM1280 1280v-369h356v369h-356z" />
    <glyph glyph-name="uniAC5C" unicode="&#xac5c;" 
d="M1729 211h-1242v-266h1282v-82h-1380v426h1241v254h-1241v80h1340v-412zM1636 737v248h-356v-248h-96v916h96v-221h356v237h97v-932h-97zM188 1524v78h750q0 -137 -44.5 -260t-119.5 -218.5t-179.5 -175t-219.5 -135t-244 -92.5l-51 82q318 79 522 270t236 451h-650z
M1280 1352v-287h356v287h-356z" />
    <glyph glyph-name="uniAC70" unicode="&#xac70;" 
d="M221 1505v82h934q-2 -241 -73.5 -466.5t-196.5 -409.5t-290.5 -331t-361.5 -249l-65 74q256 124 453.5 329.5t309 456.5t122.5 514h-832zM1163 844v82h424v743h99v-1819h-99v994h-424z" />
    <glyph glyph-name="uniAC71" unicode="&#xac71;" 
d="M221 1524v82h922q0 -153 -54 -294.5t-146.5 -252t-216 -200.5t-263.5 -149t-289 -89l-49 81q246 49 445 165t324 287t146 370h-819zM1692 -158h-99v543h-1282v82h1381v-625zM1597 590v461h-454v82h454v536h99v-1079h-99z" />
    <glyph glyph-name="uniAC74" unicode="&#xac74;" 
d="M221 1524v82h922q0 -156 -53 -300.5t-144 -259t-214.5 -209t-264 -158.5t-291.5 -99l-51 79q252 54 452 179.5t321 303t142 382.5h-819zM1597 334v676h-454v82h454v577h99v-1335h-99zM381 453h98v-500h1268v-82h-1366v582z" />
    <glyph glyph-name="uniAC77" unicode="&#xac77;" 
d="M373 508h1319v-80h-1221v-483h1266v-82h-1364v645zM221 1524v82h922q0 -126 -38 -244.5t-105.5 -215.5t-159 -181.5t-200 -148t-226.5 -109t-240 -70.5l-49 82q245 49 443.5 161.5t324.5 280t147 363.5h-819zM1597 631v430h-454v82h454v526h99v-1038h-99z" />
    <glyph glyph-name="uniAC78" unicode="&#xac78;" 
d="M1692 203h-1221v-258h1262v-82h-1360v418h1220v245h-1220v80h1319v-403zM221 1526v80h922q0 -122 -39.5 -234t-109.5 -201t-163 -164.5t-202.5 -130.5t-224.5 -92.5t-234 -56.5l-45 84q175 27 330.5 88t279.5 150t205 212t100 265h-819zM1597 721v405h-454v82h454v461h99
v-948h-99z" />
    <glyph glyph-name="uniAC7A" unicode="&#xac7a;" 
d="M1081 606h611v-743h-611v743zM1597 526h-421v-583h421v583zM315 281h539v245h-539v80h635v-403h-538v-264l579 24v-80l-676 -33v431zM221 1526v80h922q0 -122 -39.5 -234t-109.5 -201t-163 -164.5t-202.5 -130.5t-224.5 -92.5t-234 -56.5l-45 84q175 27 330.5 88
t279.5 150t205 212t100 265h-819zM1597 721v405h-454v82h454v461h99v-948h-99z" />
    <glyph glyph-name="uniAC80" unicode="&#xac80;" 
d="M373 528h1319v-665h-1319v665zM1593 449h-1122v-504h1122v504zM221 1524v82h922q0 -126 -38 -244.5t-105.5 -215.5t-159 -181.5t-200 -148t-226.5 -109t-240 -70.5l-49 82q245 49 443.5 161.5t324.5 280t147 363.5h-819zM1597 651v410h-454v82h454v526h99v-1018h-99z" />
    <glyph glyph-name="uniAC81" unicode="&#xac81;" 
d="M1593 596h99v-733h-1319v733h98v-234h1122v234zM471 -55h1122v338h-1122v-338zM221 1526v80h922q0 -122 -39.5 -234t-109.5 -201t-163 -164.5t-202.5 -130.5t-224.5 -92.5t-234 -56.5l-45 84q175 27 330.5 88t279.5 150t205 212t100 265h-819zM1597 711v415h-454v82h454
v461h99v-958h-99z" />
    <glyph glyph-name="uniAC83" unicode="&#xac83;" 
d="M221 1524v82h922q0 -156 -53 -300.5t-144 -259t-214.5 -209t-264 -158.5t-291.5 -99l-51 79q252 54 452 179.5t321 303t142 382.5h-819zM328 -160l-56 80q196 44 366 143.5t282.5 240.5t136.5 296h106q-15 -119 -80 -231q48 -64 123 -133q114 -101 263.5 -179.5
t308.5 -117.5l-49 -86q-144 37 -297.5 119.5t-272.5 189.5q-66 61 -119 139q-71 -99 -161 -178q-234 -204 -551 -283zM1597 455v575h-454v82h454v557h99v-1214h-99z" />
    <glyph glyph-name="uniAC84" unicode="&#xac84;" 
d="M1884 -57l-57 -80q-209 87 -385 282q-36 41 -58 72q-42 -71 -75 -111q-145 -179 -361 -286l-55 61q99 48 182 113q-35 15 -82 47q-119 78 -200 164q-45 50 -52 59q-54 -79 -102 -129q-159 -169 -383 -258l-53 68q220 83 368 241t172 346h99q-12 -105 -64 -204
q21 -29 62 -70q95 -92 202 -154q69 -39 101 -53q44 39 92 101q136 174 162 380h98q-15 -120 -65 -229l-7 -14q71 -102 176 -185q117 -95 285 -161zM221 1524v82h922q0 -153 -54 -294.5t-146.5 -252t-216 -200.5t-263.5 -149t-289 -89l-49 81q246 49 445 165t324 287t146 370
h-819zM1597 651v400h-454v82h454v536h99v-1018h-99z" />
    <glyph glyph-name="uniAC85" unicode="&#xac85;" 
d="M1126 -186q-256 0 -410.5 124t-154.5 308t154.5 308t410.5 124t411 -124t155 -308t-155 -308t-411 -124zM1126 -106q217 0 342 102t125 250t-125 250t-342 102t-342 -102t-125 -250t125 -250t342 -102zM221 1524v82h922q0 -151 -54.5 -287t-147 -240t-217 -188.5
t-263 -139.5t-287.5 -85l-49 82q184 37 342.5 107t281 167.5t199 226.5t92.5 275h-819zM1597 678v403h-454v82h454v506h99v-991h-99z" />
    <glyph glyph-name="uniAC86" unicode="&#xac86;" 
d="M1817 -66l-54 -81q-153 29 -310 93.5t-284 155.5q-83 63 -137 123q-86 -99 -182 -162q-235 -160 -543 -223l-57 76q218 36 407 133.5t297 226.5q67 86 88 173h-690v79h1360v-79h-561q-22 -88 -72 -160q59 -66 131 -115q267 -182 607 -240zM221 1524v82h922
q0 -151 -54.5 -287t-147 -240t-217 -188.5t-263 -139.5t-287.5 -85l-49 82q184 37 342.5 107t281 167.5t199 226.5t92.5 275h-819zM1597 651v430h-454v82h454v506h99v-1018h-99z" />
    <glyph glyph-name="uniAC89" unicode="&#xac89;" 
d="M471 -55h1262v-82h-1360v743h1319v-80h-1221v-245h1200v-78h-1200v-258zM221 1526v80h922q0 -122 -39.5 -234t-109.5 -201t-163 -164.5t-202.5 -130.5t-224.5 -92.5t-234 -56.5l-45 84q175 27 330.5 88t279.5 150t205 212t100 265h-819zM1597 721v405h-454v82h454v461h99
v-948h-99z" />
    <glyph glyph-name="uniAC8A" unicode="&#xac8a;" 
d="M1733 451h-273l-14 -506h328v-82h-1442v82h342l-12 506h-289v81h1360v-81zM760 451l12 -506h576l14 506h-602zM221 1524v82h922q0 -151 -54.5 -287t-147 -240t-217 -188.5t-263 -139.5t-287.5 -85l-49 82q184 37 342.5 107t281 167.5t199 226.5t92.5 275h-819zM1597 651
v430h-454v82h454v506h99v-1018h-99z" />
    <glyph glyph-name="uniAC8B" unicode="&#xac8b;" 
d="M1044 -207q-254 0 -400 95.5t-146 246.5q0 96 68 166.5t163 97.5h-391v78h1413v-78h-391q95 -27 163 -97.5t68 -166.5q0 -151 -146.5 -246.5t-400.5 -95.5zM1044 -129q205 0 327 75t122 189q0 115 -121.5 189.5t-327.5 74.5t-327 -74.5t-121 -189.5q0 -114 121.5 -189
t326.5 -75zM221 1526v80h922q-2 -146 -60 -275t-152.5 -224t-220.5 -169.5t-261.5 -120.5t-278.5 -69l-45 83q176 27 330.5 86t278.5 145t205 205.5t101 258.5h-819zM1597 696v430h-454v82h454v461h99v-973h-99zM1409 707v-78h-737v78h737z" />
    <glyph glyph-name="uniAC8C" unicode="&#xac8c;" 
d="M172 1495v82h731q0 -231 -55.5 -449t-155.5 -399.5t-232 -330.5t-290 -259l-74 68q311 204 499 549t208 739h-631zM885 860v82h338v707h96v-1751h-96v962h-338zM1638 -147v1816h97v-1816h-97z" />
    <glyph glyph-name="uniAC90" unicode="&#xac90;" 
d="M188 1522v80h750q0 -186 -62.5 -355.5t-171.5 -301t-253 -231t-312 -157.5l-59 78q333 108 530.5 345.5t227.5 541.5h-650zM397 453h99v-500h1284v-82h-1383v582zM905 1024v82h320v547h96v-1293h-96v664h-320zM1636 311v1358h97v-1358h-97z" />
    <glyph glyph-name="uniAC94" unicode="&#xac94;" 
d="M1729 203h-1242v-258h1282v-82h-1380v418h1241v245h-1241v80h1340v-403zM188 1524v78h750q0 -137 -44.5 -260t-119.5 -218.5t-179.5 -175t-219.5 -135t-244 -92.5l-51 82q318 79 522 270t236 451h-650zM922 1106v82h303v465h96v-932h-96v385h-303zM1636 721v948h97v-948
h-97z" />
    <glyph glyph-name="uniAC9C" unicode="&#xac9c;" 
d="M389 528h1340v-665h-1340v665zM1630 449h-1143v-504h1143v504zM188 1522v80h750q-4 -177 -67.5 -335t-173 -278t-252 -209t-310.5 -141l-55 78q334 101 529.5 312.5t228.5 492.5h-650zM922 1075v82h303v496h96v-1002h-96v424h-303zM1636 651v1018h97v-1018h-97z" />
    <glyph glyph-name="uniAC9D" unicode="&#xac9d;" 
d="M1630 588h99v-725h-1340v725h98v-230h1143v230zM487 -55h1143v334h-1143v-334zM188 1524v78h750q-2 -138 -46 -263.5t-119 -224t-177.5 -180.5t-219 -139.5t-245.5 -94.5l-51 82q318 83 522 280t236 462h-650zM922 1106v82h303v465h96v-951h-96v404h-303zM1636 702v967
h97v-967h-97z" />
    <glyph glyph-name="uniAC9F" unicode="&#xac9f;" 
d="M188 1522v80h750q0 -183 -62.5 -349t-172 -294.5t-253 -225t-311.5 -155.5l-59 77q334 108 531 338.5t227 528.5h-650zM317 -160l-55 80q189 39 355.5 125.5t284.5 217t145 276.5h106q-17 -110 -80 -211q121 -133 295 -234q183 -103 399 -155l-49 -86q-146 38 -295 112
t-268 172q-74 61 -125 127q-71 -89 -166 -166q-234 -184 -547 -258zM922 1044v82h303v527h96v-1022h-96v413h-303zM1636 446v1223h97v-1223h-97z" />
    <glyph glyph-name="uniACA0" unicode="&#xaca0;" 
d="M1876 -57l-57 -80q-209 87 -385 282q-36 41 -58 72q-44 -74 -76 -113q-143 -176 -360 -284l-55 61q98 51 178 111q-31 14 -78 45q-112 73 -201 168q-3 3 -51 57q-48 -74 -100 -129q-155 -165 -385 -256l-53 68q224 83 370 239.5t170 347.5h99q-12 -111 -64 -204
q23 -32 61 -70q94 -90 203 -154q69 -39 101 -53q44 39 92 101q136 174 162 380h98q-15 -117 -66 -229l-6 -14q71 -102 176 -185q117 -95 285 -161zM188 1522v80h750q-4 -177 -67.5 -335t-173 -278t-252 -209t-310.5 -141l-55 78q334 101 529.5 312.5t228.5 492.5h-650z
M922 1075v82h303v496h96v-1002h-96v424h-303zM1636 651v1018h97v-1018h-97z" />
    <glyph glyph-name="uniACA1" unicode="&#xaca1;" 
d="M1147 -186q-256 0 -410.5 119.5t-154.5 297.5t154.5 298t410.5 120t410.5 -120t154.5 -298t-154.5 -297.5t-410.5 -119.5zM1147 -106q218 0 342.5 96t124.5 241t-124.5 241.5t-342.5 96.5t-342.5 -96.5t-124.5 -241.5t124.5 -241t342.5 -96zM188 1522v80h750
q-4 -177 -67.5 -335t-173 -278t-252 -209t-310.5 -141l-55 78q334 101 529.5 312.5t228.5 492.5h-650zM922 1075v82h303v496h96v-914h-96v336h-303zM1636 657v1012h97v-1012h-97z" />
    <glyph glyph-name="uniACA8" unicode="&#xaca8;" 
d="M1208 1151v82h379v436h99v-1819h-99v748h-448v82h448v471h-379zM221 1505v82h934q-2 -241 -73.5 -466.5t-196.5 -409.5t-290.5 -331t-361.5 -249l-65 74q256 124 453.5 329.5t309 456.5t122.5 514h-832z" />
    <glyph glyph-name="uniACA9" unicode="&#xaca9;" 
d="M221 1524v82h922q0 -153 -54 -294.5t-146.5 -252t-216 -200.5t-263.5 -149t-289 -89l-49 81q246 49 445 165t324 287t146 370h-819zM1597 590v297h-442v82h442v311h-389v82h389v307h99v-1079h-99zM1692 -158h-99v543h-1282v82h1381v-625z" />
    <glyph glyph-name="uniACAA" unicode="&#xacaa;" 
d="M221 1524v82h922q0 -153 -54 -294.5t-146.5 -252t-216 -200.5t-263.5 -149t-289 -89l-49 81q246 49 445 165t324 287t146 370h-819zM1597 590v297h-442v82h442v311h-389v82h389v307h99v-1079h-99zM958 -158h-96v543h-571v82h667v-625zM1692 -158h-97v543h-538v82h635
v-625z" />
    <glyph glyph-name="uniACAC" unicode="&#xacac;" 
d="M221 1524v82h922q0 -156 -53 -300.5t-144 -259t-214.5 -209t-264 -158.5t-291.5 -99l-51 79q252 54 452 179.5t321 303t142 382.5h-819zM1597 334v502h-442v82h442v342h-389v81h389v328h99v-1335h-99zM381 453h98v-500h1268v-82h-1366v582z" />
    <glyph glyph-name="uniACAF" unicode="&#xacaf;" 
d="M373 508h1319v-80h-1221v-483h1266v-82h-1364v645zM221 1524v82h922q0 -126 -38 -244.5t-105.5 -215.5t-159 -181.5t-200 -148t-226.5 -109t-240 -70.5l-49 82q245 49 443.5 161.5t324.5 280t147 363.5h-819zM1597 631v266h-442v82h442v301h-389v82h389v307h99v-1038h-99
z" />
    <glyph glyph-name="uniACB0" unicode="&#xacb0;" 
d="M1692 203h-1221v-258h1262v-82h-1360v418h1220v245h-1220v80h1319v-403zM221 1526v80h922q0 -122 -39.5 -234t-109.5 -201t-163 -164.5t-202.5 -130.5t-224.5 -92.5t-234 -56.5l-45 84q175 27 330.5 88t279.5 150t205 212t100 265h-819zM1597 721v240h-442v79h442v273
h-385v80h385v276h99v-948h-99z" />
    <glyph glyph-name="uniACB8" unicode="&#xacb8;" 
d="M373 528h1319v-665h-1319v665zM1593 449h-1122v-504h1122v504zM221 1524v82h922q0 -126 -38 -244.5t-105.5 -215.5t-159 -181.5t-200 -148t-226.5 -109t-240 -70.5l-49 82q245 49 443.5 161.5t324.5 280t147 363.5h-819zM1597 651v246h-442v82h442v301h-389v82h389v307
h99v-1018h-99z" />
    <glyph glyph-name="uniACB9" unicode="&#xacb9;" 
d="M1593 596h99v-733h-1319v733h98v-234h1122v234zM471 -55h1122v338h-1122v-338zM221 1526v80h922q0 -122 -39.5 -234t-109.5 -201t-163 -164.5t-202.5 -130.5t-224.5 -92.5t-234 -56.5l-45 84q175 27 330.5 88t279.5 150t205 212t100 265h-819zM1597 711v250h-442v79h442
v273h-385v80h385v276h99v-958h-99z" />
    <glyph glyph-name="uniACBB" unicode="&#xacbb;" 
d="M221 1524v82h922q0 -156 -53 -300.5t-144 -259t-214.5 -209t-264 -158.5t-291.5 -99l-51 79q252 54 452 179.5t321 303t142 382.5h-819zM1597 455v432h-442v82h442v311h-389v82h389v307h99v-1214h-99zM328 -160l-56 80q196 44 366 143.5t282.5 240.5t136.5 296h106
q-15 -119 -80 -231q48 -64 123 -133q114 -101 263.5 -179.5t308.5 -117.5l-49 -86q-144 37 -297.5 119.5t-272.5 189.5q-66 61 -119 139q-71 -99 -161 -178q-234 -204 -551 -283z" />
    <glyph glyph-name="uniACBC" unicode="&#xacbc;" 
d="M1884 -57l-57 -80q-209 87 -385 282q-36 41 -58 72q-42 -71 -75 -111q-145 -179 -361 -286l-55 61q99 48 182 113q-35 15 -82 47q-119 78 -200 164q-45 50 -52 59q-54 -79 -102 -129q-159 -169 -383 -258l-53 68q220 83 368 241t172 346h99q-12 -105 -64 -204
q21 -29 62 -70q95 -92 202 -154q69 -39 101 -53q44 39 92 101q136 174 162 380h98q-15 -120 -65 -229l-7 -14q71 -102 176 -185q117 -95 285 -161zM221 1524v82h922q0 -153 -54 -294.5t-146.5 -252t-216 -200.5t-263.5 -149t-289 -89l-49 81q246 49 445 165t324 287t146 370
h-819zM1597 651v246h-442v82h442v311h-389v82h389v297h99v-1018h-99z" />
    <glyph glyph-name="uniACBD" unicode="&#xacbd;" 
d="M1126 -186q-256 0 -410.5 124t-154.5 308t154.5 308t410.5 124t411 -124t155 -308t-155 -308t-411 -124zM1126 -106q217 0 342 102t125 250t-125 250t-342 102t-342 -102t-125 -250t125 -250t342 -102zM221 1524v82h922q0 -151 -54.5 -287t-147 -240t-217 -188.5
t-263 -139.5t-287.5 -85l-49 82q184 37 342.5 107t281 167.5t199 226.5t92.5 275h-819zM1597 678v252h-442v80h442v293h-385v79h385v287h99v-991h-99z" />
    <glyph glyph-name="uniACC1" unicode="&#xacc1;" 
d="M471 -55h1262v-82h-1360v743h1319v-80h-1221v-245h1200v-78h-1200v-258zM221 1526v80h922q0 -122 -39.5 -234t-109.5 -201t-163 -164.5t-202.5 -130.5t-224.5 -92.5t-234 -56.5l-45 84q175 27 330.5 88t279.5 150t205 212t100 265h-819zM1597 721v240h-442v79h442v273
h-385v80h385v276h99v-948h-99z" />
    <glyph glyph-name="uniACC4" unicode="&#xacc4;" 
d="M946 1167v82h285v400h96v-1751h-96v677h-346v82h346v510h-285zM172 1495v82h731q0 -231 -55.5 -449t-155.5 -399.5t-232 -330.5t-290 -259l-74 68q311 204 499 549t208 739h-631zM1638 -147v1816h97v-1816h-97z" />
    <glyph glyph-name="uniACC8" unicode="&#xacc8;" 
d="M188 1522v80h750q0 -186 -62.5 -355.5t-171.5 -301t-253 -231t-312 -157.5l-59 78q333 108 530.5 345.5t227.5 541.5h-650zM967 1247v82h266v324h96v-1293h-96v474h-338v81h338v332h-266zM397 453h99v-500h1284v-82h-1383v582zM1636 311v1358h97v-1358h-97z" />
    <glyph glyph-name="uniACCC" unicode="&#xaccc;" 
d="M1729 203h-1242v-258h1282v-82h-1380v418h1241v245h-1241v80h1340v-403zM188 1524v78h750q0 -137 -44.5 -260t-119.5 -218.5t-179.5 -175t-219.5 -135t-244 -92.5l-51 82q318 79 522 270t236 451h-650zM975 1321v80h258v252h96v-932h-96v242h-330v79h330v279h-258z
M1636 721v948h97v-948h-97z" />
    <glyph glyph-name="uniACD5" unicode="&#xacd5;" 
d="M1630 588h99v-725h-1340v725h98v-230h1143v230zM487 -55h1143v334h-1143v-334zM188 1524v78h750q-2 -138 -46 -263.5t-119 -224t-177.5 -180.5t-219 -139.5t-245.5 -94.5l-51 82q318 83 522 280t236 462h-650zM975 1311v80h258v262h96v-951h-96v250h-330v80h330v279h-258
zM1636 702v967h97v-967h-97z" />
    <glyph glyph-name="uniACD7" unicode="&#xacd7;" 
d="M188 1522v80h750q0 -183 -62.5 -349t-172 -294.5t-253 -225t-311.5 -155.5l-59 77q334 108 531 338.5t227 528.5h-650zM317 -160l-55 80q189 39 355.5 125.5t284.5 217t145 276.5h106q-17 -110 -80 -211q121 -133 295 -234q183 -103 399 -155l-49 -86q-146 38 -295 112
t-268 172q-74 61 -125 127q-71 -89 -166 -166q-234 -184 -547 -258zM971 1284v82h262v287h96v-1022h-96v266h-330v82h330v305h-262zM1636 446v1223h97v-1223h-97z" />
    <glyph glyph-name="uniACE0" unicode="&#xace0;" 
d="M1864 39h-1794v82h759v780h99v-780h936v-82zM1563 440h-99q57 226 85 515t28 542h-1321v82h1419q0 -669 -112 -1139z" />
    <glyph glyph-name="uniACE1" unicode="&#xace1;" 
d="M1864 700h-1794v82h802v455h99v-455h893v-82zM1604 952h-93q66 256 66 602h-1321v82h1419q0 -412 -71 -684zM1655 -158h-99v512h-1323v82h1422v-594z" />
    <glyph glyph-name="uniACE4" unicode="&#xace4;" 
d="M1864 631h-1794v82h802v495h99v-495h893v-82zM1599 891h-96q74 256 74 663h-1321v82h1419q0 -482 -76 -745zM283 424h98v-471h1337v-82h-1435v553z" />
    <glyph glyph-name="uniACE7" unicode="&#xace7;" 
d="M1696 -55v-82h-1422v614h1381v-80h-1282v-452h1323zM1864 729h-1794v82h802v426h99v-426h893v-82zM1608 989h-97q66 244 66 565h-1321v82h1419q0 -379 -67 -647z" />
    <glyph glyph-name="uniACE8" unicode="&#xace8;" 
d="M1655 205h-1282v-260h1323v-82h-1422v420h1282v249h-1282v80h1381v-407zM1864 842h-1794v80h802v385h99v-385h893v-80zM1616 1075h-96q57 215 57 481h-1321v80h1419q0 -359 -59 -561z" />
    <glyph glyph-name="uniACEA" unicode="&#xacea;" 
d="M1034 612h633v-749h-633v749zM1573 532h-445v-589h445v589zM246 283h561v249h-561v80h657v-407h-561v-266l602 24v-80l-698 -33v433zM1864 842h-1794v80h802v385h99v-385h893v-80zM1616 1075h-96q57 215 57 481h-1321v80h1419q0 -359 -59 -561z" />
    <glyph glyph-name="uniACEC" unicode="&#xacec;" 
d="M246 283h581v249h-581v80h678v-407h-582v-266l602 24v-80l-698 -33v433zM1864 842h-1794v80h802v385h99v-385h893v-80zM1616 1075h-96q57 215 57 481h-1321v80h1419q0 -359 -59 -561zM1788 -74l-64 -73q-97 57 -183 145.5t-148 191.5l-33 64q-10 -24 -41 -84
q-109 -202 -289 -330l-61 62q166 113 265.5 303.5t106.5 412.5h99q-3 -128 -35 -233l-8 -29q21 -50 59 -110q137 -216 332 -320z" />
    <glyph glyph-name="uniACEF" unicode="&#xacef;" 
d="M1776 436v-80h-207q52 -21 93.5 -90t41.5 -143q0 -126 -93 -219.5t-249 -93.5t-249 93.5t-93 219.5q0 74 41.5 143t93.5 90h-207v80h828zM246 283h520v249h-520v80h616v-407h-520v-266l602 24v-80l-698 -33v433zM1362 356q-118 0 -182 -67t-64 -166q0 -100 64.5 -167
t181.5 -67t181.5 67t64.5 167q0 99 -64 166t-182 67zM1864 842h-1794v80h802v385h99v-385h893v-80zM1616 1075h-96q57 215 57 481h-1321v80h1419q0 -359 -59 -561zM1593 653v-80h-463v80h463z" />
    <glyph glyph-name="uniACF0" unicode="&#xacf0;" 
d="M274 489h1381v-626h-1381v626zM1556 410h-1183v-465h1183v465zM1864 729h-1794v82h802v426h99v-426h893v-82zM1608 989h-97q66 244 66 565h-1321v82h1419q0 -379 -67 -647z" />
    <glyph glyph-name="uniACF1" unicode="&#xacf1;" 
d="M1556 584h99v-721h-1381v721h99v-234h1183v234zM373 -55h1183v325h-1183v-325zM1864 766h-1794v80h802v420h99v-420h893v-80zM1612 1022h-96q61 211 61 534h-1321v80h1419q0 -385 -63 -614z" />
    <glyph glyph-name="uniACF3" unicode="&#xacf3;" 
d="M1864 702h-1794v82h802v453h99v-453h893v-82zM1759 -61l-51 -84q-156 22 -316 89t-292 167q-80 61 -139 129q-76 -101 -189 -179q-122 -86 -271.5 -143t-295.5 -76l-47 80q150 21 287.5 71.5t250 125.5t186 180.5t89.5 226.5h106q-9 -120 -71 -223q61 -64 131 -115
q130 -94 294 -161t328 -88zM1604 969h-93q66 256 66 585h-1321v82h1419q0 -395 -71 -667z" />
    <glyph glyph-name="uniACF5" unicode="&#xacf5;" 
d="M975 -227q-264 0 -427 119t-163 292t163 292.5t427 119.5t427 -119.5t163 -292.5t-163 -292t-427 -119zM975 -147q228 0 359.5 95.5t131.5 235.5t-132 236t-359 96q-228 0 -360 -96t-132 -236t132 -235.5t360 -95.5zM1864 780h-1794v80h802v406h99v-406h893v-80z
M1612 1022h-96q61 211 61 534h-1321v80h1419q0 -385 -63 -614z" />
    <glyph glyph-name="uniACF6" unicode="&#xacf6;" 
d="M1675 498v-80h-598q-28 -92 -84 -168q55 -53 150 -113q132 -79 296 -132.5t333 -72.5l-52 -79q-151 15 -313.5 71.5t-304.5 143.5q-92 57 -160 120q-71 -80 -174 -145q-245 -161 -541 -201l-57 76q225 31 412 121t292 219q63 76 87 160h-707v80h1421zM1864 745h-1794v82
h802v414h99v-414h893v-82zM1608 997h-97q66 244 66 557h-1321v82h1419q0 -371 -67 -639z" />
    <glyph glyph-name="uniACFC" unicode="&#xacfc;" 
d="M1624 -150h-98v1819h98v-760h285v-82h-285v-977zM1423 182l-1355 -20v86l520 6v676h98v-676l737 10v-82zM1145 543h-96q92 385 92 954h-971v82h1069q0 -603 -94 -1036z" />
    <glyph glyph-name="uniACFD" unicode="&#xacfd;" 
d="M1632 -158h-98v504h-1276v82h1374v-586zM1436 676l-1370 -21v84l548 6v486h99v-486l723 11v-80zM1178 936h-97q74 284 74 606h-979v82h1077q0 -420 -75 -688zM1636 526h-98v1143h98v-514h262v-82h-262v-547z" />
    <glyph glyph-name="uniAD00" unicode="&#xad00;" 
d="M1436 627l-1370 -21v84l548 6v494h99v-494l723 11v-80zM307 408h99v-443h1288v-82h-1387v525zM1636 293h-98v1376h98v-555h262v-82h-262v-739zM1178 895h-97q74 284 74 647h-979v82h1077q0 -461 -75 -729z" />
    <glyph glyph-name="uniAD04" unicode="&#xad04;" 
d="M1632 197h-1235v-252h1278v-82h-1376v411h1235v238h-1235v80h1333v-395zM1436 807l-1370 -21v84l548 7v395h99v-395l723 10v-80zM1188 1038h-96q66 237 63 506h-979v80h1077q0 -353 -65 -586zM1636 694h-98v975h98v-432h262v-82h-262v-461z" />
    <glyph glyph-name="uniAD06" unicode="&#xad06;" 
d="M1028 592h604v-729h-604v729zM1538 512h-416v-569h416v569zM264 274h537v238h-537v80h633v-395h-537v-258l578 24v-80l-674 -33v424zM1436 807l-1370 -21v84l548 7v395h99v-395l723 10v-80zM1188 1038h-96q66 237 63 506h-979v80h1077q0 -353 -65 -586zM1636 694h-98v975
h98v-432h262v-82h-262v-461z" />
    <glyph glyph-name="uniAD0C" unicode="&#xad0c;" 
d="M299 469h1333v-606h-1333v606zM1534 389h-1137v-444h1137v444zM1436 717l-1370 -21v84l548 6v455h99v-455l723 11v-80zM1178 977h-97q74 275 74 565h-979v82h1077q0 -382 -75 -647zM1636 567h-98v1102h98v-493h262v-82h-262v-527z" />
    <glyph glyph-name="uniAD0D" unicode="&#xad0d;" 
d="M1534 539h98v-676h-1333v676h98v-211h1137v211zM397 -55h1137v303h-1137v-303zM1436 766l-1370 -21v84l548 7v415h99v-415l723 10v-80zM1188 1018h-96q63 237 63 526h-979v80h1077q0 -373 -65 -606zM1636 641h-98v1028h98v-452h262v-82h-262v-494z" />
    <glyph glyph-name="uniAD0F" unicode="&#xad0f;" 
d="M1780 -61l-51 -84q-156 28 -312 97.5t-284 170.5q-79 61 -136 129q-71 -92 -172 -168q-122 -93 -268 -156t-293 -86l-45 80q200 29 374.5 118.5t287 220t131.5 274.5h106q-12 -114 -76 -218q54 -63 134 -124q125 -94 282 -160t322 -94zM1436 709l-1370 -21v84l548 6v453
h99v-453l723 10v-79zM1178 956h-97q74 284 74 586h-979v82h1077q0 -403 -75 -668zM1636 420h-98v1249h98v-514h262v-82h-262v-653z" />
    <glyph glyph-name="uniAD11" unicode="&#xad11;" 
d="M1059 -227q-172 0 -305.5 56t-203 148t-69.5 203q0 171 160 289.5t418 118.5t417.5 -118.5t159.5 -289.5q0 -111 -69.5 -203t-202.5 -148t-305 -56zM1059 -147q220 0 349.5 95t129.5 232t-129.5 232.5t-349.5 95.5t-349.5 -95.5t-129.5 -232.5t129.5 -232t349.5 -95z
M1436 766l-1370 -21v84l548 7v415h99v-415l723 10v-80zM1188 1018h-96q63 237 63 526h-979v80h1077q0 -373 -65 -606zM1636 588h-98v1081h98v-473h262v-82h-262v-526z" />
    <glyph glyph-name="uniAD18" unicode="&#xad18;" 
d="M1755 1669v-1816h-96v974h-346v-905h-96v1727h96v-740h346v760h96zM936 543h-94q71 442 71 954h-766v82h863q0 -573 -74 -1036zM1116 182l-1024 -20v86l383 6v698h96v-696l545 8v-82z" />
    <glyph glyph-name="uniAD1C" unicode="&#xad1c;" 
d="M1755 1669v-1372h-96v756h-326v-715h-96v1311h96v-514h326v534h96zM381 408h98v-441h1313v-82h-1411v523zM1151 653l-1051 -20v84l404 6v479h96v-479l551 10v-80zM963 915h-95q64 248 64 619h-764v82h860q0 -449 -65 -701z" />
    <glyph glyph-name="uniAD20" unicode="&#xad20;" 
d="M1751 197h-1276v-252h1319v-82h-1417v411h1276v238h-1276v80h1374v-395zM1755 1669v-975h-96v461h-326v-461h-96v955h96v-412h326v432h96zM1151 803l-1051 -21v82l404 6v414h96v-414l551 11v-78zM975 1030h-94q51 239 51 506h-764v80h860q0 -360 -53 -586z" />
    <glyph glyph-name="uniAD29" unicode="&#xad29;" 
d="M1653 559h98v-696h-1374v696h98v-221h1178v221zM475 -55h1178v313h-1178v-313zM1755 1669v-1007h-96v483h-326v-483h-96v987h96v-422h326v442h96zM1151 770l-1051 -20v81l404 7v426h96v-426l551 10v-78zM975 997h-94q51 239 51 539h-764v80h860q0 -393 -53 -619z" />
    <glyph glyph-name="uniAD2C" unicode="&#xad2c;" 
d="M1898 -68l-55 -77q-100 41 -202.5 110t-184.5 154q-43 46 -65 82q-44 -67 -86 -117q-151 -180 -363 -268l-57 63q95 41 180 101q-17 7 -68 34q-120 74 -206 166q-38 38 -56 64q-50 -82 -110 -142q-161 -161 -377 -235l-55 67q214 70 360 220t178 331h98q-16 -95 -55 -174
q11 -16 64 -73q90 -90 209 -154l96 -45q45 40 88 92q137 166 162 354h100q-13 -113 -63 -211q0 -3 -3 -6q36 -49 78 -88q82 -82 184 -147t209 -101zM1755 1669v-1085h-96v530h-326v-530h-96v1065h96v-453h326v473h96zM1151 709l-1051 -21v84l404 6v465h96v-465l551 10v-79z
M975 956h-94q51 225 51 578h-764v82h860q0 -424 -53 -660z" />
    <glyph glyph-name="uniAD2D" unicode="&#xad2d;" 
d="M1153 -227q-172 0 -305.5 56t-203 148t-69.5 203q0 171 160 289.5t418 118.5t418 -118.5t160 -289.5q0 -111 -69.5 -203t-203 -148t-305.5 -56zM1153 -147q220 0 349.5 95t129.5 232t-129.5 232.5t-349.5 95.5t-349.5 -95.5t-129.5 -232.5t129.5 -232t349.5 -95z
M1755 1669v-1079h-96v555h-326v-473h-96v977h96v-422h326v442h96zM1151 770l-1051 -20v81l404 7v426h96v-426l551 10v-78zM975 997h-94q51 239 51 539h-764v80h860q0 -393 -53 -619z" />
    <glyph glyph-name="uniAD34" unicode="&#xad34;" 
d="M1518 182l-1397 -20v86l551 6v676h98v-676l748 10v-82zM1239 543h-96q92 385 92 954h-991v82h1089q0 -603 -94 -1036zM1718 -150h-98v1819h98v-1819z" />
    <glyph glyph-name="uniAD35" unicode="&#xad35;" 
d="M1530 668l-1411 -21v84l579 6v494h99v-492l733 9v-80zM1726 -158h-98v504h-1296v82h1394v-586zM1272 936h-96q73 280 73 606h-999v82h1098q0 -417 -76 -688zM1731 1669v-1143h-99v1143h99z" />
    <glyph glyph-name="uniAD38" unicode="&#xad38;" 
d="M1530 639l-1411 -21v87l579 6v479h99v-477l733 8v-82zM381 408h98v-443h1309v-82h-1407v525zM1272 895h-96q73 280 73 647h-999v82h1098q0 -458 -76 -729zM1731 293h-99v1376h99v-1376z" />
    <glyph glyph-name="uniAD3C" unicode="&#xad3c;" 
d="M1726 197h-1255v-252h1298v-82h-1396v411h1255v238h-1255v80h1353v-395zM1530 807l-1411 -21v84l579 7v395h99v-393l733 8v-80zM1282 1038h-96q66 237 63 506h-999v80h1098q0 -349 -66 -586zM1731 694h-99v975h99v-975z" />
    <glyph glyph-name="uniAD44" unicode="&#xad44;" 
d="M373 469h1353v-606h-1353v606zM1628 389h-1157v-444h1157v444zM1530 709l-1411 -21v84l579 6v463h99v-461l733 8v-79zM1272 977h-96q73 271 73 565h-999v82h1098q0 -379 -76 -647zM1731 567h-99v1102h99v-1102z" />
    <glyph glyph-name="uniAD45" unicode="&#xad45;" 
d="M1628 539h98v-676h-1353v676h98v-211h1157v211zM471 -55h1157v303h-1157v-303zM1530 766l-1411 -21v84l579 7v415h99v-413l733 8v-80zM1282 1018h-96q63 237 63 526h-999v80h1098q0 -369 -66 -606zM1731 641h-99v1028h99v-1028z" />
    <glyph glyph-name="uniAD47" unicode="&#xad47;" 
d="M1841 -61l-51 -84q-156 28 -312 97.5t-284 170.5q-76 59 -135 129q-71 -92 -172 -168q-122 -93 -268 -156t-293 -86l-45 80q200 29 374 118.5t286.5 220t131.5 274.5h107q-12 -114 -76 -218q56 -65 133 -124q125 -94 282 -160t322 -94zM1530 709l-1411 -21v84l579 6v453
h99v-451l733 8v-79zM1272 956h-96q73 280 73 586h-999v82h1098q0 -400 -76 -668zM1731 420h-99v1249h99v-1249z" />
    <glyph glyph-name="uniAD49" unicode="&#xad49;" 
d="M1153 -227q-172 0 -305.5 56t-203 148t-69.5 203q0 171 160 289.5t418 118.5t418 -118.5t160 -289.5q0 -111 -69.5 -203t-203 -148t-305.5 -56zM1153 -147q220 0 349.5 95t129.5 232t-129.5 232.5t-349.5 95.5t-349.5 -95.5t-129.5 -232.5t129.5 -232t349.5 -95z
M1530 766l-1411 -21v84l579 7v415h99v-413l733 8v-80zM1282 1018h-96q63 237 63 526h-999v80h1098q0 -369 -66 -606zM1731 588h-99v1081h99v-1081z" />
    <glyph glyph-name="uniAD50" unicode="&#xad50;" 
d="M1864 39h-1794v82h493v760h96v-760h447v760h96v-760h662v-82zM1563 440h-99q57 226 85 515t28 542h-1321v82h1419q0 -669 -112 -1139z" />
    <glyph glyph-name="uniAD54" unicode="&#xad54;" 
d="M1864 623h-1794v82h518v503h96v-503h475v503h96v-503h609v-82zM1599 891h-96q74 256 74 663h-1321v82h1419q0 -482 -76 -745zM283 424h98v-471h1337v-82h-1435v553z" />
    <glyph glyph-name="uniAD58" unicode="&#xad58;" 
d="M1655 205h-1282v-260h1323v-82h-1422v420h1282v249h-1282v80h1381v-407zM1864 834h-1794v79h510v377h96v-377h475v377h96v-377h617v-79zM1616 1075h-96q57 215 57 481h-1321v80h1419q0 -359 -59 -561z" />
    <glyph glyph-name="uniAD61" unicode="&#xad61;" 
d="M1556 584h99v-721h-1381v721h99v-234h1183v234zM373 -55h1183v325h-1183v-325zM1864 758h-1794v80h510v411h96v-411h475v411h96v-411h617v-80zM1612 1022h-96q61 211 61 534h-1321v80h1419q0 -385 -63 -614z" />
    <glyph glyph-name="uniAD63" unicode="&#xad63;" 
d="M1864 694h-1794v82h510v441h96v-441h475v441h96v-441h617v-82zM1759 -61l-51 -84q-156 22 -316 89t-292 167q-80 61 -139 129q-76 -101 -189 -179q-122 -86 -271.5 -143t-295.5 -76l-47 80q150 21 287.5 71.5t250 125.5t186 180.5t89.5 226.5h106q-9 -120 -71 -223
q61 -64 131 -115q130 -94 294 -161t328 -88zM1604 969h-93q66 256 66 585h-1321v82h1419q0 -395 -71 -667z" />
    <glyph glyph-name="uniAD6C" unicode="&#xad6c;" 
d="M995 -150h-98v807h-827v82h1394q45 180 68 369q29 224 37 422h-1313v82h1411q-8 -240 -39 -490q-27 -206 -67 -383h303v-82h-869v-807z" />
    <glyph glyph-name="uniAD6D" unicode="&#xad6d;" 
d="M1655 -158h-99v533h-1323v82h685v379h-848v82h1413q5 20 28 139q41 208 58 497h-1313v82h1411q-6 -214 -33 -405q-22 -170 -55 -313h285v-82h-848v-379h639v-615z" />
    <glyph glyph-name="uniAD70" unicode="&#xad70;" 
d="M1036 219h-98v535h-868v82h1409q13 55 32 157q43 237 58 561h-1313v82h1411q-6 -222 -31 -446q-25 -209 -61 -354h289v-82h-828v-535zM283 432h98v-479h1337v-82h-1435v561z" />
    <glyph glyph-name="uniAD73" unicode="&#xad73;" 
d="M1696 -55v-82h-1422v626h644v363h-848v82h1417l24 123q41 208 58 497h-1313v82h1411q-6 -214 -33 -405q-17 -140 -51 -297h281v-82h-848v-363h639v-79h-1282v-465h1323z" />
    <glyph glyph-name="uniAD74" unicode="&#xad74;" 
d="M1864 924h-848v-291h639v-418h-1282v-270h1323v-82h-1422v430h1282v260h-1282v80h644v291h-848v80h1429q18 72 23 98q39 204 47 454h-1313v80h1411q-3 -170 -27 -374q-18 -147 -45 -258h269v-80z" />
    <glyph glyph-name="uniAD75" unicode="&#xad75;" 
d="M246 293h585v260h-585v80h672v291h-848v80h1429q18 72 23 98q39 204 47 454h-1313v80h1411q-3 -170 -27 -374q-18 -147 -45 -258h269v-80h-848v-312h-88v-397h-586v-276l745 24v-80l-841 -33v443zM1569 -158v711h-533v80h631v-791h-98z" />
    <glyph glyph-name="uniAD76" unicode="&#xad76;" 
d="M1034 633h633v-770h-633v770zM1016 612h-98v312h-848v80h1429q18 72 23 98q39 204 47 454h-1313v80h1411q-3 -170 -27 -374q-18 -147 -45 -258h269v-80h-848v-312zM1573 553h-445v-610h445v610zM246 293h561v260h-561v80h657v-418h-561v-276l602 24v-80l-698 -33v443z
" />
    <glyph glyph-name="uniAD7B" unicode="&#xad7b;" 
d="M1362 -190q-105 0 -184.5 46.5t-118.5 118.5t-39 156q0 78 42 147t97 95h-211v80h828v-80h-211q55 -26 97 -95t42 -147q0 -84 -39 -156t-118.5 -118.5t-184.5 -46.5zM1016 653h-98v271h-848v80h1429q18 72 23 98q39 204 47 454h-1313v80h1411q-3 -170 -27 -374
q-18 -147 -45 -258h269v-80h-848v-271zM246 293h520v260h-520v80h616v-418h-520v-276l602 24v-80l-698 -33v443zM1362 -111q117 0 181.5 69t64.5 173t-64.5 173t-181.5 69t-181.5 -69t-64.5 -173t64.5 -173t181.5 -69zM1593 674v-80h-463v80h463z" />
    <glyph glyph-name="uniAD7C" unicode="&#xad7c;" 
d="M1864 852h-848v-350h639v-639h-1381v639h644v350h-848v82h1417l24 123q41 208 58 497h-1313v82h1411q-6 -214 -33 -405q-17 -140 -51 -297h281v-82zM1556 422h-1183v-477h1183v477z" />
    <glyph glyph-name="uniAD7D" unicode="&#xad7d;" 
d="M1556 604h99v-741h-1381v741h99v-244h1183v244zM373 -55h1183v336h-1183v-336zM1016 535h-98v321h-848v82h1417q15 57 24 119q42 211 58 497h-1313v82h1411q-6 -214 -33 -405q-16 -130 -51 -293h281v-82h-848v-321z" />
    <glyph glyph-name="uniAD7F" unicode="&#xad7f;" 
d="M1038 565h-102v260h-866v82h1409q15 56 32 150q42 211 58 497h-1313v82h1411q-6 -214 -33 -405q-24 -187 -59 -324h289v-82h-826v-260zM1759 -61l-51 -84q-157 15 -319 77t-295 158q-79 61 -136 129q-80 -98 -182 -168q-124 -85 -274.5 -140.5t-298.5 -68.5l-45 78
q207 25 383 101.5t292.5 198t137.5 265.5h106q-12 -108 -73 -202q57 -64 131 -117q128 -90 292.5 -151t331.5 -76z" />
    <glyph glyph-name="uniAD81" unicode="&#xad81;" 
d="M975 -227q-264 0 -427 122.5t-163 299.5q0 131 91 234.5t253 152.5q81 26 189 32v269h-848v82h1423l18 92q42 209 58 499h-1313v80h1411q-6 -214 -33 -405q-21 -147 -45 -266h275v-82h-848v-269q104 -3 203 -32q163 -49 254.5 -152.5t91.5 -234.5q0 -177 -163 -299.5
t-427 -122.5zM975 -147q228 0 359.5 98.5t131.5 243.5t-131.5 243.5t-359.5 98.5t-360 -99t-132 -243t132 -243t360 -99z" />
    <glyph glyph-name="uniAD82" unicode="&#xad82;" 
d="M1016 629h-98v243h-848v82h1421q2 10 6 30.5t7.5 38.5t6.5 34q41 208 58 497h-1313v82h1411q-6 -214 -33 -405q-23 -170 -47 -277h277v-82h-848v-243zM1675 506v-80h-602q-27 -89 -86 -172q137 -125 347 -211t438 -111l-52 -79q-151 15 -313.5 71.5t-304.5 143.5
q-102 67 -164 127q-75 -81 -170 -146q-117 -81 -258.5 -134.5t-282.5 -72.5l-57 76q223 31 410.5 124.5t293.5 227.5q56 70 84 156h-704v80h1421z" />
    <glyph glyph-name="uniAD88" unicode="&#xad88;" 
d="M782 -106h-98v839l-563 -8v86l997 12q29 132 53 324q23 193 31 383h-971v82h1069q-9 -236 -30 -436q-20 -180 -56 -353l283 4v-82l-715 -12v-839zM1092 350v82h528v1237h98v-1819h-98v500h-528z" />
    <glyph glyph-name="uniAD89" unicode="&#xad89;" 
d="M788 485h-98v422l-571 -8v84l1036 12q17 58 25 113q38 221 45 430h-961v82h1059q-6 -185 -27 -352q-18 -147 -45 -273l279 4v-79l-742 -13v-422zM1726 -158h-98v463h-1296v82h1394v-545zM1133 647v82h499v940h99v-1184h-99v162h-499z" />
    <glyph glyph-name="uniAD8C" unicode="&#xad8c;" 
d="M788 453h-98v411l-571 -8v84l1028 12q24 102 29 133q42 217 49 453h-961v82h1059q-5 -183 -29 -373q-16 -123 -51 -295l266 4v-79l-721 -13v-411zM1133 555v82h499v1032h99v-1376h-99v262h-499zM377 387h98v-420h1297v-82h-1395v502z" />
    <glyph glyph-name="uniAD90" unicode="&#xad90;" 
d="M1726 176h-1255v-231h1298v-82h-1396v391h1255v217h-1255v80h1353v-375zM788 645h-98v361l-571 -9v84l1050 13q26 125 35 211q15 121 21 235h-961v80h1059q-5 -136 -23 -293q-15 -120 -36 -233l245 4v-80l-721 -12v-361zM1133 768v82h499v819h99v-1024h-99v123h-499z" />
    <glyph glyph-name="uniAD9C" unicode="&#xad9c;" 
d="M788 567h-98v361l-571 -8v84l1044 12l19 92q36 211 43 430h-961v82h1059q-5 -164 -29 -352q-13 -114 -41 -252l256 4v-80l-721 -12v-361zM1898 -68l-55 -77q-216 97 -381 256q-29 29 -71 82q-40 -65 -86 -117q-149 -171 -363 -260l-57 63q95 41 180 101l-66 32
q-103 65 -206 162q-32 32 -56 59q-46 -71 -114 -139q-161 -158 -375 -227l-55 67q215 69 360.5 212t177.5 319h98q-17 -96 -53 -164q22 -28 62 -68q88 -85 211 -151q53 -27 96 -43q45 39 84 84q140 155 164 342h100q-12 -106 -63 -205v-2q76 -105 196 -184q137 -89 272 -142
zM1133 680v82h499v907h99v-1106h-99v117h-499z" />
    <glyph glyph-name="uniAD9D" unicode="&#xad9d;" 
d="M1153 -227q-259 0 -418.5 112t-159.5 275t159.5 275t418.5 112t418.5 -112t159.5 -275t-159.5 -275t-418.5 -112zM1153 -147q220 0 349.5 89t129.5 218t-129.5 218t-349.5 89t-349.5 -89t-129.5 -218t129.5 -218t349.5 -89zM768 588h-98v377l-551 -9v84l1050 13l19 102
q31 203 37 383h-961v82h1059q-6 -155 -25 -317q-15 -138 -36 -250l247 4v-80l-741 -12v-377zM1133 719v82h499v868h99v-1122h-99v172h-499z" />
    <glyph glyph-name="uniADA4" unicode="&#xada4;" 
d="M659 -66h-96v803l-450 -8v86l761 12q30 185 44 318q18 182 24 385h-727v82h823q-3 -227 -22 -445q-16 -169 -47 -340l194 4v-81l-504 -11v-805zM895 377v82h381v1190h96v-1727h-96v455h-381zM1755 -150h-96v1819h96v-1819z" />
    <glyph glyph-name="uniADB7" unicode="&#xadb7;" 
d="M639 498h-96v446l-443 -8v84l799 12l12 66q36 217 43 432h-739v82h836q-3 -185 -25 -357q-15 -123 -33 -223l199 4v-80l-553 -10v-448zM1849 -61l-51 -84q-153 25 -309.5 90.5t-284.5 160.5q-76 58 -135 123q-76 -95 -178 -166q-119 -83 -265 -140t-292 -81l-45 80
q203 33 373.5 112t284 199.5t134.5 260.5h107q-11 -103 -72 -201q68 -68 131 -113q127 -89 284.5 -153t317.5 -88zM903 700v82h375v867h96v-1078h-96v129h-375zM1659 399v1270h96v-1270h-96z" />
    <glyph glyph-name="uniADC0" unicode="&#xadc0;" 
d="M803 -106h-98v819l-584 -8v86l993 10q73 326 88 729h-971v82h1069q-9 -239 -30 -438q-22 -209 -60 -371l308 4v-82l-715 -12v-819zM1718 -150h-98v1819h98v-1819z" />
    <glyph glyph-name="uniADC1" unicode="&#xadc1;" 
d="M809 506h-98v360l-592 -8v84l1036 12q18 69 25 121q37 203 45 463h-961v82h1059q-6 -201 -27 -377q-18 -158 -45 -289l279 4v-79l-721 -13v-360zM1726 -158h-98v484h-1296v82h1394v-566zM1731 506h-99v1163h99v-1163z" />
    <glyph glyph-name="uniADC4" unicode="&#xadc4;" 
d="M809 453h-98v391l-592 -8v84l1036 12q33 134 49 289q19 214 21 317h-961v82h1059q-6 -216 -27 -391q-13 -143 -47 -297l281 4v-80l-721 -12v-391zM377 408h98v-441h1297v-82h-1395v523zM1731 293h-99v1376h99v-1376z" />
    <glyph glyph-name="uniADC8" unicode="&#xadc8;" 
d="M1726 186h-1255v-241h1298v-82h-1396v401h1255v228h-1255v79h1353v-385zM809 674h-98v303l-592 -8v84l1050 12q25 123 35 217q15 126 21 258h-961v80h1059q-5 -148 -23 -320q-14 -127 -36 -235l245 4v-80l-700 -10v-305zM1731 674h-99v995h99v-995z" />
    <glyph glyph-name="uniADD0" unicode="&#xadd0;" 
d="M373 461h1353v-598h-1353v598zM1628 381h-1157v-436h1157v436zM809 563h-98v344l-592 -8v86l1046 12q10 47 15 78q37 203 45 463h-961v82h1059q-6 -201 -27 -377q-15 -132 -36 -246l249 4v-81l-700 -11v-346zM1731 559h-99v1110h99v-1110z" />
    <glyph glyph-name="uniADD1" unicode="&#xadd1;" 
d="M1628 547h98v-684h-1353v684h98v-223h1157v223zM471 -55h1157v299h-1157v-299zM809 600h-98v336l-592 -8v84l1050 12l19 102q19 125 37 414h-961v80h1059q-5 -142 -23 -340q-15 -146 -36 -256l245 4v-80l-700 -10v-338zM1731 641h-99v1028h99v-1028z" />
    <glyph glyph-name="uniADD3" unicode="&#xadd3;" 
d="M788 461h-98v405l-571 -8v84l1036 12q18 69 25 121q37 203 45 463h-961v82h1059q-6 -201 -27 -377q-18 -158 -45 -289l279 4v-79l-742 -13v-405zM1862 -61l-52 -84q-156 28 -312 97.5t-284 170.5q-76 59 -135 129q-71 -92 -172 -168q-122 -93 -268 -156t-293 -86l-45 80
q200 29 374.5 118.5t287 220t131.5 274.5h106q-12 -114 -76 -218q56 -65 133 -124q125 -94 282.5 -160t322.5 -94zM1731 420h-99v1249h99v-1249z" />
    <glyph glyph-name="uniADDC" unicode="&#xaddc;" 
d="M670 -129h-97v786h-503v82h1394q45 180 68 369q29 224 37 422h-1313v82h1411q-8 -240 -39 -490q-27 -206 -67 -383h303v-82h-498v-807h-96v807h-600v-786z" />
    <glyph glyph-name="uniADE0" unicode="&#xade0;" 
d="M805 211h-96v551h-639v82h1411q18 72 30 149q43 237 58 561h-1313v82h1411q-6 -222 -31 -446q-23 -191 -59 -346h287v-82h-494v-551h-96v551h-469v-551zM283 444h98v-491h1337v-82h-1435v573z" />
    <glyph glyph-name="uniADE4" unicode="&#xade4;" 
d="M1864 924h-498v-291h289v-418h-1282v-270h1323v-82h-1422v430h1282v260h-1282v80h291v291h-495v80h1429q18 72 23 98q39 204 47 454h-1313v80h1411q-3 -170 -27 -374q-18 -147 -45 -258h269v-80zM662 924v-291h608v291h-608z" />
    <glyph glyph-name="uniADF8" unicode="&#xadf8;" 
d="M1864 70h-1794v82h1335q30 101 63 274q46 250 76 543t33 510h-1321v82h1419q-3 -275 -32.5 -577.5t-77.5 -559.5q-26 -146 -62 -272h361v-82z" />
    <glyph glyph-name="uniADF9" unicode="&#xadf9;" 
d="M1864 795h-1794v82h1411q20 73 26 116q47 229 62 561h-1313v82h1411q-6 -234 -33 -446q-20 -163 -57 -313h287v-82zM1655 -158h-99v545h-1323v82h1422v-627z" />
    <glyph glyph-name="uniADFC" unicode="&#xadfc;" 
d="M1864 713h-1794v82h1400q25 104 35 166q49 250 64 593h-1313v82h1411q-6 -231 -35 -469q-29 -226 -65 -372h297v-82zM283 465h98v-512h1337v-82h-1435v594z" />
    <glyph glyph-name="uniADFF" unicode="&#xadff;" 
d="M1864 815h-1794v82h1417q9 33 20 96q47 229 62 561h-1313v82h1411q-6 -234 -33 -446q-20 -158 -51 -293h281v-82zM1696 -55v-82h-1422v659h1381v-80h-1282v-497h1323z" />
    <glyph glyph-name="uniAE00" unicode="&#xae00;" 
d="M1655 225h-1282v-280h1323v-82h-1422v440h1282v270h-1282v80h1381v-428zM1864 903h-1794v80h1425q17 70 23 111q45 217 51 460h-1305v82h1403q-13 -310 -57 -540q-5 -34 -23 -113h277v-80z" />
    <glyph glyph-name="uniAE01" unicode="&#xae01;" 
d="M1864 903h-1794v80h1425q17 70 23 111q45 217 51 460h-1305v82h1403q-13 -310 -57 -540q-5 -34 -23 -113h277v-80zM246 303h585v270h-585v80h682v-428h-586v-286l745 24v-80l-841 -33v453zM1569 -158v731h-533v80h631v-811h-98z" />
    <glyph glyph-name="uniAE08" unicode="&#xae08;" 
d="M274 522h1381v-659h-1381v659zM1556 442h-1183v-497h1183v497zM1864 815h-1794v82h1417q9 33 20 96q47 229 62 561h-1313v82h1411q-6 -234 -33 -446q-20 -158 -51 -293h281v-82z" />
    <glyph glyph-name="uniAE09" unicode="&#xae09;" 
d="M1556 625h99v-762h-1381v762h99v-254h1183v254zM373 -55h1183v346h-1183v-346zM1864 840h-1794v80h1415q13 50 26 124q52 254 58 510h-1305v82h1403q-9 -207 -33 -407q-20 -169 -57 -309h287v-80z" />
    <glyph glyph-name="uniAE0B" unicode="&#xae0b;" 
d="M1864 754h-1794v82h1400q23 81 37 157q47 229 62 561h-1313v82h1411q-6 -234 -33 -446q-28 -209 -67 -354h297v-82zM1759 -61l-51 -84q-155 22 -315 90.5t-293 171.5q-80 62 -142 133q-72 -96 -186 -180q-123 -90 -273 -149.5t-294 -78.5l-47 80q119 17 231.5 53.5
t212.5 93t177.5 127.5t128 161.5t63.5 189.5h106q-8 -119 -76 -232q47 -52 136 -120q129 -97 292.5 -166t329.5 -90z" />
    <glyph glyph-name="uniAE0D" unicode="&#xae0d;" 
d="M975 -227q-264 0 -427 122.5t-163 299.5t163 299t427 122t427 -122t163 -299t-163 -299.5t-427 -122.5zM975 -147q228 0 359.5 98.5t131.5 243.5t-131.5 243.5t-359.5 98.5t-360 -99t-132 -243t132 -243t360 -99zM1864 840h-1794v80h1415q13 50 26 124q52 254 58 510
h-1305v82h1403q-9 -207 -33 -407q-20 -169 -57 -309h287v-80z" />
    <glyph glyph-name="uniAE14" unicode="&#xae14;" 
d="M1239 522h-96q92 385 92 955h-991v82h1089q0 -604 -94 -1037zM1718 -150h-98v1819h98v-1819zM1518 203l-1397 -21v86l1397 17v-82z" />
    <glyph glyph-name="uniAE30" unicode="&#xae30;" 
d="M221 1505v82h934q-2 -241 -73.5 -466.5t-196.5 -409.5t-290.5 -331t-361.5 -249l-65 74q256 124 453.5 329.5t309 456.5t122.5 514h-832zM1686 -150h-99v1819h99v-1819z" />
    <glyph glyph-name="uniAE31" unicode="&#xae31;" 
d="M1597 590v1079h99v-1079h-99zM1692 -158h-99v543h-1282v82h1381v-625zM221 1524v82h922q0 -153 -54 -294.5t-146.5 -252t-216 -200.5t-263.5 -149t-289 -89l-49 81q246 49 445 165t324 287t146 370h-819z" />
    <glyph glyph-name="uniAE34" unicode="&#xae34;" 
d="M221 1524v82h922q0 -156 -53 -300.5t-144 -259t-214.5 -209t-264 -158.5t-291.5 -99l-51 79q252 54 452 179.5t321 303t142 382.5h-819zM1597 334v1335h99v-1335h-99zM381 453h98v-500h1268v-82h-1366v582z" />
    <glyph glyph-name="uniAE37" unicode="&#xae37;" 
d="M221 1524v82h922q0 -126 -38 -244.5t-105.5 -215.5t-159 -181.5t-200 -148t-226.5 -109t-240 -70.5l-49 82q245 49 443.5 161.5t324.5 280t147 363.5h-819zM1597 631v1038h99v-1038h-99zM373 508h1319v-80h-1221v-483h1266v-82h-1364v645z" />
    <glyph glyph-name="uniAE38" unicode="&#xae38;" 
d="M221 1526v80h922q0 -122 -39.5 -234t-109.5 -201t-163 -164.5t-202.5 -130.5t-224.5 -92.5t-234 -56.5l-45 84q175 27 330.5 88t279.5 150t205 212t100 265h-819zM1597 721v948h99v-948h-99zM1692 203h-1221v-258h1262v-82h-1360v418h1220v245h-1220v80h1319v-403z" />
    <glyph glyph-name="uniAE3A" unicode="&#xae3a;" 
d="M221 1526v80h922q0 -122 -39.5 -234t-109.5 -201t-163 -164.5t-202.5 -130.5t-224.5 -92.5t-234 -56.5l-45 84q175 27 330.5 88t279.5 150t205 212t100 265h-819zM1597 721v948h99v-948h-99zM315 281h539v245h-539v80h635v-403h-538v-264l579 24v-80l-676 -33v431z
M1081 606h611v-743h-611v743zM1597 526h-421v-583h421v583z" />
    <glyph glyph-name="uniAE40" unicode="&#xae40;" 
d="M1597 651v1018h99v-1018h-99zM373 528h1319v-665h-1319v665zM1593 449h-1122v-504h1122v504zM221 1524v82h922q0 -126 -38 -244.5t-105.5 -215.5t-159 -181.5t-200 -148t-226.5 -109t-240 -70.5l-49 82q245 49 443.5 161.5t324.5 280t147 363.5h-819z" />
    <glyph glyph-name="uniAE41" unicode="&#xae41;" 
d="M1597 711v958h99v-958h-99zM1593 596h99v-733h-1319v733h98v-234h1122v234zM471 -55h1122v338h-1122v-338zM221 1526v80h922q0 -122 -39.5 -234t-109.5 -201t-163 -164.5t-202.5 -130.5t-224.5 -92.5t-234 -56.5l-45 84q175 27 330.5 88t279.5 150t205 212t100 265h-819z
" />
    <glyph glyph-name="uniAE43" unicode="&#xae43;" 
d="M221 1524v82h922q0 -156 -53 -300.5t-144 -259t-214.5 -209t-264 -158.5t-291.5 -99l-51 79q252 54 452 179.5t321 303t142 382.5h-819zM328 -160l-56 80q196 44 366 143.5t282.5 240.5t136.5 296h106q-15 -119 -80 -231q48 -64 123 -133q114 -101 263.5 -179.5
t308.5 -117.5l-49 -86q-144 37 -297.5 119.5t-272.5 189.5q-66 61 -119 139q-71 -99 -161 -178q-234 -204 -551 -283zM1597 455v1214h99v-1214h-99z" />
    <glyph glyph-name="uniAE45" unicode="&#xae45;" 
d="M221 1524v82h922q0 -151 -54.5 -287t-147 -240t-217 -188.5t-263 -139.5t-287.5 -85l-49 82q184 37 342.5 107t281 167.5t199 226.5t92.5 275h-819zM1597 678v991h99v-991h-99zM1126 -186q-256 0 -410.5 124t-154.5 308t154.5 308t410.5 124t411 -124t155 -308t-155 -308
t-411 -124zM1126 -106q217 0 342 102t125 250t-125 250t-342 102t-342 -102t-125 -250t125 -250t342 -102z" />
    <glyph glyph-name="uniAE46" unicode="&#xae46;" 
d="M1817 -66l-54 -81q-153 29 -310 93.5t-284 155.5q-83 63 -137 123q-86 -99 -182 -162q-235 -160 -543 -223l-57 76q218 36 407 133.5t297 226.5q67 86 88 173h-690v79h1360v-79h-561q-22 -88 -72 -160q59 -66 131 -115q267 -182 607 -240zM221 1524v82h922
q0 -151 -54.5 -287t-147 -240t-217 -188.5t-263 -139.5t-287.5 -85l-49 82q184 37 342.5 107t281 167.5t199 226.5t92.5 275h-819zM1597 651v1018h99v-1018h-99z" />
    <glyph glyph-name="uniAE4A" unicode="&#xae4a;" 
d="M1733 451h-273l-14 -506h328v-82h-1442v82h342l-12 506h-289v81h1360v-81zM760 451l12 -506h576l14 506h-602zM221 1524v82h922q0 -151 -54.5 -287t-147 -240t-217 -188.5t-263 -139.5t-287.5 -85l-49 82q184 37 342.5 107t281 167.5t199 226.5t92.5 275h-819zM1597 651
v1018h99v-1018h-99z" />
    <glyph glyph-name="uniAE4C" unicode="&#xae4c;" 
d="M160 1505v82h545q8 -815 -564 -1360l-73 56q255 230 392 543.5t148 678.5h-448zM778 1505v82h520q12 -949 -546 -1491l-76 56q135 124 236 281t162.5 332t92.5 358.5t35 381.5h-424zM1645 -150h-97v1819h97v-739h276v-82h-276v-998z" />
    <glyph glyph-name="uniAE4D" unicode="&#xae4d;" 
d="M1647 -158h-99v527h-1282v82h1381v-609zM791 1524v82h503q0 -687 -538 -1014l-68 59q242 138 370.5 364t139.5 509h-407zM188 1524v82h533q2 -157 -41 -300t-122.5 -257.5t-182.5 -206t-230 -160.5l-67 61q247 122 391 329.5t156 451.5h-437zM1919 1176v-82h-268v-521
h-97v1096h97v-493h268z" />
    <glyph glyph-name="uniAE4E" unicode="&#xae4e;" 
d="M791 1524v82h503q0 -687 -538 -1014l-68 59q242 138 370.5 364t139.5 509h-407zM188 1524v82h533q2 -157 -41 -300t-122.5 -257.5t-182.5 -206t-230 -160.5l-67 61q247 122 391 329.5t156 451.5h-437zM1919 1176v-82h-268v-521h-97v1096h97v-493h268zM913 -158h-96v527
h-571v82h667v-609zM1647 -158h-97v527h-538v82h635v-609z" />
    <glyph glyph-name="uniAE50" unicode="&#xae50;" 
d="M336 453h98v-500h1276v-82h-1374v582zM1919 1135v-82h-268v-723h-97v1339h97v-534h268zM791 1524v82h503q0 -369 -140 -640.5t-398 -435.5l-68 60q122 72 217.5 175t157 225t95.5 256t40 278h-407zM188 1524v82h533q2 -161 -41 -306.5t-122.5 -262.5t-182.5 -210
t-230 -165l-67 61q251 130 391 340q141 211 156 461h-437z" />
    <glyph glyph-name="uniAE54" unicode="&#xae54;" 
d="M1919 1247v-82h-268v-444h-97v948h97v-422h268zM1647 203h-1221v-258h1262v-82h-1360v418h1220v245h-1220v80h1319v-403zM188 1526v80h533q0 -143 -43 -270.5t-121.5 -227.5t-182.5 -177.5t-231 -131.5l-65 65q250 100 389.5 276t157.5 386h-437zM791 1526v80h503
q0 -160 -38 -298t-110 -248t-169.5 -195.5t-222.5 -149.5l-66 63q241 118 368.5 312t141.5 436h-407z" />
    <glyph glyph-name="uniAE56" unicode="&#xae56;" 
d="M1919 1247v-82h-268v-444h-97v948h97v-422h268zM270 281h539v245h-539v80h635v-403h-538v-264l579 24v-80l-676 -33v431zM1036 606h611v-743h-611v743zM1552 526h-422v-583h422v583zM188 1526v80h533q0 -143 -43 -270.5t-121.5 -227.5t-182.5 -177.5t-231 -131.5l-65 65
q250 100 389.5 276t157.5 386h-437zM791 1526v80h503q0 -160 -38 -298t-110 -248t-169.5 -195.5t-222.5 -149.5l-66 63q241 118 368.5 312t141.5 436h-407z" />
    <glyph glyph-name="uniAE5C" unicode="&#xae5c;" 
d="M328 528h1319v-665h-1319v665zM1548 449h-1122v-504h1122v504zM791 1524v82h503q0 -650 -538 -973l-68 59q243 138 371 349.5t139 482.5h-407zM188 1524v82h533q2 -122 -27 -235.5t-80.5 -206t-125.5 -175.5t-158.5 -147.5t-184.5 -118.5l-67 61q243 119 389 315.5
t158 424.5h-437zM1554 651v1018h97v-473h268v-82h-268v-463h-97z" />
    <glyph glyph-name="uniAE5D" unicode="&#xae5d;" 
d="M1548 596h99v-733h-1319v733h98v-234h1122v234zM426 -55h1122v338h-1122v-338zM791 1526v80h503q0 -320 -142.5 -550t-397.5 -366l-66 64q239 120 368.5 322t141.5 450h-407zM188 1526v80h533q0 -283 -158.5 -497.5t-419.5 -330.5l-65 66q166 66 288 177.5t184.5 239
t74.5 265.5h-437zM1919 1227v-82h-268v-434h-97v958h97v-442h268z" />
    <glyph glyph-name="uniAE5F" unicode="&#xae5f;" 
d="M317 -160l-55 80q189 39 355.5 125.5t284.5 217t145 276.5h106q-17 -110 -80 -211q121 -133 295 -234q183 -103 399 -155l-49 -86q-146 38 -295 112t-268 172q-74 61 -125 127q-71 -89 -166 -166q-234 -184 -547 -258zM791 1524v82h503q0 -687 -538 -1014l-68 59
q242 138 370.5 364t139.5 509h-407zM1919 1155v-82h-268v-620h-97v1216h97v-514h268zM188 1524v82h533q2 -157 -41 -300t-122.5 -257.5t-182.5 -206t-230 -160.5l-67 61q247 122 391 329.5t156 451.5h-437z" />
    <glyph glyph-name="uniAE60" unicode="&#xae60;" 
d="M1843 -57l-57 -80q-209 87 -385 282q-37 41 -51 64q-36 -62 -80 -111q-138 -168 -363 -278l-55 61q91 43 180 109q-34 14 -78 43q-112 77 -200 170q-46 52 -47 53q-43 -67 -109 -137q-163 -168 -383 -242l-53 68q217 72 366.5 226t173.5 341h99q-12 -103 -58 -193
q9 -11 29 -33t27 -30q96 -93 205 -156q59 -34 102 -51q54 51 92 94q134 166 158 369h98q-15 -122 -63 -223q-2 -2 -2 -6q74 -105 170 -179q118 -96 284 -161zM791 1524v82h503q0 -650 -538 -973l-68 59q243 138 371 349.5t139 482.5h-407zM188 1524v82h533
q2 -122 -27 -235.5t-80.5 -206t-125.5 -175.5t-158.5 -147.5t-184.5 -118.5l-67 61q243 119 389 315.5t158 424.5h-437zM1554 631v1038h97v-473h268v-82h-268v-483h-97z" />
    <glyph glyph-name="uniAE61" unicode="&#xae61;" 
d="M1110 -186q-256 0 -410.5 119t-154.5 294q0 85 39.5 160.5t111 131.5t179 89t235.5 33t235.5 -33t179 -89t111 -131.5t39.5 -160.5q0 -175 -154.5 -294t-410.5 -119zM1110 -106q217 0 342 96t125 237q0 142 -125 238t-342 96t-342 -96t-125 -238q0 -141 125 -237t342 -96
zM791 1524v82h503q0 -320 -142.5 -550t-397.5 -366l-66 64q239 120 368.5 322t141.5 448h-407zM188 1524v82h533q0 -283 -158.5 -497.5t-419.5 -330.5l-65 66q248 99 388.5 283t158.5 397h-437zM1919 1217v-82h-268v-490h-97v1024h97v-452h268z" />
    <glyph glyph-name="uniAE65" unicode="&#xae65;" 
d="M426 -55h1262v-82h-1360v743h1319v-80h-1221v-245h1200v-78h-1200v-258zM188 1526v80h533q0 -143 -43 -270.5t-121.5 -227.5t-182.5 -177.5t-231 -131.5l-65 65q250 100 389.5 276t157.5 386h-437zM791 1526v80h503q0 -160 -38 -298t-110 -248t-169.5 -195.5
t-222.5 -149.5l-66 63q241 118 368.5 312t141.5 436h-407zM1919 1247v-82h-268v-444h-97v948h97v-422h268z" />
    <glyph glyph-name="uniAE68" unicode="&#xae68;" 
d="M180 1505v82h432q-4 -443 -119 -778t-343 -582l-80 54q217 217 327.5 535t118.5 689h-336zM686 1505v82h408q0 -482 -105 -850t-332 -641l-86 51q408 444 426 1358h-311zM1776 1669v-1816h-95v1005h-311v-960h-94v1751h94v-709h311v729h95z" />
    <glyph glyph-name="uniAE69" unicode="&#xae69;" 
d="M1774 1669v-1096h-95v545h-307v-545h-94v1080h94v-455h307v471h95zM1769 -158h-98v527h-1323v82h1421v-609zM205 1520v82h436q0 -290 -127 -524t-342 -388l-74 53q204 133 319 344t128 433h-340zM702 1520v82h412q6 -658 -422 -1002l-76 51q138 104 229.5 250.5
t130.5 298t42 320.5h-316z" />
    <glyph glyph-name="uniAE6C" unicode="&#xae6c;" 
d="M205 1520v82h436q0 -306 -125.5 -552.5t-343.5 -400.5l-74 53q107 72 191.5 168t137.5 203.5t82.5 219.5t35.5 227h-340zM702 1520v82h412q9 -694 -422 -1043l-76 51q105 79 183.5 185.5t124.5 226.5t69 243.5t25 254.5h-316zM1774 1669v-1374h-95v762h-307v-713h-94
v1309h94v-516h307v532h95zM418 436h98v-483h1305v-82h-1403v565z" />
    <glyph glyph-name="uniAE70" unicode="&#xae70;" 
d="M205 1522v80h436q0 -256 -127 -463.5t-346 -333.5l-70 57q108 57 193 136.5t137.5 167t81.5 177t35 179.5h-340zM702 1522v80h412q6 -579 -426 -879l-72 55q107 69 186 158t124 187t67.5 196t24.5 203h-316zM1774 1669v-948h-95v448h-307v-448h-94v932h94v-404h307v420
h95zM1769 203h-1261v-258h1302v-82h-1400v418h1261v245h-1261v80h1359v-403z" />
    <glyph glyph-name="uniAE78" unicode="&#xae78;" 
d="M1774 1669v-1038h-95v518h-307v-518h-94v1022h94v-424h307v440h95zM410 508h1359v-645h-1359v645zM1671 428h-1163v-483h1163v483zM205 1520v82h436q0 -284 -126 -502t-343 -369l-74 53q206 130 320 326.5t127 409.5h-340zM702 1520v82h412q1 -321 -103.5 -556.5
t-318.5 -404.5l-76 51q392 286 402 828h-316z" />
    <glyph glyph-name="uniAE79" unicode="&#xae79;" 
d="M205 1522v80h436q0 -260 -128 -476.5t-345 -341.5l-70 58q108 59 193 140t137.5 171.5t81.5 183t35 185.5h-340zM702 1522v80h412q6 -594 -426 -900l-72 56q207 139 302 337.5t100 426.5h-316zM1774 1669v-983h-95v473h-307v-473h-94v967h94v-414h307v430h95zM1671 571
h98v-708h-1359v708h98v-221h1163v221zM508 -55h1163v325h-1163v-325z" />
    <glyph glyph-name="uniAE7B" unicode="&#xae7b;" 
d="M1774 1669v-1239h-95v688h-307v-524h-94v1059h94v-455h307v471h95zM338 -160l-55 80q188 39 355 125.5t284.5 217t144.5 276.5h107q-17 -110 -80 -211q121 -133 295 -234q183 -103 399 -155l-49 -86q-146 38 -295 112t-268 172q-74 61 -125 127q-71 -89 -166 -166
q-234 -184 -547 -258zM702 1520v82h412q9 -694 -422 -1043l-76 51q105 79 183.5 185.5t124.5 226.5t69 243.5t25 254.5h-316zM205 1520v82h436q0 -306 -125.5 -552.5t-343.5 -400.5l-74 53q107 72 191.5 168t137.5 203.5t82.5 219.5t35.5 227h-340z" />
    <glyph glyph-name="uniAE7C" unicode="&#xae7c;" 
d="M1896 -57l-57 -80q-209 87 -385 282q-37 41 -51 64q-36 -62 -80 -111q-138 -169 -362 -278l-56 61q91 43 180 109q-31 12 -77 43q-115 78 -201 170q-46 52 -47 53q-43 -67 -109 -137q-163 -168 -383 -242l-53 68q217 72 367 226.5t174 340.5h98q-12 -105 -57 -193
q7 -9 16 -19t20.5 -23t18.5 -21q96 -93 205 -156q60 -34 102 -51q54 51 92 94q134 166 158 369h98q-15 -122 -63 -223q-2 -2 -2 -6q74 -105 170 -179q118 -96 284 -161zM1774 1669v-1038h-95v528h-307v-528h-94v1022h94v-414h307v430h95zM702 1520v82h412
q1 -321 -103.5 -556.5t-318.5 -404.5l-76 51q392 286 402 828h-316zM205 1520v82h436q0 -284 -126 -502t-343 -369l-74 53q206 130 320 326.5t127 409.5h-340z" />
    <glyph glyph-name="uniAE7D" unicode="&#xae7d;" 
d="M205 1520v82h436q0 -143 -35.5 -272t-100.5 -233.5t-147.5 -189t-185.5 -155.5l-74 53q206 132 320.5 319t126.5 396h-340zM702 1520v82h412q4 -313 -102.5 -543t-319.5 -397l-76 51q392 289 402 807h-316zM1774 1669v-1028h-95v518h-307v-436h-94v930h94v-414h307v430
h95zM1188 -186q-256 0 -410.5 119t-154.5 294q0 85 39.5 160.5t111 131.5t179 89t235.5 33t235.5 -33t179 -89t111 -131.5t39.5 -160.5q0 -175 -154.5 -294t-410.5 -119zM1188 -106q217 0 342 96t125 237q0 142 -125 238t-342 96t-342 -96t-125 -238q0 -141 125 -237
t342 -96z" />
    <glyph glyph-name="uniAE84" unicode="&#xae84;" 
d="M1645 1669v-432h276v-82h-276v-532h276v-82h-276v-691h-97v1819h97zM160 1505v82h545q8 -815 -564 -1360l-73 56q255 230 392 543.5t148 678.5h-448zM778 1505v82h520q12 -949 -546 -1491l-76 56q135 124 236 281t162.5 332t92.5 358.5t35 381.5h-424z" />
    <glyph glyph-name="uniAE85" unicode="&#xae85;" 
d="M1647 -158h-99v527h-1282v82h1381v-609zM1554 573v1096h97v-258h268v-82h-268v-346h268v-82h-268v-328h-97zM791 1524v82h503q0 -687 -538 -1014l-68 59q242 138 370.5 364t139.5 509h-407zM188 1524v82h533q2 -157 -41 -300t-122.5 -257.5t-182.5 -206t-230 -160.5
l-67 61q247 122 391 329.5t156 451.5h-437z" />
    <glyph glyph-name="uniAE8C" unicode="&#xae8c;" 
d="M1647 203h-1221v-258h1262v-82h-1360v418h1220v245h-1220v80h1319v-403zM1651 1669v-227h268v-80h-268v-297h268v-80h-268v-264h-97v948h97zM791 1526v80h503q0 -160 -38 -298t-110 -248t-169.5 -195.5t-222.5 -149.5l-66 63q241 118 368.5 312t141.5 436h-407zM188 1526
v80h533q0 -143 -43 -270.5t-121.5 -227.5t-182.5 -177.5t-231 -131.5l-65 65q250 100 389.5 276t157.5 386h-437z" />
    <glyph glyph-name="uniAEBC" unicode="&#xaebc;" 
d="M1335 860v82h316v727h96v-1819h-96v1010h-316zM811 1505v82h508q12 -952 -543 -1491l-76 56q179 166 296.5 389t169.5 459t57 505h-412zM201 1505v82h536q8 -823 -555 -1360l-73 56q251 226 387.5 544.5t144.5 677.5h-440z" />
    <glyph glyph-name="uniAEBD" unicode="&#xaebd;" 
d="M1733 -158h-99v527h-1302v82h1401v-609zM801 1524v82h493q0 -687 -538 -1014l-68 59q242 138 370.5 364t139.5 509h-397zM209 1524v82h522q2 -126 -26 -244t-78.5 -216t-122.5 -185.5t-156 -155.5t-182 -123l-68 61q239 123 382 331t155 450h-426zM1640 573v494h-329v82
h329v520h97v-1096h-97z" />
    <glyph glyph-name="uniAEBE" unicode="&#xaebe;" 
d="M801 1524v82h493q0 -687 -538 -1014l-68 59q242 138 370.5 364t139.5 509h-397zM209 1524v82h522q2 -126 -26 -244t-78.5 -216t-122.5 -185.5t-156 -155.5t-182 -123l-68 61q239 123 382 331t155 450h-426zM1640 573v494h-329v82h329v520h97v-1096h-97zM989 -158h-96v527
h-582v82h678v-609zM1733 -158h-97v527h-549v82h646v-609z" />
    <glyph glyph-name="uniAEC0" unicode="&#xaec0;" 
d="M401 436h99v-483h1288v-82h-1387v565zM1640 313v713h-329v82h329v561h97v-1356h-97zM801 1524v82h493q0 -369 -140 -640.5t-398 -435.5l-68 60q122 72 217.5 175t157 225t95.5 256t40 278h-397zM209 1524v82h522q2 -161 -40.5 -307t-121 -263t-179.5 -210t-224 -164
l-68 61q240 125 382.5 339t154.5 462h-426z" />
    <glyph glyph-name="uniAEC4" unicode="&#xaec4;" 
d="M1733 203h-1241v-258h1282v-82h-1381v418h1241v245h-1241v80h1340v-403zM801 1526v80h493q0 -160 -38 -298t-110 -248t-169.5 -195.5t-222.5 -149.5l-66 63q241 118 368.5 312t141.5 436h-397zM209 1526v80h522q0 -143 -42.5 -270t-120 -227t-179 -177.5t-225.5 -132.5
l-66 65q243 100 381 276.5t156 385.5h-426zM1737 1669v-948h-97v393h-329v80h329v475h97z" />
    <glyph glyph-name="uniAECC" unicode="&#xaecc;" 
d="M393 512h1340v-649h-1340v649zM1634 432h-1142v-487h1142v487zM801 1524v82h493q0 -650 -538 -973l-68 59q243 138 371 349.5t139 482.5h-397zM209 1524v82h522q2 -152 -41 -289t-123 -245.5t-179 -194t-222 -154.5l-68 61q236 120 380.5 317t156.5 423h-426zM1640 635
v457h-329v82h329v495h97v-1034h-97z" />
    <glyph glyph-name="uniAECD" unicode="&#xaecd;" 
d="M1634 600h99v-737h-1340v737h99v-235h1142v235zM492 -55h1142v340h-1142v-340zM801 1526v80h493q0 -320 -142.5 -550t-397.5 -366l-66 64q239 120 368.5 322t141.5 450h-397zM209 1526v80h522q0 -191 -75.5 -355.5t-200.5 -280.5t-291 -192l-66 66q241 99 380 284.5
t157 397.5h-426zM1640 715v389h-329v80h329v485h97v-954h-97z" />
    <glyph glyph-name="uniAECF" unicode="&#xaecf;" 
d="M369 -160l-56 80q189 39 355.5 125.5t284.5 217t145 276.5h106q-17 -110 -80 -211q121 -133 295 -234q182 -102 400 -155l-50 -86q-146 38 -295 112t-268 172q-74 61 -125 127q-71 -89 -166 -166q-235 -185 -546 -258zM1640 434v633h-329v82h329v520h97v-1235h-97z
M801 1524v82h493q0 -687 -538 -1014l-68 59q242 138 370.5 364t139.5 509h-397zM209 1524v82h522q2 -126 -26 -244t-78.5 -216t-122.5 -185.5t-156 -155.5t-182 -123l-68 61q239 123 382 331t155 450h-426z" />
    <glyph glyph-name="uniAED0" unicode="&#xaed0;" 
d="M1905 -57l-58 -80q-209 87 -385 282q-37 41 -51 64q-36 -62 -80 -111q-138 -169 -362 -278l-56 61q94 44 181 109q-34 14 -78 43q-115 78 -201 170q-46 52 -47 53q-43 -67 -109 -137q-163 -168 -383 -242l-53 68q217 72 367 226.5t174 340.5h98q-12 -105 -57 -193
q7 -9 16 -19t20.5 -23t18.5 -21q96 -93 205 -156q60 -34 102 -51q60 56 93 94q133 165 157 369h99q-15 -119 -64 -223q-2 -2 -2 -6q74 -105 170 -179q117 -95 285 -161zM801 1524v82h493q0 -650 -538 -973l-68 59q243 138 371 349.5t139 482.5h-397zM209 1524v82h522
q2 -152 -41 -289t-123 -245.5t-179 -194t-222 -154.5l-68 61q236 120 380.5 317t156.5 423h-426zM1640 631v456h-329v82h329v500h97v-1038h-97z" />
    <glyph glyph-name="uniAED1" unicode="&#xaed1;" 
d="M1167 -186q-256 0 -410.5 119t-154.5 294q0 85 39.5 160.5t111 131.5t179 89t235.5 33q256 0 411 -119.5t155 -294.5t-155 -294t-411 -119zM1167 -106q217 0 342 96t125 237q0 142 -125 238t-342 96t-342 -96t-125 -238q0 -141 125 -237t342 -96zM801 1524v82h493
q0 -320 -142.5 -550t-397.5 -366l-66 64q239 120 368.5 322t141.5 448h-397zM209 1524v82h522q0 -191 -75.5 -355.5t-200.5 -280.5t-291 -192l-66 66q241 99 380 283.5t157 396.5h-426zM1640 641v463h-329v80h329v485h97v-1028h-97z" />
    <glyph glyph-name="uniAED8" unicode="&#xaed8;" 
d="M1432 1649v-1751h-95v983h-313q-16 -75 -33 -136q-101 -367 -334 -649l-86 51q408 444 426 1358h-311v82h408q0 -331 -54 -624h297v686h95zM1681 -147v1816h95v-1816h-95zM180 1505v82h432q-4 -443 -119 -778t-343 -582l-80 54q217 217 327.5 535t118.5 689h-336z" />
    <glyph glyph-name="uniAED9" unicode="&#xaed9;" 
d="M702 1520v82h412q3 -237 -53 -435h278v486h95v-1080h-95v512h-305q-102 -291 -342 -485l-76 51q138 104 229.5 250.5t130.5 298t42 320.5h-316zM1769 -158h-98v527h-1323v82h1421v-609zM205 1520v82h436q0 -290 -127 -524t-342 -388l-74 53q204 133 319 344t128 433h-340
zM1679 573v1096h95v-1096h-95z" />
    <glyph glyph-name="uniAEDC" unicode="&#xaedc;" 
d="M1434 1653v-1309h-95v709h-307l-20 -58q-107 -260 -320 -436l-76 51q105 79 183.5 185.5t124.5 226.5t69 243.5t25 254.5h-316v82h412q3 -257 -55 -467h280v518h95zM418 436h98v-483h1305v-82h-1403v565zM1679 295v1374h95v-1374h-95zM205 1520v82h436
q0 -306 -125.5 -552.5t-343.5 -400.5l-74 53q107 72 191.5 168t137.5 203.5t82.5 219.5t35.5 227h-340z" />
    <glyph glyph-name="uniAEE8" unicode="&#xaee8;" 
d="M410 508h1359v-645h-1359v645zM1671 428h-1163v-483h1163v483zM702 1520v82h412q0 -238 -55 -424h280v475h95v-1022h-95v465h-307q-10 -30 -22 -54q-107 -232 -318 -401l-76 51q392 286 402 828h-316zM205 1520v82h436q0 -284 -126 -502t-343 -369l-74 53
q206 130 320 326.5t127 409.5h-340zM1679 631v1038h95v-1038h-95z" />
    <glyph glyph-name="uniAEEB" unicode="&#xaeeb;" 
d="M1434 1653v-1059h-95v471h-301q-18 -51 -26 -70q-107 -260 -320 -436l-76 51q105 79 183.5 185.5t124.5 226.5t69 243.5t25 254.5h-316v82h412q3 -248 -53 -455h278v506h95zM338 -160l-55 80q188 39 355 125.5t284.5 217t144.5 276.5h107q-17 -110 -80 -211
q121 -133 295 -234q183 -103 399 -155l-49 -86q-146 38 -295 112t-268 172q-74 61 -125 127q-71 -89 -166 -166q-234 -184 -547 -258zM205 1520v82h436q0 -306 -125.5 -552.5t-343.5 -400.5l-74 53q107 72 191.5 168t137.5 203.5t82.5 219.5t35.5 227h-340zM1679 430v1239
h95v-1239h-95z" />
    <glyph glyph-name="uniAEED" unicode="&#xaeed;" 
d="M1188 -186q-256 0 -410.5 119t-154.5 294q0 85 39.5 160.5t111 131.5t179 89t235.5 33t235.5 -33t179 -89t111 -131.5t39.5 -160.5q0 -175 -154.5 -294t-410.5 -119zM1188 -106q217 0 342 96t125 237q0 142 -125 238t-342 96t-342 -96t-125 -238q0 -141 125 -237t342 -96
zM1434 1653v-930h-95v395h-303q-10 -30 -28 -65q-106 -226 -316 -391l-76 51q392 289 402 807h-316v82h412q3 -161 -24 -299q-4 -26 -27 -105h276v455h95zM205 1520v82h436q0 -143 -35.5 -272t-100.5 -233.5t-147.5 -189t-185.5 -155.5l-74 53q206 132 320.5 319t126.5 396
h-340zM1679 641v1028h95v-1028h-95z" />
    <glyph glyph-name="uniAEF4" unicode="&#xaef4;" 
d="M1274 578v81h377v471h-363q-37 -226 -102 -399q-138 -372 -410 -635l-76 56q179 166 296.5 389t169.5 459t57 505h-412v82h508q3 -174 -21 -375h353v457h96v-1819h-96v728h-377zM201 1505v82h536q8 -823 -555 -1360l-73 56q251 226 387.5 544.5t144.5 677.5h-440z" />
    <glyph glyph-name="uniAEF8" unicode="&#xaef8;" 
d="M1640 313v523h-354v82h354v342h-292v81h292v328h97v-1356h-97zM401 436h99v-483h1288v-82h-1387v565zM801 1524v82h493q0 -369 -140 -640.5t-398 -435.5l-68 60q122 72 217.5 175t157 225t95.5 256t40 278h-397zM209 1524v82h522q2 -161 -40.5 -307t-121 -263
t-179.5 -210t-224 -164l-68 61q240 125 382.5 339t154.5 462h-426z" />
    <glyph glyph-name="uniAEFC" unicode="&#xaefc;" 
d="M1733 203h-1241v-258h1282v-82h-1381v418h1241v245h-1241v80h1340v-403zM1737 1669v-948h-97v240h-342v79h342v273h-292v80h292v276h97zM801 1526v80h493q0 -160 -38 -298t-110 -248t-169.5 -195.5t-222.5 -149.5l-66 63q241 118 368.5 312t141.5 436h-397zM209 1526v80
h522q0 -143 -42.5 -270t-120 -227t-179 -177.5t-225.5 -132.5l-66 65q243 100 381 276.5t156 385.5h-426z" />
    <glyph glyph-name="uniAF07" unicode="&#xaf07;" 
d="M369 -160l-56 80q189 39 355.5 125.5t284.5 217t145 276.5h106q-17 -110 -80 -211q121 -133 295 -234q182 -102 400 -155l-50 -86q-146 38 -295 112t-268 172q-74 61 -125 127q-71 -89 -166 -166q-235 -185 -546 -258zM1640 434v453h-354v82h354v311h-292v82h292v307h97
v-1235h-97zM801 1524v82h493q0 -687 -538 -1014l-68 59q242 138 370.5 364t139.5 509h-397zM209 1524v82h522q2 -126 -26 -244t-78.5 -216t-122.5 -185.5t-156 -155.5t-182 -123l-68 61q239 123 382 331t155 450h-426z" />
    <glyph glyph-name="uniAF08" unicode="&#xaf08;" 
d="M1905 -57l-58 -80q-209 87 -385 282q-37 41 -51 64q-36 -62 -80 -111q-138 -169 -362 -278l-56 61q94 44 181 109q-34 14 -78 43q-115 78 -201 170q-46 52 -47 53q-43 -67 -109 -137q-163 -168 -383 -242l-53 68q217 72 367 226.5t174 340.5h98q-12 -105 -57 -193
q7 -9 16 -19t20.5 -23t18.5 -21q96 -93 205 -156q60 -34 102 -51q60 56 93 94q133 165 157 369h99q-15 -119 -64 -223q-2 -2 -2 -6q74 -105 170 -179q117 -95 285 -161zM1640 631v276h-354v82h354v311h-292v82h292v287h97v-1038h-97zM801 1524v82h493q0 -650 -538 -973
l-68 59q243 138 371 349.5t139 482.5h-397zM209 1524v82h522q2 -152 -41 -289t-123 -245.5t-179 -194t-222 -154.5l-68 61q236 120 380.5 317t156.5 423h-426z" />
    <glyph glyph-name="uniAF0D" unicode="&#xaf0d;" 
d="M492 -55h1282v-82h-1381v743h1340v-80h-1241v-245h1220v-78h-1220v-258zM1737 1669v-948h-97v240h-342v79h342v273h-292v80h292v276h97zM801 1526v80h493q0 -160 -38 -298t-110 -248t-169.5 -195.5t-222.5 -149.5l-66 63q241 118 368.5 312t141.5 436h-397zM209 1526v80
h522q0 -143 -42.5 -270t-120 -227t-179 -177.5t-225.5 -132.5l-66 65q243 100 381 276.5t156 385.5h-426z" />
    <glyph glyph-name="uniAF10" unicode="&#xaf10;" 
d="M1069 635v82h277v450h-275q-27 -223 -80 -422q-101 -367 -334 -649l-86 51q408 444 426 1358h-311v82h408q0 -175 -15 -338h267v400h94v-1751h-94v737h-277zM1681 -147v1816h95v-1816h-95zM180 1505v82h432q-4 -443 -119 -778t-343 -582l-80 54q217 217 327.5 535
t118.5 689h-336z" />
    <glyph glyph-name="uniAF2C" unicode="&#xaf2c;" 
d="M1864 39h-1794v82h891v760h98v-760h805v-82zM1579 440h-94q55 237 84.5 523t29.5 538h-655v82h752q0 -652 -117 -1143zM602 440h-96q200 426 219 1061h-530v82h628q-17 -711 -221 -1143z" />
    <glyph glyph-name="uniAF2D" unicode="&#xaf2d;" 
d="M1864 684h-1794v82h905v410h98v-410h791v-82zM1655 -158h-99v512h-1323v82h1422v-594zM1616 948h-94q72 258 69 606h-643v82h740q0 -431 -72 -688zM682 948h-96q76 135 117.5 296t46.5 310h-535v82h633q-5 -198 -48 -378t-118 -310z" />
    <glyph glyph-name="uniAF30" unicode="&#xaf30;" 
d="M1864 614h-1794v82h905v439h98v-439h791v-82zM283 424h98v-471h1337v-82h-1435v553zM1612 891h-94q76 253 73 663h-643v82h740q0 -494 -76 -745zM682 891h-96q154 290 164 663h-535v82h633q-9 -450 -166 -745z" />
    <glyph glyph-name="uniAF32" unicode="&#xaf32;" 
d="M879 303v80h888v-80h-227q57 -28 96 -80.5t39 -124.5q0 -123 -100 -203.5t-252 -80.5t-252 80.5t-100 203.5q0 72 39 124.5t96 80.5h-227zM1864 743h-1794v80h905v373h98v-373h791v-80zM1323 303q-120 0 -188 -56.5t-68 -148.5t68 -148t188 -56t188 56t68 148t-68 148.5
t-188 56.5zM1612 997h-94q73 231 73 559h-643v80h740q0 -399 -76 -639zM893 -41v-80l-627 -29v687h99v-598zM694 997h-96q70 121 108.5 272t43.5 287h-535v80h633q-9 -389 -154 -639zM1577 584v-80h-508v80h508z" />
    <glyph glyph-name="uniAF34" unicode="&#xaf34;" 
d="M1655 205h-1282v-260h1323v-82h-1422v420h1282v249h-1282v80h1381v-407zM1864 821h-1794v80h905v356h98v-356h791v-80zM1620 1063h-94q65 204 65 493h-643v80h740q0 -365 -68 -573zM713 1063h-97q58 106 92 238.5t42 254.5h-535v80h633q-13 -354 -135 -573z" />
    <glyph glyph-name="uniAF3C" unicode="&#xaf3c;" 
d="M274 489h1381v-626h-1381v626zM1556 410h-1183v-465h1183v465zM1864 721h-1794v82h905v393h98v-393h791v-82zM1616 989h-94q72 258 69 565h-643v82h740q0 -390 -72 -647zM694 989h-96q70 127 108.5 279t43.5 286h-535v82h633q-4 -184 -44.5 -353t-109.5 -294z" />
    <glyph glyph-name="uniAF3D" unicode="&#xaf3d;" 
d="M1556 584h99v-721h-1381v721h99v-234h1183v234zM373 -55h1183v325h-1183v-325zM1864 760h-1794v80h905v377h98v-377h791v-80zM1620 1018h-94q69 235 65 538h-643v80h740q0 -386 -68 -618zM707 1018h-97q64 123 99.5 266t40.5 272h-535v80h633q-9 -370 -141 -618z" />
    <glyph glyph-name="uniAF3F" unicode="&#xaf3f;" 
d="M1864 692h-1794v82h905v402h98v-402h791v-82zM1759 -61l-51 -84q-156 22 -316 89t-292 167q-80 61 -139 129q-76 -101 -189 -179q-122 -86 -271.5 -143t-295.5 -76l-47 80q150 21 287.5 71.5t250 125.5t186 180.5t89.5 226.5h106q-9 -120 -71 -223q61 -64 131 -115
q130 -94 294 -161t328 -88zM1616 961h-94q72 258 69 593h-643v82h740q0 -418 -72 -675zM682 961h-96q77 136 118 291t46 302h-535v82h633q-9 -402 -166 -675z" />
    <glyph glyph-name="uniAF41" unicode="&#xaf41;" 
d="M975 -227q-264 0 -427 119t-163 292t163 292.5t427 119.5t427 -119.5t163 -292.5t-163 -292t-427 -119zM975 -147q228 0 359.5 95.5t131.5 235.5t-132 236t-359 96q-228 0 -360 -96t-132 -236t132 -235.5t360 -95.5zM1864 768h-1794v80h905v369h98v-369h791v-80z
M1620 1018h-94q69 235 65 538h-643v80h740q0 -386 -68 -618zM707 1018h-97q64 123 99.5 266t40.5 272h-535v80h633q-9 -370 -141 -618z" />
    <glyph glyph-name="uniAF42" unicode="&#xaf42;" 
d="M1675 498v-80h-598q-28 -92 -84 -168q55 -53 150 -113q132 -79 296 -132.5t333 -72.5l-52 -79q-151 15 -313.5 71.5t-304.5 143.5q-92 57 -160 120q-71 -80 -174 -145q-245 -161 -541 -201l-57 76q225 31 412 121t292 219q63 76 87 160h-707v80h1421zM1864 721h-1794v82
h905v393h98v-393h791v-82zM1616 989h-94q72 258 69 565h-643v82h740q0 -390 -72 -647zM694 989h-96q70 127 108.5 279t43.5 286h-535v82h633q-4 -184 -44.5 -353t-109.5 -294z" />
    <glyph glyph-name="uniAF43" unicode="&#xaf43;" 
d="M180 -160l-41 76q213 12 410.5 82t314.5 178q66 60 92 125h-712v80h1446v-80h-625q-21 -66 -66 -119q53 -45 138 -90q130 -67 302 -110.5t345 -55.5l-43 -76q-162 9 -328.5 52.5t-306.5 117.5q-85 44 -160 107q-95 -88 -207 -143q-126 -62 -273.5 -100t-285.5 -44z
M1864 821h-1794v80h905v356h98v-356h791v-80zM1620 1063h-94q65 204 65 493h-643v80h740q0 -365 -68 -573zM713 1063h-97q58 106 92 238.5t42 254.5h-535v80h633q-13 -354 -135 -573zM1350 602v-80h-766v80h766z" />
    <glyph glyph-name="uniAF48" unicode="&#xaf48;" 
d="M1624 -150h-98v1819h98v-760h285v-82h-285v-977zM1423 182l-1355 -20v86l659 8v653h98v-653l598 8v-82zM1190 543h-94q88 380 88 954h-467v82h563q4 -651 -90 -1036zM455 543h-97q84 210 131.5 468.5t47.5 485.5h-408v82h506q-1 -284 -49 -553.5t-131 -482.5z" />
    <glyph glyph-name="uniAF49" unicode="&#xaf49;" 
d="M1632 -158h-98v504h-1276v82h1374v-586zM1436 668l-1370 -21v84l696 8v430h98v-430l576 9v-80zM1636 526h-98v1143h98v-514h262v-82h-262v-547zM1235 936h-94q68 265 65 606h-467v82h564q0 -435 -68 -688zM508 936h-96q142 280 151 606h-420v82h519q-9 -397 -154 -688z
" />
    <glyph glyph-name="uniAF50" unicode="&#xaf50;" 
d="M1632 197h-1235v-252h1278v-82h-1376v411h1235v238h-1235v80h1333v-395zM1436 799l-1370 -21v84l696 8v365h98v-365l576 9v-80zM1636 694h-98v975h98v-432h262v-82h-262v-461zM1243 1030h-94q57 228 57 514h-467v80h564q0 -365 -60 -594zM524 1030h-98q126 255 137 514
h-420v80h519q-9 -344 -138 -594z" />
    <glyph glyph-name="uniAF5C" unicode="&#xaf5c;" 
d="M1837 -68l-55 -77q-100 41 -202.5 110t-184.5 154q-46 49 -66 82q-44 -67 -86 -117q-152 -181 -362 -268l-58 63q97 42 181 101q-17 7 -68 34q-122 76 -207 166q-34 34 -55 64q-48 -79 -111 -142q-161 -161 -377 -235l-55 67q214 70 360.5 220t178.5 331h98
q-16 -95 -55 -174q15 -21 63 -73q90 -90 209 -154l96 -45q45 40 88 92q137 166 162 354h101q-12 -111 -64 -211q0 -4 -2 -6q36 -49 78 -88q176 -176 393 -248zM1436 698l-1370 -20v84l696 8v420h98v-420l576 8v-80zM1636 584h-98v1085h98v-493h262v-82h-262v-510zM1235 956
h-94q68 264 65 586h-467v82h564q0 -415 -68 -668zM508 956h-96q142 281 151 586h-420v82h519q-9 -376 -154 -668z" />
    <glyph glyph-name="uniAF5D" unicode="&#xaf5d;" 
d="M1059 -227q-172 0 -305.5 56t-203 148t-69.5 203q0 171 160 289.5t418 118.5t417.5 -118.5t159.5 -289.5q0 -111 -69.5 -203t-202.5 -148t-305 -56zM1059 -147q220 0 349.5 95t129.5 232t-129.5 232.5t-349.5 95.5t-349.5 -95.5t-129.5 -232.5t129.5 -232t349.5 -95z
M1436 758l-1370 -21v84l696 8v381h98v-381l576 9v-80zM1636 588h-98v1081h98v-473h262v-82h-262v-526zM1243 1006h-94q57 228 57 538h-467v80h564q0 -389 -60 -618zM524 1006h-98q125 252 137 538h-420v80h519q-9 -370 -138 -618z" />
    <glyph glyph-name="uniAF64" unicode="&#xaf64;" 
d="M1755 1669v-1816h-96v974h-285v-905h-96v1727h96v-740h285v760h96zM1178 182l-1086 -20v86l553 8v676h96v-676l437 8v-82zM1026 543h-92q63 423 63 954h-360v82h455q0 -619 -66 -1036zM406 543h-95q160 418 160 954h-324v82h420q0 -597 -161 -1036z" />
    <glyph glyph-name="uniAF65" unicode="&#xaf65;" 
d="M1755 1669v-1143h-96v547h-275v-547h-96v1123h96v-494h275v514h96zM1751 -158h-98v504h-1317v82h1415v-586zM1202 664l-1102 -21v84l549 8v426h96v-426l457 8v-79zM1038 932h-92q66 253 66 602h-359v82h453q0 -431 -68 -684zM442 932h-94q119 277 131 602h-332v82h428
q-9 -392 -133 -684z" />
    <glyph glyph-name="uniAF79" unicode="&#xaf79;" 
d="M1153 -227q-172 0 -305.5 56t-203 148t-69.5 203q0 171 160 289.5t418 118.5t418 -118.5t160 -289.5q0 -111 -69.5 -203t-203 -148t-305.5 -56zM1153 -147q220 0 349.5 95t129.5 232t-129.5 232.5t-349.5 95.5t-349.5 -95.5t-129.5 -232.5t129.5 -232t349.5 -95z
M1755 1669v-1079h-96v555h-275v-473h-96v977h96v-422h275v442h96zM1202 762l-1102 -21v82l549 8v371h96v-371l457 9v-78zM1042 993h-92q62 227 62 543h-359v80h453q0 -376 -64 -623zM446 993h-94q116 260 127 543h-332v80h428q-8 -349 -129 -623z" />
    <glyph glyph-name="uniAF80" unicode="&#xaf80;" 
d="M1518 182l-1397 -20v86l690 8v653h98v-653l609 8v-82zM1718 -150h-98v1819h98v-1819zM1284 543h-94q88 380 88 954h-477v82h573q4 -651 -90 -1036zM539 543h-97q84 210 131.5 468.5t47.5 485.5h-418v82h516q-1 -284 -49 -553.5t-131 -482.5z" />
    <glyph glyph-name="uniAF84" unicode="&#xaf84;" 
d="M1530 618l-1411 -20v86l706 8v457h99v-457l606 8v-82zM381 408h98v-443h1309v-82h-1407v525zM1731 293h-99v1376h99v-1376zM1309 895h-95q66 264 66 647h-477v82h573q0 -480 -67 -729zM571 895h-96q135 277 152 647h-430v82h528q-5 -202 -44.5 -393.5t-109.5 -335.5z" />
    <glyph glyph-name="uniAF88" unicode="&#xaf88;" 
d="M1726 197h-1255v-252h1298v-82h-1396v411h1255v238h-1255v80h1353v-395zM1530 799l-1411 -21v84l706 8v365h99v-365l606 9v-80zM1731 694h-99v975h99v-975zM1317 1030h-94q57 228 57 514h-477v80h573q0 -369 -59 -594zM588 1030h-99q127 257 138 514h-430v80h528
q-9 -346 -137 -594z" />
    <glyph glyph-name="uniAF90" unicode="&#xaf90;" 
d="M373 469h1353v-606h-1353v606zM1628 389h-1157v-444h1157v444zM1530 700l-1411 -20v84l706 8v418h99v-418l606 8v-80zM1731 567h-99v1102h99v-1102zM1309 956h-95q69 268 66 586h-477v82h573q0 -419 -67 -668zM571 956h-96q143 283 152 586h-430v82h528
q-9 -376 -154 -668z" />
    <glyph glyph-name="uniAF91" unicode="&#xaf91;" 
d="M1628 539h98v-676h-1353v676h98v-211h1157v211zM471 -55h1157v303h-1157v-303zM1530 766l-1411 -21v84l706 9v372h99v-372l606 8v-80zM1731 641h-99v1028h99v-1028zM1317 1006h-94q57 228 57 538h-477v80h573q0 -393 -59 -618zM588 1006h-99q126 255 138 538h-430v80h528
q-9 -372 -137 -618z" />
    <glyph glyph-name="uniAF95" unicode="&#xaf95;" 
d="M1153 -227q-172 0 -305.5 56t-203 148t-69.5 203q0 171 160 289.5t418 118.5t418 -118.5t160 -289.5q0 -111 -69.5 -203t-203 -148t-305.5 -56zM1153 -147q220 0 349.5 95t129.5 232t-129.5 232.5t-349.5 95.5t-349.5 -95.5t-129.5 -232.5t129.5 -232t349.5 -95z
M1530 758l-1411 -21v84l706 8v381h99v-381l606 9v-80zM1731 588h-99v1081h99v-1081zM1317 1006h-94q57 228 57 538h-477v80h573q0 -393 -59 -618zM588 1006h-99q126 255 138 538h-430v80h528q-9 -372 -137 -618z" />
    <glyph glyph-name="uniAF9C" unicode="&#xaf9c;" 
d="M1864 39h-1794v82h706v698h98v-698h353v698h98v-698h539v-82zM1579 440h-94q55 237 84.5 523t29.5 538h-655v82h752q0 -652 -117 -1143zM522 440h-96q148 236 228.5 525.5t88.5 543.5h-548v82h645q-8 -320 -88.5 -617t-229.5 -534z" />
    <glyph glyph-name="uniAFB8" unicode="&#xafb8;" 
d="M995 -150h-98v807h-827v82h608q47 204 70 363q34 202 43 432h-576v82h674q-9 -276 -43 -492q-26 -180 -72 -385h703q44 193 69 363q34 202 43 432h-610v82h709q-9 -276 -43 -492q-26 -180 -72 -385h291v-82h-869v-807z" />
    <glyph glyph-name="uniAFB9" unicode="&#xafb9;" 
d="M1655 -158h-99v533h-1323v82h685v366h-848v82h622q67 264 90 649h-546v82h645q-20 -408 -97 -731h715q67 264 90 649h-618v82h717q-20 -408 -97 -731h273v-82h-848v-366h639v-615z" />
    <glyph glyph-name="uniAFBC" unicode="&#xafbc;" 
d="M1036 219h-98v535h-868v82h618q42 182 62 352q25 213 32 366h-546v82h645q-9 -213 -37 -430q-25 -206 -64 -370h715q40 173 61 352q26 228 33 366h-618v82h717q-9 -213 -37 -430q-25 -206 -64 -370h277v-82h-828v-535zM283 432h98v-479h1337v-82h-1435v561z" />
    <glyph glyph-name="uniAFC0" unicode="&#xafc0;" 
d="M1655 215h-1282v-270h1323v-82h-1422v430h1282v260h-1282v80h644v278h-848v80h641q27 122 43 244q22 163 28 321h-546v80h645q-9 -210 -33 -383q-21 -156 -45 -262h715q27 122 43 244q22 163 28 321h-618v80h717q-9 -210 -33 -383q-21 -156 -45 -262h254v-80h-848v-278
h639v-418z" />
    <glyph glyph-name="uniAFC7" unicode="&#xafc7;" 
d="M1362 -190q-105 0 -184.5 46.5t-118.5 118.5t-39 156q0 78 42 147t97 95h-211v80h828v-80h-211q55 -26 97 -95t42 -147q0 -84 -39 -156t-118.5 -118.5t-184.5 -46.5zM1016 653h-98v258h-848v80h641q27 122 43 244q22 163 28 321h-546v80h645q-9 -210 -33 -383
q-21 -156 -45 -262h715q27 122 43 244q22 163 28 321h-618v80h717q-9 -210 -33 -383q-21 -156 -45 -262h254v-80h-848v-258zM246 293h520v260h-520v80h616v-418h-520v-276l602 24v-80l-698 -33v443zM1362 -111q117 0 181.5 69t64.5 173t-64.5 173t-181.5 69t-181.5 -69
t-64.5 -173t64.5 -173t181.5 -69zM1593 674v-80h-463v80h463z" />
    <glyph glyph-name="uniAFC8" unicode="&#xafc8;" 
d="M1864 852h-848v-350h639v-639h-1381v639h644v350h-848v82h628q33 141 52 278q25 199 32 342h-546v82h645q-9 -204 -37 -405q-21 -146 -53 -297h714q30 131 51 278q26 213 33 342h-618v82h717q-9 -204 -37 -405q-19 -133 -54 -297h267v-82zM1556 422h-1183v-477h1183v477z
" />
    <glyph glyph-name="uniAFC9" unicode="&#xafc9;" 
d="M1556 604h99v-741h-1381v741h99v-244h1183v244zM1016 535h-98v321h-848v82h630q33 152 50 274q25 199 32 342h-546v82h645q-9 -204 -37 -405q-23 -162 -51 -293h714q30 138 49 274q26 213 33 342h-618v82h717q-9 -204 -37 -405q-21 -148 -52 -293h265v-82h-848v-321z
M373 -55h1183v336h-1183v-336z" />
    <glyph glyph-name="uniAFCB" unicode="&#xafcb;" 
d="M1038 565h-102v258h-866v82h622q67 264 90 649h-546v82h645q-20 -408 -97 -731h715q67 264 90 649h-618v82h717q-20 -408 -97 -731h273v-82h-826v-258zM1759 -61l-51 -84q-157 15 -319 77t-295 158q-79 61 -136 129q-80 -98 -182 -168q-124 -85 -274.5 -140.5
t-298.5 -68.5l-45 78q207 25 383 101.5t292.5 198t137.5 265.5h106q-12 -108 -73 -202q57 -64 131 -117q128 -90 292.5 -151t331.5 -76z" />
    <glyph glyph-name="uniAFCD" unicode="&#xafcd;" 
d="M1864 868h-848v-254q104 -3 203 -32q163 -49 254.5 -152.5t91.5 -234.5q0 -177 -163 -299.5t-427 -122.5t-427 122.5t-163 299.5q0 131 91 234.5t253 152.5q81 26 189 32v254h-848v82h632q34 150 48 262q25 198 32 344h-546v80h645q-9 -204 -37 -405q-20 -153 -49 -281
h714q31 139 47 262q26 212 33 344h-618v80h717q-9 -204 -37 -405q-20 -153 -49 -281h262v-82zM975 -147q228 0 359.5 98.5t131.5 243.5t-131.5 243.5t-359.5 98.5t-360 -99t-132 -243t132 -243t360 -99z" />
    <glyph glyph-name="uniAFCE" unicode="&#xafce;" 
d="M1016 629h-98v239h-848v82h632q34 150 48 262q25 199 32 342h-546v82h645q-9 -204 -37 -405q-20 -153 -49 -281h714q31 139 47 262q26 213 33 342h-618v82h717q-9 -204 -37 -405q-20 -153 -49 -281h262v-82h-848v-239zM1675 506v-80h-602q-27 -89 -86 -172
q137 -125 347 -211t438 -111l-52 -79q-151 15 -313.5 71.5t-304.5 143.5q-102 67 -164 127q-75 -81 -170 -146q-117 -81 -258.5 -134.5t-282.5 -72.5l-57 76q223 31 410.5 124.5t293.5 227.5q56 70 84 156h-704v80h1421z" />
    <glyph glyph-name="uniAFD4" unicode="&#xafd4;" 
d="M823 -106h-98v839l-604 -8v86l405 4q33 152 58 332q23 168 32 383h-389v82h488q-9 -247 -35 -436q-26 -207 -57 -359l499 6q38 200 56 324q23 168 32 383h-422v82h521q-9 -247 -35 -436q-21 -191 -55 -353l278 4v-82l-674 -10v-841zM1133 350v82h487v1237h98v-1819h-98
v500h-487z" />
    <glyph glyph-name="uniAFDC" unicode="&#xafdc;" 
d="M1726 176h-1255v-231h1298v-82h-1396v391h1255v217h-1255v80h1353v-375zM829 645h-98v352l-612 -8v84l459 4q16 82 34 219q15 116 21 244h-404v80h502q-11 -293 -61 -541l510 6q13 72 32 211q15 116 21 244h-432v80h530q-6 -149 -22 -293q-13 -112 -37 -242l237 5v-80
l-680 -11v-354zM1153 768v82h479v819h99v-1024h-99v123h-479z" />
    <glyph glyph-name="uniAFE8" unicode="&#xafe8;" 
d="M829 567h-98v361l-612 -8v84l448 4q31 162 39 229q18 140 27 301h-404v82h502q-9 -204 -29 -356q-16 -126 -40 -254l507 6q25 126 37 221q18 140 27 301h-432v82h530q-10 -216 -28 -356q-19 -140 -39 -248l245 4v-80l-680 -10v-363zM1898 -68l-55 -77q-216 97 -381 256
q-29 29 -71 82q-40 -65 -86 -117q-149 -171 -363 -260l-57 63q95 41 180 101l-66 32q-103 65 -206 162q-32 32 -56 59q-46 -71 -114 -139q-161 -158 -375 -227l-55 67q215 69 360.5 212t177.5 319h98q-17 -96 -53 -164q22 -28 62 -68q88 -85 211 -151q53 -27 96 -43
q45 39 84 84q140 155 164 342h100q-12 -106 -63 -205v-2q76 -105 196 -184q137 -89 272 -142zM1153 680v82h479v907h99v-1106h-99v117h-479z" />
    <glyph glyph-name="uniAFE9" unicode="&#xafe9;" 
d="M1153 -227q-259 0 -418.5 112t-159.5 275t159.5 275t418.5 112t418.5 -112t159.5 -275t-159.5 -275t-418.5 -112zM1153 -147q220 0 349.5 89t129.5 218t-129.5 218t-349.5 89t-349.5 -89t-129.5 -218t129.5 -218t349.5 -89zM809 588h-98v356l-592 -8v84l452 4
q18 89 35 213q18 140 27 301h-404v82h502q-9 -204 -29 -356q-12 -106 -38 -238l507 6q19 89 35 205q18 140 27 301h-432v82h530q-10 -216 -28 -356q-13 -108 -37 -232l243 4v-80l-700 -10v-358zM1153 719v82h479v868h99v-1122h-99v172h-479z" />
    <glyph glyph-name="uniAFF0" unicode="&#xaff0;" 
d="M700 -66h-96v803l-491 -8v86l331 4q27 155 45 326q20 197 25 385h-319v82h415q-3 -227 -22 -445q-16 -176 -47 -346l374 6q27 166 43 318q20 197 25 385h-303v82h399q-3 -227 -22 -445q-16 -169 -47 -340l194 4v-81l-504 -11v-805zM936 377v82h381v1190h96v-1727h-96v455
h-381zM1755 -150h-96v1819h96v-1819z" />
    <glyph glyph-name="uniAFF1" unicode="&#xaff1;" 
d="M698 485h-96v422l-502 -8v84l351 4q29 142 41 250q17 164 20 301h-311v82h407q-3 -182 -22 -356q-13 -137 -41 -275l393 6q24 118 39 242q17 164 20 301h-323v82h420q-3 -171 -23 -356q-16 -159 -41 -269l193 4v-79l-525 -11v-424zM1751 -158h-98v463h-1317v82h1415v-545
zM944 649v82h365v918h96v-1164h-96v164h-365zM1659 485v1184h96v-1184h-96z" />
    <glyph glyph-name="uniAFF4" unicode="&#xaff4;" 
d="M698 465h-96v416l-502 -9v84l349 5q29 133 43 266q17 174 20 311h-311v82h407q-3 -180 -22 -367q-14 -154 -43 -290l393 6q28 142 41 258q17 174 20 311h-323v82h420q-3 -168 -23 -367q-13 -139 -41 -284l193 4v-80l-525 -10v-418zM944 592v82h365v975h96v-1303h-96v246
h-365zM381 367h98v-400h1313v-82h-1411v482zM1659 301v1368h96v-1368h-96z" />
    <glyph glyph-name="uniAFF8" unicode="&#xaff8;" 
d="M1751 176h-1276v-231h1319v-82h-1417v391h1276v217h-1276v80h1374v-375zM698 645h-96v359l-502 -9v82l361 4q20 104 31 199q17 147 20 260h-311v80h407q-9 -323 -53 -537l391 7q21 101 31 190q17 147 20 260h-323v80h420q-9 -304 -52 -530l181 4v-78l-525 -10v-361z
M944 760v80h365v809h96v-1004h-96v115h-365zM1659 645v1024h96v-1024h-96z" />
    <glyph glyph-name="uniB000" unicode="&#xb000;" 
d="M377 457h1374v-594h-1374v594zM1653 377h-1178v-432h1178v432zM698 555h-96v373l-502 -8v84l355 4q25 130 37 229q17 164 20 301h-311v82h407q-3 -182 -22 -356q-14 -130 -37 -254l393 6q18 94 35 221q17 164 20 301h-323v82h420q-3 -171 -23 -356q-13 -119 -37 -248
l189 4v-80l-525 -10v-375zM944 700v82h365v867h96v-1094h-96v145h-365zM1659 555v1114h96v-1114h-96z" />
    <glyph glyph-name="uniB001" unicode="&#xb001;" 
d="M1653 518h98v-655h-1374v655h98v-213h1178v213zM475 -55h1178v280h-1178v-280zM698 612h-96v371l-502 -8v82l357 4q19 94 35 219q17 147 20 260h-311v80h407q-9 -332 -57 -557l393 6q17 89 33 211q17 147 20 260h-323v80h420q-9 -331 -56 -551l185 4v-78l-525 -10v-373z
M944 748v79h365v822h96v-1037h-96v136h-365zM1659 612v1057h96v-1057h-96z" />
    <glyph glyph-name="uniB004" unicode="&#xb004;" 
d="M698 563h-96v365l-502 -8v84l355 4q25 130 37 229q17 164 20 301h-311v82h407q-3 -182 -22 -356q-14 -130 -37 -254l393 6q18 94 35 221q17 164 20 301h-323v82h420q-3 -171 -23 -356q-13 -119 -37 -248l189 4v-80l-525 -10v-367zM1878 -68l-55 -77q-216 97 -381 256
q-34 34 -72 82q-40 -65 -86 -117q-149 -172 -362 -260l-58 63q95 41 180 101l-65 32q-106 67 -207 162q-23 23 -55 59q-44 -68 -115 -139q-161 -158 -375 -227l-55 67q215 69 361 212t178 319h98q-17 -96 -53 -164q25 -32 61 -68q88 -85 211 -151q53 -27 96 -43q45 39 84 84
q140 155 164 342h101q-12 -104 -64 -205v-2q75 -103 197 -184q137 -89 272 -142zM944 700v82h365v867h96v-1086h-96v137h-365zM1659 563v1106h96v-1106h-96z" />
    <glyph glyph-name="uniB00C" unicode="&#xb00c;" 
d="M844 -106h-99v839l-624 -8v86l405 4q33 152 58 332q23 168 32 383h-389v82h488q-9 -247 -35 -436q-26 -207 -57 -359l499 6q38 200 56 324q23 168 32 383h-422v82h521q-9 -247 -35 -436q-21 -191 -55 -353l299 4v-82l-674 -10v-841zM1718 -150h-98v1819h98v-1819z" />
    <glyph glyph-name="uniB010" unicode="&#xb010;" 
d="M829 453h-98v391l-612 -8v84l440 4l25 131q36 213 49 483h-404v82h502q-13 -305 -51 -555l-25 -139l504 6l25 129q36 220 49 477h-432v82h530q-12 -295 -51 -549l-25 -139l275 4v-80l-701 -10v-393zM377 408h98v-441h1297v-82h-1395v523zM1731 293h-99v1376h99v-1376z
" />
    <glyph glyph-name="uniB014" unicode="&#xb014;" 
d="M1726 186h-1255v-241h1298v-82h-1396v401h1255v228h-1255v79h1353v-385zM829 674h-98v303l-612 -8v84l459 4q16 84 34 229q15 125 21 254h-404v80h502q-12 -317 -61 -561l510 6q15 85 32 221q15 125 21 254h-432v80h530q-5 -144 -22 -303q-14 -125 -37 -252l237 4v-80
l-680 -10v-305zM1731 674h-99v995h99v-995z" />
    <glyph glyph-name="uniB01C" unicode="&#xb01c;" 
d="M373 461h1353v-598h-1353v598zM1628 381h-1157v-436h1157v436zM829 563h-98v344l-612 -8v86l444 4q28 139 43 248q18 140 27 301h-404v82h502q-9 -204 -29 -356q-18 -150 -45 -273l508 6q29 136 41 240q18 140 27 301h-432v82h530q-10 -216 -28 -356q-17 -139 -43 -267
l249 4v-81l-680 -11v-346zM1731 559h-99v1110h99v-1110z" />
    <glyph glyph-name="uniB01D" unicode="&#xb01d;" 
d="M1628 547h98v-684h-1353v684h98v-223h1157v223zM471 -55h1157v299h-1157v-299zM829 600h-98v336l-612 -8v84l450 4q25 127 37 223q18 140 27 301h-404v80h502q-9 -204 -29 -356q-12 -104 -38 -246l507 6q19 90 35 215q18 140 27 301h-432v80h530q-10 -216 -28 -356
q-10 -88 -39 -240l245 4v-80l-680 -10v-338zM1731 641h-99v1028h99v-1028z" />
    <glyph glyph-name="uniB028" unicode="&#xb028;" 
d="M670 -129h-97v786h-503v82h608q47 204 70 363q34 202 43 432h-576v82h674q-9 -276 -43 -492q-26 -180 -72 -385h703q44 193 69 363q34 202 43 432h-610v82h709q-9 -276 -43 -492q-26 -180 -72 -385h291v-82h-498v-807h-96v807h-600v-786z" />
    <glyph glyph-name="uniB044" unicode="&#xb044;" 
d="M1864 70h-1794v82h557q36 139 65 301q44 255 73 535t32 491h-602v82h700q-6 -587 -109 -1110q-29 -158 -65 -299h711q36 139 65 301q43 248 70 528t30 498h-612v82h711q-6 -565 -105 -1110q-29 -158 -65 -299h338v-82z" />
    <glyph glyph-name="uniB045" unicode="&#xb045;" 
d="M1864 795h-1794v82h628q33 146 52 311q25 213 32 366h-546v82h645q-9 -213 -37 -430q-18 -155 -53 -329h714q31 137 51 311q26 228 33 366h-618v82h717q-9 -213 -37 -430q-17 -143 -54 -329h267v-82zM1655 -158h-99v545h-1323v82h1422v-627z" />
    <glyph glyph-name="uniB048" unicode="&#xb048;" 
d="M1864 713h-1794v82h614q47 188 66 370q25 235 32 389h-546v82h645q-8 -214 -37 -452q-27 -217 -68 -389h715q45 181 65 370q27 252 33 389h-618v82h717q-8 -214 -37 -452q-27 -217 -68 -389h281v-82zM283 465h98v-512h1337v-82h-1435v594z" />
    <glyph glyph-name="uniB04A" unicode="&#xb04a;" 
d="M1323 -186q-152 0 -252 86.5t-100 214.5q0 76 40 134.5t95 86.5h-227v80h888v-80h-227q55 -28 95 -86.5t40 -134.5q0 -128 -100 -214.5t-252 -86.5zM1864 809h-1794v80h622q65 258 90 667h-546v80h645q-7 -205 -34 -406.5t-63 -340.5h715q65 258 90 667h-618v80h717
q-7 -205 -34 -406.5t-63 -340.5h273v-80zM1323 -106q119 0 187.5 62.5t68.5 158.5t-68.5 158.5t-187.5 62.5t-187.5 -62.5t-68.5 -158.5t68.5 -158.5t187.5 -62.5zM893 -41v-80l-627 -29v728h99v-639zM1577 625v-80h-508v80h508z" />
    <glyph glyph-name="uniB04C" unicode="&#xb04c;" 
d="M1655 225h-1282v-280h1323v-82h-1422v440h1282v270h-1282v80h1381v-428zM1864 895h-1794v80h632q34 147 50 268q21 152 30 313h-546v80h645q-8 -176 -35 -374q-17 -128 -51 -287h714q34 147 50 268q21 152 30 313h-618v80h717q-8 -176 -35 -374q-17 -128 -51 -287h262
v-80z" />
    <glyph glyph-name="uniB04E" unicode="&#xb04e;" 
d="M1034 653h633v-790h-633v790zM1864 895h-1794v80h632q34 147 50 268q21 152 30 313h-546v80h645q-8 -176 -35 -374q-17 -128 -51 -287h714q34 147 50 268q21 152 30 313h-618v80h717q-8 -176 -35 -374q-17 -128 -51 -287h262v-80zM1573 573h-445v-630h445v630zM246 303
h561v270h-561v80h657v-428h-561v-286l602 24v-80l-698 -33v453z" />
    <glyph glyph-name="uniB053" unicode="&#xb053;" 
d="M1362 -190q-157 0 -249.5 97.5t-92.5 229.5q0 80 42 151t97 97h-211v80h828v-80h-211q55 -26 97 -97t42 -151q0 -132 -92.5 -229.5t-249.5 -97.5zM1864 895h-1794v80h632q34 147 50 268q21 152 30 313h-546v80h645q-8 -176 -35 -374q-17 -128 -51 -287h714q34 147 50 268
q21 152 30 313h-618v80h717q-8 -176 -35 -374q-17 -128 -51 -287h262v-80zM246 303h520v270h-520v80h616v-428h-520v-286l602 24v-80l-698 -33v453zM1362 -111q117 0 181.5 71.5t64.5 176.5t-64.5 176.5t-181.5 71.5t-181.5 -71.5t-64.5 -176.5t64.5 -176.5t181.5 -71.5z
M1593 694v-80h-463v80h463z" />
    <glyph glyph-name="uniB054" unicode="&#xb054;" 
d="M274 522h1381v-659h-1381v659zM1556 442h-1183v-497h1183v497zM1864 799h-1794v82h628q33 145 52 307q25 213 32 366h-546v82h645q-9 -213 -37 -430q-24 -197 -53 -325h714q31 136 51 307q26 228 33 366h-618v82h717q-9 -213 -37 -430q-23 -188 -54 -325h267v-82z" />
    <glyph glyph-name="uniB055" unicode="&#xb055;" 
d="M1556 625h99v-762h-1381v762h99v-254h1183v254zM373 -55h1183v346h-1183v-346zM1864 840h-1794v80h630q33 158 50 284q25 210 32 352h-546v80h645q-12 -321 -66 -596q-7 -51 -22 -120h714q30 144 49 284q26 225 33 352h-618v80h717q-12 -321 -66 -596q-5 -38 -23 -120
h265v-80z" />
    <glyph glyph-name="uniB057" unicode="&#xb057;" 
d="M1864 754h-1794v82h618q42 182 62 352q25 213 32 366h-546v82h645q-9 -213 -37 -430q-25 -206 -64 -370h715q40 173 61 352q26 228 33 366h-618v82h717q-9 -213 -37 -430q-25 -206 -64 -370h277v-82zM1759 -61l-51 -84q-155 22 -315 90.5t-293 171.5q-80 62 -142 133
q-72 -96 -186 -180q-123 -90 -273 -149.5t-294 -78.5l-47 80q119 17 231.5 53.5t212.5 93t177.5 127.5t128 161.5t63.5 189.5h106q-8 -119 -76 -232q47 -52 136 -120q129 -97 292.5 -166t329.5 -90z" />
    <glyph glyph-name="uniB059" unicode="&#xb059;" 
d="M975 -227q-264 0 -427 122.5t-163 299.5t163 299t427 122t427 -122t163 -299t-163 -299.5t-427 -122.5zM975 -147q228 0 359.5 98.5t131.5 243.5t-131.5 243.5t-359.5 98.5t-360 -99t-132 -243t132 -243t360 -99zM1864 840h-1794v80h630q33 158 50 284q25 210 32 352
h-546v80h645q-12 -321 -66 -596q-7 -51 -22 -120h714q30 144 49 284q26 225 33 352h-618v80h717q-12 -321 -66 -596q-5 -38 -23 -120h265v-80z" />
    <glyph glyph-name="uniB05D" unicode="&#xb05d;" 
d="M373 -55h1323v-82h-1422v790h1381v-80h-1282v-270h1261v-78h-1261v-280zM1864 895h-1794v80h632q34 147 50 268q21 152 30 313h-546v80h645q-8 -176 -35 -374q-17 -128 -51 -287h714q34 147 50 268q21 152 30 313h-618v80h717q-8 -176 -35 -374q-17 -128 -51 -287h262
v-80z" />
    <glyph glyph-name="uniB07C" unicode="&#xb07c;" 
d="M1747 -150h-96v1819h96v-1819zM201 1505v82h544q8 -816 -563 -1360l-73 56q255 230 392 543.5t148 678.5h-448zM819 1505v82h520q12 -949 -546 -1491l-76 56q135 124 236 281t162.5 332t92.5 358.5t35 381.5h-424z" />
    <glyph glyph-name="uniB07D" unicode="&#xb07d;" 
d="M1640 573v1096h97v-1096h-97zM1733 -158h-99v527h-1302v82h1401v-609zM209 1524v82h532q2 -158 -40.5 -300.5t-122 -257t-182.5 -206t-230 -160.5l-68 61q247 122 391 329.5t156 451.5h-436zM811 1524v82h504q0 -686 -539 -1014l-67 59q242 138 370.5 364t139.5 509h-408
z" />
    <glyph glyph-name="uniB080" unicode="&#xb080;" 
d="M1640 313v1356h97v-1356h-97zM401 436h99v-483h1288v-82h-1387v565zM209 1524v82h532q2 -161 -40.5 -306.5t-122 -262.5t-182.5 -210t-230 -165l-68 61q251 130 391 340q141 211 156 461h-436zM811 1524v82h504q0 -368 -140.5 -640t-398.5 -436l-67 60q122 72 217.5 175
t157 225t95.5 256t40 278h-408z" />
    <glyph glyph-name="uniB084" unicode="&#xb084;" 
d="M1733 203h-1241v-258h1282v-82h-1381v418h1241v245h-1241v80h1340v-403zM1737 1669v-948h-97v948h97zM209 1526v80h532q0 -281 -157.5 -488.5t-419.5 -318.5l-66 65q250 100 389.5 276t157.5 386h-436zM811 1526v80h504q0 -314 -142.5 -536.5t-398.5 -354.5l-65 63
q241 118 368.5 312t141.5 436h-408z" />
    <glyph glyph-name="uniB08C" unicode="&#xb08c;" 
d="M1640 635v1034h97v-1034h-97zM393 512h1340v-649h-1340v649zM1634 432h-1142v-487h1142v487zM209 1524v82h532q2 -122 -26.5 -235.5t-80 -206t-125.5 -175.5t-158.5 -147.5t-184.5 -118.5l-68 61q243 119 389 315.5t158 424.5h-436zM811 1524v82h504q0 -649 -539 -973
l-67 59q243 138 371 349.5t139 482.5h-408z" />
    <glyph glyph-name="uniB08D" unicode="&#xb08d;" 
d="M1640 715v954h97v-954h-97zM1634 600h99v-737h-1340v737h99v-235h1142v235zM492 -55h1142v340h-1142v-340zM209 1526v80h532q0 -144 -43 -274t-121 -233t-182 -184t-231 -137l-66 66q166 66 288 177.5t184.5 239t74.5 265.5h-436zM811 1526v80h504q0 -320 -143 -550
t-398 -366l-65 64q239 120 368.5 322t141.5 450h-408z" />
    <glyph glyph-name="uniB08F" unicode="&#xb08f;" 
d="M369 -160l-56 80q189 39 355.5 125.5t284.5 217t145 276.5h106q-17 -110 -80 -211q121 -133 295 -234q182 -102 400 -155l-50 -86q-146 38 -295 112t-268 172q-74 61 -125 127q-71 -89 -166 -166q-235 -185 -546 -258zM811 1524v82h504q0 -686 -539 -1014l-67 59
q242 138 370.5 364t139.5 509h-408zM209 1524v82h532q2 -158 -40.5 -300.5t-122 -257t-182.5 -206t-230 -160.5l-68 61q247 122 391 329.5t156 451.5h-436zM1640 434v1235h97v-1235h-97z" />
    <glyph glyph-name="uniB091" unicode="&#xb091;" 
d="M1640 641v1028h97v-1028h-97zM1167 -186q-256 0 -410.5 119t-154.5 294q0 85 39.5 160.5t111 131.5t179 89t235.5 33q256 0 411 -119.5t155 -294.5t-155 -294t-411 -119zM1167 -106q217 0 342 96t125 237q0 142 -125 238t-342 96t-342 -96t-125 -238q0 -141 125 -237
t342 -96zM209 1524v82h532q0 -144 -43 -274t-121 -233t-182 -184t-231 -137l-66 66q248 99 388.5 283t158.5 397h-436zM811 1524v82h504q0 -320 -143 -550t-398 -366l-65 64q239 120 368.5 322t141.5 448h-408z" />
    <glyph glyph-name="uniB098" unicode="&#xb098;" 
d="M182 1608h99v-1321l1060 55v-80l-1159 -65v1411zM1583 -150h-98v1819h98v-678h318v-82h-318v-1059z" />
    <glyph glyph-name="uniB099" unicode="&#xb099;" 
d="M172 1626h98v-817l1102 47v-82l-1200 -57v909zM1626 -158h-98v543h-1262v82h1360v-625zM1898 1237v-82h-268v-565h-98v1079h98v-432h268z" />
    <glyph glyph-name="uniB09A" unicode="&#xb09a;" 
d="M172 1626h98v-817l1102 47v-82l-1200 -57v909zM1898 1237v-82h-268v-565h-98v1079h98v-432h268zM903 -158h-96v543h-561v82h657v-625zM1626 -158h-96v543h-529v82h625v-625z" />
    <glyph glyph-name="uniB09C" unicode="&#xb09c;" 
d="M172 1626h98v-838l1102 48v-82l-1200 -58v930zM336 453h98v-500h1256v-82h-1354v582zM1898 1217v-82h-268v-805h-98v1339h98v-452h268z" />
    <glyph glyph-name="uniB09F" unicode="&#xb09f;" 
d="M328 508h1298v-80h-1200v-483h1245v-82h-1343v645zM172 1626h98v-776l1102 47v-82l-1200 -57v868zM1898 1257v-81h-268v-545h-98v1038h98v-412h268z" />
    <glyph glyph-name="uniB0A0" unicode="&#xb0a0;" 
d="M172 1626h98v-713l1102 48v-80l-1200 -58v803zM1898 1309v-82h-268v-490h-98v932h98v-360h268zM1626 211h-1200v-266h1241v-82h-1339v426h1200v254h-1200v80h1298v-412z" />
    <glyph glyph-name="uniB0A1" unicode="&#xb0a1;" 
d="M172 1626h98v-713l1102 48v-80l-1200 -58v803zM1898 1309v-82h-268v-490h-98v932h98v-360h268zM270 289h555v254h-555v80h652v-412h-555v-272l731 24v-80l-828 -33v439zM1626 -158h-98v701h-492v80h590v-781z" />
    <glyph glyph-name="uniB0A2" unicode="&#xb0a2;" 
d="M172 1626h98v-713l1102 48v-80l-1200 -58v803zM1898 1309v-82h-268v-490h-98v932h98v-360h268zM270 289h529v254h-529v80h625v-412h-528v-272l569 24v-80l-666 -33v439zM1026 623h600v-760h-600v760zM1532 543h-412v-600h412v600z" />
    <glyph glyph-name="uniB0A8" unicode="&#xb0a8;" 
d="M328 528h1298v-665h-1298v665zM1528 449h-1102v-504h1102v504zM172 1626h98v-756l1102 48v-82l-1200 -58v848zM1898 1268v-82h-268v-535h-98v1018h98v-401h268z" />
    <glyph glyph-name="uniB0A9" unicode="&#xb0a9;" 
d="M1528 596h98v-733h-1298v733h98v-234h1102v234zM426 -55h1102v338h-1102v-338zM172 1626h98v-737l1102 47v-80l-1200 -57v827zM1898 1288v-82h-268v-495h-98v958h98v-381h268z" />
    <glyph glyph-name="uniB0AB" unicode="&#xb0ab;" 
d="M172 1626h98v-817l1102 47v-82l-1200 -57v909zM297 -160l-55 80q188 39 355 125.5t284.5 217t144.5 276.5h107q-17 -110 -80 -211q121 -133 295 -234q183 -103 399 -155l-49 -86q-146 38 -295 112t-268 172q-74 61 -125 127q-71 -89 -166 -166q-234 -184 -547 -258z
M1532 453v1216h98v-452h268v-82h-268v-682h-98z" />
    <glyph glyph-name="uniB0AC" unicode="&#xb0ac;" 
d="M1843 -57l-57 -80q-209 87 -385 282q-36 41 -58 72q-46 -78 -75 -113q-142 -175 -361 -284l-55 61q98 51 178 111q-32 14 -78 45q-110 72 -200 168q-12 12 -52 57q-48 -74 -100 -129q-155 -165 -385 -256l-53 68q224 83 370 239.5t170 347.5h99q-12 -111 -64 -204
q21 -29 62 -70q95 -92 202 -154q69 -39 101 -53q44 39 92 101q136 174 162 380h98q-15 -120 -65 -229l-7 -14q69 -101 177 -185q118 -96 284 -161zM172 1626h98v-776l1102 47v-82l-1200 -57v868zM1898 1257v-81h-268v-525h-98v1018h98v-412h268z" />
    <glyph glyph-name="uniB0AD" unicode="&#xb0ad;" 
d="M1090 -186q-170 0 -300.5 58t-198 153.5t-67.5 210.5q0 177 155.5 299t410.5 122t410 -121.5t155 -299.5q0 -86 -39.5 -162.5t-111 -134.5t-179 -91.5t-235.5 -33.5zM1090 -106q217 0 341.5 98.5t124.5 243.5t-124.5 243.5t-341.5 98.5t-342 -98.5t-125 -243.5
t125 -243.5t342 -98.5zM172 1626h98v-737l1102 47v-80l-1200 -57v827zM1532 657v1012h98v-381h268v-82h-268v-549h-98z" />
    <glyph glyph-name="uniB0AE" unicode="&#xb0ae;" 
d="M1751 -66l-53 -81q-153 28 -306 92.5t-278 156.5q-89 68 -137 121q-76 -92 -178 -160q-225 -159 -537 -223l-57 76q218 36 403 133.5t291 226.5q66 81 88 173h-680v79h1340v-79h-551q-22 -89 -72 -162q68 -68 131 -113q124 -87 278.5 -150t317.5 -90zM172 1626h98v-756
l1102 48v-82l-1200 -58v848zM1898 1268v-82h-268v-535h-98v1018h98v-401h268z" />
    <glyph glyph-name="uniB0AF" unicode="&#xb0af;" 
d="M1792 -72l-49 -80q-146 12 -307 63.5t-301 129.5q-93 52 -156 109q-93 -86 -186 -138q-234 -133 -521 -172l-47 76q214 28 397.5 105.5t295.5 191.5q48 48 77 111h-669v79h1360v-79h-584q-24 -65 -70 -117q51 -46 139 -94q130 -73 293 -121.5t328 -63.5zM172 1626h98
v-692l1102 47v-80l-1200 -57v782zM1898 1309v-82h-268v-531h-98v973h98v-360h268zM1374 649v-80h-737v80h737z" />
    <glyph glyph-name="uniB0B1" unicode="&#xb0b1;" 
d="M172 1626h98v-713l1102 48v-80l-1200 -58v803zM1898 1309v-82h-268v-490h-98v932h98v-360h268zM426 -55h1241v-82h-1339v760h1298v-80h-1200v-254h1180v-78h-1180v-266z" />
    <glyph glyph-name="uniB0B3" unicode="&#xb0b3;" 
d="M172 1626h98v-672l1102 47v-79l-1200 -58v762zM1898 1309v-82h-268v-531h-98v973h98v-360h268zM1343 666v-78h-737v78h737zM979 -207q-253 0 -400 92.5t-147 237.5q0 93 68 158.5t164 93.5h-392v78h1414v-78h-392q96 -28 164 -93.5t68 -158.5q0 -145 -147 -237.5
t-400 -92.5zM979 -129q205 0 326.5 72t121.5 180q0 111 -120.5 181.5t-327.5 70.5t-328 -70.5t-121 -181.5q0 -108 122 -180t327 -72z" />
    <glyph glyph-name="uniB0B4" unicode="&#xb0b4;" 
d="M1735 1669v-1816h-97v1026h-370v-981h-97v1751h97v-688h370v708h97zM201 1595h96v-1308l741 39v-80l-837 -49v1398z" />
    <glyph glyph-name="uniB0B5" unicode="&#xb0b5;" 
d="M178 1622h96v-825l764 34v-81l-860 -45v917zM1733 1669v-1079h-97v569h-366v-569h-96v1063h96v-414h366v430h97zM1729 -158h-99v543h-1302v82h1401v-625z" />
    <glyph glyph-name="uniB0B8" unicode="&#xb0b8;" 
d="M178 1622h96v-846l764 35v-82l-860 -45v938zM1733 1669v-1358h-97v828h-366v-779h-96v1293h96v-434h366v450h97zM397 453h99v-500h1284v-82h-1383v582z" />
    <glyph glyph-name="uniB0BC" unicode="&#xb0bc;" 
d="M1733 1669v-932h-97v473h-366v-473h-96v916h96v-363h366v379h97zM1729 211h-1242v-266h1282v-82h-1380v426h1241v254h-1241v80h1340v-412zM178 1622h96v-721l764 35v-80l-860 -45v811z" />
    <glyph glyph-name="uniB0C4" unicode="&#xb0c4;" 
d="M178 1622h96v-764l764 35v-82l-860 -45v856zM1733 1669v-1018h-97v539h-366v-539h-96v1002h96v-383h366v399h97zM387 528h1339v-665h-1339v665zM1630 449h-1143v-504h1143v504z" />
    <glyph glyph-name="uniB0C5" unicode="&#xb0c5;" 
d="M178 1622h96v-745l764 34v-80l-860 -45v836zM1733 1669v-967h-97v498h-366v-498h-96v951h96v-373h366v389h97zM1630 588h99v-725h-1340v725h98v-230h1143v230zM487 -55h1143v334h-1143v-334z" />
    <glyph glyph-name="uniB0C7" unicode="&#xb0c7;" 
d="M1733 1669v-1223h-97v713h-366v-528h-96v1022h96v-414h366v430h97zM317 -160l-55 80q189 39 355.5 125.5t284.5 217t145 276.5h106q-17 -110 -80 -211q121 -133 295 -234q183 -103 399 -155l-49 -86q-146 38 -295 112t-268 172q-74 61 -125 127q-71 -89 -166 -166
q-234 -184 -547 -258zM178 1622h96v-825l764 34v-81l-860 -45v917z" />
    <glyph glyph-name="uniB0C8" unicode="&#xb0c8;" 
d="M1876 -57l-57 -80q-209 87 -385 282q-36 41 -58 72q-44 -74 -76 -113q-143 -176 -360 -284l-55 61q98 51 178 111q-31 14 -78 45q-112 73 -201 168q-3 3 -51 57q-48 -74 -100 -129q-155 -165 -385 -256l-53 68q224 83 370 239.5t170 347.5h99q-12 -111 -64 -204
q23 -32 61 -70q94 -90 203 -154q69 -39 101 -53q44 39 92 101q136 174 162 380h98q-15 -117 -66 -229l-6 -14q71 -102 176 -185q117 -95 285 -161zM1733 1669v-1018h-97v529h-366v-529h-96v1002h96v-393h366v409h97zM178 1622h96v-784l764 34v-81l-860 -46v877z" />
    <glyph glyph-name="uniB0C9" unicode="&#xb0c9;" 
d="M178 1622h96v-745l764 34v-80l-860 -45v836zM1733 1669v-1012h-97v543h-366v-461h-96v914h96v-373h366v389h97zM1147 -186q-256 0 -410.5 119.5t-154.5 297.5t154.5 298t410.5 120t410.5 -120t154.5 -298t-154.5 -297.5t-410.5 -119.5zM1147 -106q218 0 342.5 96
t124.5 241t-124.5 241.5t-342.5 96.5t-342.5 -96.5t-124.5 -241.5t124.5 -241t342.5 -96z" />
    <glyph glyph-name="uniB0D0" unicode="&#xb0d0;" 
d="M182 1608h99v-1321l1060 55v-80l-1159 -65v1411zM1583 -150h-98v1819h98v-371h318v-81h-318v-533h318v-82h-318v-752z" />
    <glyph glyph-name="uniB0D1" unicode="&#xb0d1;" 
d="M172 1626h98v-817l1102 47v-82l-1200 -57v909zM1626 -158h-98v543h-1262v82h1360v-625zM1898 1014v-82h-268v-342h-98v1079h98v-248h268v-82h-268v-325h268z" />
    <glyph glyph-name="uniB0D4" unicode="&#xb0d4;" 
d="M172 1626h98v-838l1102 48v-82l-1200 -58v930zM1898 973v-82h-268v-561h-98v1339h98v-268h268v-82h-268v-346h268zM336 453h98v-500h1256v-82h-1354v582z" />
    <glyph glyph-name="uniB0D8" unicode="&#xb0d8;" 
d="M1626 211h-1200v-266h1241v-82h-1339v426h1200v254h-1200v80h1298v-412zM172 1626h98v-713l1102 48v-80l-1200 -58v803zM1898 1126v-82h-268v-307h-98v932h98v-186h268v-82h-268v-275h268z" />
    <glyph glyph-name="uniB0E0" unicode="&#xb0e0;" 
d="M328 528h1298v-665h-1298v665zM1528 449h-1102v-504h1102v504zM172 1626h98v-756l1102 48v-82l-1200 -58v848zM1898 1075v-82h-268v-342h-98v1018h98v-207h268v-82h-268v-305h268z" />
    <glyph glyph-name="uniB0E5" unicode="&#xb0e5;" 
d="M1090 -186q-170 0 -300.5 58t-198 153.5t-67.5 210.5q0 177 155.5 299t410.5 122t410 -121.5t155 -299.5q0 -86 -39.5 -162.5t-111 -134.5t-179 -91.5t-235.5 -33.5zM1090 -106q217 0 341.5 98.5t124.5 243.5t-124.5 243.5t-341.5 98.5t-342 -98.5t-125 -243.5
t125 -243.5t342 -98.5zM172 1626h98v-737l1102 47v-80l-1200 -57v827zM1898 1096v-82h-268v-357h-98v1012h98v-207h268v-82h-268v-284h268z" />
    <glyph glyph-name="uniB108" unicode="&#xb108;" 
d="M948 991v82h639v596h99v-1819h-99v1141h-639zM223 1608h99v-1321l1028 55v-80l-1127 -65v1411z" />
    <glyph glyph-name="uniB109" unicode="&#xb109;" 
d="M205 1626h98v-838l1081 48v-82l-1179 -58v930zM1692 -158h-99v543h-1282v82h1381v-625zM1597 590v624h-651v82h651v373h99v-1079h-99z" />
    <glyph glyph-name="uniB10B" unicode="&#xb10b;" 
d="M205 1626h98v-797l1081 48v-82l-1179 -58v889zM1597 631v604h-651v82h651v352h99v-1038h-99zM1878 -72l-63 -80q-176 79 -332 269q-25 29 -60 82q-7 -14 -47 -76q-121 -179 -293 -281l-63 68q164 82 276.5 257.5t124.5 369.5h99q-3 -116 -43 -220q-7 -20 -15 -34
q70 -122 174 -207q114 -97 242 -148zM985 -156h-92v598h-602v80h694v-678z" />
    <glyph glyph-name="uniB10C" unicode="&#xb10c;" 
d="M205 1626h98v-866l1081 47v-82l-1179 -57v958zM1597 334v874h-651v82h651v379h99v-1335h-99zM381 453h98v-500h1268v-82h-1366v582z" />
    <glyph glyph-name="uniB110" unicode="&#xb110;" 
d="M1692 211h-1221v-266h1262v-82h-1360v426h1220v254h-1220v80h1319v-412zM205 1626h98v-741l1081 47v-80l-1179 -57v831zM1597 737v523h-651v79h651v330h99v-932h-99z" />
    <glyph glyph-name="uniB112" unicode="&#xb112;" 
d="M1081 623h611v-760h-611v760zM1597 543h-421v-600h421v600zM315 289h539v254h-539v80h635v-412h-538v-272l579 24v-80l-676 -33v439zM205 1626h98v-741l1081 47v-80l-1179 -57v831zM1597 737v523h-651v79h651v330h99v-932h-99z" />
    <glyph glyph-name="uniB113" unicode="&#xb113;" 
d="M1597 623h95v-760h-623v760h94v-263h434v263zM315 289h527v254h-527v80h623v-412h-526v-272l567 24v-80l-664 -33v439zM205 1626h98v-741l1081 47v-80l-1179 -57v831zM1163 -57h434v340h-434v-340zM1597 737v523h-651v79h651v330h99v-932h-99z" />
    <glyph glyph-name="uniB118" unicode="&#xb118;" 
d="M373 528h1319v-665h-1319v665zM1593 449h-1122v-504h1122v504zM205 1626h98v-776l1081 47v-82l-1179 -57v868zM1597 651v594h-651v82h651v342h99v-1018h-99z" />
    <glyph glyph-name="uniB119" unicode="&#xb119;" 
d="M1593 596h99v-733h-1319v733h98v-234h1122v234zM471 -55h1122v338h-1122v-338zM205 1626h98v-762l1081 47v-80l-1179 -57v852zM1597 711v538h-651v80h651v340h99v-958h-99z" />
    <glyph glyph-name="uniB11B" unicode="&#xb11b;" 
d="M205 1626h98v-838l1081 48v-82l-1179 -58v930zM328 -160l-56 80q189 39 355.5 125.5t284.5 217t145 276.5h106q-17 -110 -80 -211q121 -133 295 -234q182 -102 400 -155l-49 -86q-146 38 -295.5 112t-268.5 172q-74 61 -125 127q-71 -89 -166 -166q-235 -185 -546 -258z
M1597 455v759h-651v82h651v373h99v-1214h-99z" />
    <glyph glyph-name="uniB11C" unicode="&#xb11c;" 
d="M1884 -57l-57 -80q-209 87 -385 282q-36 41 -58 72q-46 -78 -75 -113q-142 -175 -361 -284l-55 61q98 51 178 111q-31 14 -78 45q-110 72 -200 168q-12 12 -52 57q-48 -74 -100 -129q-155 -165 -385 -256l-53 68q224 83 370 239.5t170 347.5h99q-12 -111 -64 -204
q21 -29 62 -70q95 -92 202 -154q69 -39 101 -53q44 39 92 101q136 174 162 380h98q-15 -120 -65 -229l-7 -14q71 -102 176 -185q117 -95 285 -161zM205 1626h98v-797l1081 48v-82l-1179 -58v889zM1597 651v584h-651v82h651v352h99v-1018h-99z" />
    <glyph glyph-name="uniB11D" unicode="&#xb11d;" 
d="M1126 -186q-128 0 -235.5 33.5t-179 91.5t-111 134.5t-39.5 162.5q0 178 155 299.5t410 121.5t410.5 -122t155.5 -299q0 -115 -67.5 -210.5t-198 -153.5t-300.5 -58zM1126 -106q217 0 342 98.5t125 243.5t-125 243.5t-342 98.5t-342 -98.5t-125 -243.5t125 -243.5
t342 -98.5zM205 1626h98v-762l1081 47v-80l-1179 -57v852zM1597 657v592h-651v80h651v340h99v-1012h-99z" />
    <glyph glyph-name="uniB123" unicode="&#xb123;" 
d="M1034 -207q-258 0 -407.5 91.5t-149.5 236.5q0 92 69 157t167 93h-396v78h1434v-78h-395q97 -28 166 -92.5t69 -157.5q0 -145 -149.5 -236.5t-407.5 -91.5zM1034 -129q210 0 334.5 71.5t124.5 178.5q0 111 -123 180.5t-336 69.5t-336 -69.5t-123 -180.5
q0 -107 124.5 -178.5t334.5 -71.5zM205 1626h98v-700l1081 47v-80l-1179 -57v790zM1597 696v584h-651v80h651v309h99v-973h-99zM1430 666v-78h-779v78h779z" />
    <glyph glyph-name="uniB124" unicode="&#xb124;" 
d="M723 952v82h500v615h96v-1751h-96v1054h-500zM201 1595h96v-1308l752 39v-80l-848 -49v1398zM1638 1669h97v-1816h-97v1816z" />
    <glyph glyph-name="uniB125" unicode="&#xb125;" 
d="M1729 -158h-99v543h-1302v82h1401v-625zM178 1622h96v-846l775 35v-82l-871 -45v938zM1311 1653v-1063h-97v590h-481v82h481v391h97zM1636 590v1079h97v-1079h-97z" />
    <glyph glyph-name="uniB128" unicode="&#xb128;" 
d="M1311 1653v-1293h-97v799h-481v82h481v412h97zM397 453h99v-500h1284v-82h-1383v582zM178 1622h96v-866l775 35v-82l-871 -45v958zM1636 311v1358h97v-1358h-97z" />
    <glyph glyph-name="uniB12C" unicode="&#xb12c;" 
d="M1729 211h-1242v-266h1282v-82h-1380v426h1241v254h-1241v80h1340v-412zM178 1622h96v-741l775 34v-79l-871 -45v831zM1311 1653v-916h-97v504h-481v82h481v330h97zM1636 737v932h97v-932h-97z" />
    <glyph glyph-name="uniB134" unicode="&#xb134;" 
d="M389 528h1340v-665h-1340v665zM1630 449h-1143v-504h1143v504zM178 1622h96v-784l775 34v-81l-871 -46v877zM1311 1653v-1002h-97v559h-481v82h481v361h97zM1636 651v1018h97v-1018h-97z" />
    <glyph glyph-name="uniB135" unicode="&#xb135;" 
d="M1630 588h99v-725h-1340v725h98v-230h1143v230zM487 -55h1143v334h-1143v-334zM178 1622h96v-766l775 35v-80l-871 -45v856zM1311 1653v-951h-97v529h-481v82h481v340h97zM1636 702v967h97v-967h-97z" />
    <glyph glyph-name="uniB137" unicode="&#xb137;" 
d="M317 -160l-55 80q189 39 355.5 125.5t284.5 217t145 276.5h106q-17 -110 -80 -211q121 -133 295 -234q183 -103 399 -155l-49 -86q-146 38 -295 112t-268 172q-74 61 -125 127q-71 -89 -166 -166q-234 -184 -547 -258zM178 1622h96v-846l775 35v-82l-871 -45v938z
M1311 631h-97v559h-481v82h481v381h97v-1022zM1636 446v1223h97v-1223h-97z" />
    <glyph glyph-name="uniB138" unicode="&#xb138;" 
d="M1876 -57l-57 -80q-209 87 -385 282q-36 41 -58 72q-44 -74 -76 -113q-143 -176 -360 -284l-55 61q98 51 178 111q-31 14 -78 45q-112 73 -201 168q-3 3 -51 57q-48 -74 -100 -129q-155 -165 -385 -256l-53 68q224 83 370 239.5t170 347.5h99q-12 -111 -64 -204
q23 -32 61 -70q94 -90 203 -154q69 -39 101 -53q44 39 92 101q136 174 162 380h98q-15 -117 -66 -229l-6 -14q71 -102 176 -185q117 -95 285 -161zM178 1622h96v-805l775 35v-82l-871 -45v897zM1311 651h-97v549h-481v82h481v371h97v-1002zM1636 651v1018h97v-1018h-97z" />
    <glyph glyph-name="uniB139" unicode="&#xb139;" 
d="M1147 -186q-256 0 -410.5 119.5t-154.5 297.5t154.5 298t410.5 120t410.5 -120t154.5 -298t-154.5 -297.5t-410.5 -119.5zM1147 -106q218 0 342.5 96t124.5 241t-124.5 241.5t-342.5 96.5t-342.5 -96.5t-124.5 -241.5t124.5 -241t342.5 -96zM178 1622h96v-766l775 35v-80
l-871 -45v856zM1311 739h-97v492h-481v82h481v340h97v-914zM1636 657v1012h97v-1012h-97z" />
    <glyph glyph-name="uniB140" unicode="&#xb140;" 
d="M948 1235v80h639v354h99v-1819h-99v893h-639v80h639v412h-639zM223 1608h99v-1321l1028 55v-80l-1127 -65v1411z" />
    <glyph glyph-name="uniB141" unicode="&#xb141;" 
d="M1597 569v475h-630v82h630v271h-630v82h630v190h99v-1100h-99zM205 1626h98v-858l1081 47v-82l-1179 -57v950zM1692 -158h-99v523h-1282v81h1381v-604z" />
    <glyph glyph-name="uniB144" unicode="&#xb144;" 
d="M1597 313v711h-630v82h630v270h-630v82h630v211h99v-1356h-99zM205 1626h98v-887l1081 47v-81l-1179 -58v979zM381 432h98v-479h1268v-82h-1366v561z" />
    <glyph glyph-name="uniB148" unicode="&#xb148;" 
d="M1692 201h-1221v-256h1262v-82h-1360v416h1220v243h-1220v80h1319v-401zM1597 717v411h-630v80h630v232h-630v80h630v149h99v-952h-99zM205 1626h98v-762l1081 47v-80l-1179 -57v852z" />
    <glyph glyph-name="uniB150" unicode="&#xb150;" 
d="M373 508h1319v-645h-1319v645zM1593 428h-1122v-483h1122v483zM1597 631v454h-630v82h630v250h-630v82h630v170h99v-1038h-99zM205 1626h98v-797l1081 48v-82l-1179 -58v889z" />
    <glyph glyph-name="uniB151" unicode="&#xb151;" 
d="M1593 575h99v-712h-1319v712h98v-223h1122v223zM471 -55h1122v327h-1122v-327zM1597 690v418h-630v80h630v252h-630v80h630v149h99v-979h-99zM205 1626h98v-782l1081 47v-80l-1179 -57v872z" />
    <glyph glyph-name="uniB154" unicode="&#xb154;" 
d="M1884 -57l-57 -80q-209 87 -385 282q-36 41 -58 72q-46 -78 -75 -113q-142 -175 -361 -284l-55 61q98 51 178 111q-31 14 -78 45q-110 72 -200 168q-12 12 -52 57q-48 -74 -100 -129q-155 -165 -385 -256l-53 68q224 83 370 239.5t170 347.5h99q-12 -111 -64 -204
q21 -29 62 -70q95 -92 202 -154q69 -39 101 -53q44 39 92 101q136 174 162 380h98q-15 -120 -65 -229l-7 -14q71 -102 176 -185q117 -95 285 -161zM1597 651v424h-630v82h630v260h-630v82h630v170h99v-1018h-99zM205 1626h98v-817l1081 47v-82l-1179 -57v909z" />
    <glyph glyph-name="uniB155" unicode="&#xb155;" 
d="M1126 -186q-255 0 -410 119.5t-155 295.5t155 296t410 120t410.5 -120t155.5 -296q0 -85 -39.5 -160.5t-111.5 -132t-179.5 -89.5t-235.5 -33zM1126 -106q218 0 342.5 96t124.5 239q0 67 -31 127.5t-89 107t-147.5 74t-199.5 27.5t-199.5 -27.5t-147.5 -74t-89 -107
t-31 -127.5q0 -143 124.5 -239t342.5 -96zM1597 645v463h-630v80h630v252h-630v80h630v149h99v-1024h-99zM205 1626h98v-782l1081 47v-80l-1179 -57v872z" />
    <glyph glyph-name="uniB158" unicode="&#xb158;" 
d="M1692 -158h-99v271l-1241 -29v82l1241 24v240h-1282v82h1381v-670zM1597 631v454h-630v82h630v250h-630v82h630v170h99v-1038h-99zM205 1626h98v-797l1081 48v-82l-1179 -58v889z" />
    <glyph glyph-name="uniB15C" unicode="&#xb15c;" 
d="M752 1206v80h479v363h96v-1751h-96v817h-479v80h479v411h-479zM201 1595h96v-1308l752 39v-80l-848 -49v1398zM1638 1669h97v-1816h-97v1816z" />
    <glyph glyph-name="uniB160" unicode="&#xb160;" 
d="M1319 1653v-1313h-96v666h-449v81h449v267h-449v82h449v217h96zM397 432h99v-479h1284v-82h-1383v561zM178 1622h96v-887l775 35v-82l-871 -45v979zM1636 291v1378h97v-1378h-97z" />
    <glyph glyph-name="uniB178" unicode="&#xb178;" 
d="M1864 39h-1794v82h858v549h-641v938h98v-854h1323v-84h-682v-549h838v-82z" />
    <glyph glyph-name="uniB179" unicode="&#xb179;" 
d="M1864 678h-1794v82h858v299h-641v598h98v-514h1282v-84h-641v-299h838v-82zM1655 -158h-99v504h-1323v82h1422v-586z" />
    <glyph glyph-name="uniB17C" unicode="&#xb17c;" 
d="M1864 608h-1794v82h858v328h-641v639h98v-557h1282v-82h-641v-328h838v-82zM283 416h98v-463h1337v-82h-1435v545z" />
    <glyph glyph-name="uniB180" unicode="&#xb180;" 
d="M1655 188h-1282v-243h1323v-82h-1422v403h1282v234h-1282v80h1381v-392zM1864 797h-1794v80h858v247h-641v533h98v-453h1282v-80h-641v-247h838v-80z" />
    <glyph glyph-name="uniB182" unicode="&#xb182;" 
d="M1034 580h633v-717h-633v717zM1864 797h-1794v80h858v247h-641v533h98v-453h1282v-80h-641v-247h838v-80zM1573 500h-445v-557h445v557zM246 266h561v234h-561v80h657v-392h-561v-249l602 24v-80l-698 -33v416z" />
    <glyph glyph-name="uniB188" unicode="&#xb188;" 
d="M274 469h1381v-606h-1381v606zM1556 389h-1183v-444h1183v444zM1864 707h-1794v81h858v291h-641v578h98v-496h1282v-82h-641v-291h838v-81z" />
    <glyph glyph-name="uniB189" unicode="&#xb189;" 
d="M1556 551h99v-688h-1381v688h99v-217h1183v217zM373 -55h1183v309h-1183v-309zM1864 743h-1794v82h858v271h-641v561h98v-481h1282v-80h-641v-271h838v-82z" />
    <glyph glyph-name="uniB18B" unicode="&#xb18b;" 
d="M1864 674h-1794v82h858v303h-641v598h98v-516h1282v-82h-641v-303h838v-82zM1759 -61l-51 -84q-157 22 -314 83.5t-290 155.5q-91 64 -148 127q-76 -91 -186 -166q-121 -84 -269.5 -139t-297.5 -74l-45 80q204 28 379 103.5t294 196t140 263.5h106q-12 -106 -73 -200
q61 -64 135 -115q129 -88 291.5 -149t328.5 -82z" />
    <glyph glyph-name="uniB18D" unicode="&#xb18d;" 
d="M975 -227q-264 0 -427 119t-163 292t163 292.5t427 119.5t427 -119.5t163 -292.5t-163 -292t-427 -119zM975 -147q228 0 359.5 95.5t131.5 235.5t-132 236t-359 96q-228 0 -360 -96t-132 -236t132 -235.5t360 -95.5zM1667 1176v-80h-641v-277h838v-80h-1794v80h858v277
h-641v561h98v-481h1282z" />
    <glyph glyph-name="uniB192" unicode="&#xb192;" 
d="M1675 469v-80h-268l-14 -444h323v-82h-1503v82h330l-15 444h-274v80h1421zM1864 707h-1794v81h858v291h-641v578h98v-496h1282v-82h-641v-291h838v-81zM627 389l14 -444h653l15 444h-682z" />
    <glyph glyph-name="uniB193" unicode="&#xb193;" 
d="M971 -233q-260 0 -418 87t-158 234q0 85 63.5 149.5t159.5 88.5h-411v80h1528v-80h-412q96 -24 159.5 -88.5t63.5 -149.5q0 -147 -157.5 -234t-417.5 -87zM971 -154q225 0 351 68t126 174t-125.5 172t-351.5 66t-351.5 -66t-125.5 -172t126 -174t351 -68zM1864 817h-1794
v80h858v248h-641v512h98v-432h1282v-80h-641v-248h838v-80zM1362 627v-80h-782v80h782z" />
    <glyph glyph-name="uniB194" unicode="&#xb194;" 
d="M1300 809v-82h-499v-471l622 8v-82l-1355 -20v86l634 6v473h-503v881h98v-799h1003zM1624 -150h-98v1819h98v-760h285v-82h-285v-977z" />
    <glyph glyph-name="uniB198" unicode="&#xb198;" 
d="M1286 1087v-81h-487v-324l637 8v-82l-1370 -20v86l634 6v326h-491v639h98v-558h979zM307 408h99v-443h1288v-82h-1387v525zM1636 297h-98v1372h98v-575h262v-82h-262v-715z" />
    <glyph glyph-name="uniB19C" unicode="&#xb19c;" 
d="M1632 197h-1235v-252h1278v-82h-1376v411h1235v238h-1235v80h1333v-395zM1286 1196v-80h-487v-242l637 9v-80l-1370 -21v84l634 6v244h-491v529h98v-449h979zM1636 694h-98v975h98v-452h262v-82h-262v-441z" />
    <glyph glyph-name="uniB1A8" unicode="&#xb1a8;" 
d="M1286 1116v-82h-487v-270l637 8v-82l-1370 -20v86l634 6v272h-491v611h98v-529h979zM1837 -68l-55 -77q-99 37 -200 105t-185 155q-39 43 -68 84q-37 -61 -84 -117q-74 -88 -169.5 -158t-194.5 -108l-58 63q106 43 183 98l-70 35q-122 76 -207 166q-42 48 -53 64
q-53 -82 -113 -142q-165 -170 -377 -233l-55 67q213 65 359.5 217t179.5 334h98q-16 -95 -55 -174q21 -32 61 -75q82 -84 211 -154q61 -29 98 -43q41 38 86 90q138 171 162 356h101q-12 -104 -62 -211l-4 -6q31 -47 80 -96q169 -163 391 -240zM1636 584h-98v1085h98v-483
h262v-82h-262v-520z" />
    <glyph glyph-name="uniB1CC" unicode="&#xb1cc;" 
d="M1395 809v-82h-510v-471l633 8v-82l-1397 -20v86l665 8v471h-514v881h99v-799h1024zM1718 -150h-98v1819h98v-1819z" />
    <glyph glyph-name="uniB1D0" unicode="&#xb1d0;" 
d="M1380 1087v-81h-497v-324l647 8v-82l-1411 -20v86l665 8v324h-501v639h98v-558h999zM377 408h98v-441h1297v-82h-1395v523zM1731 297h-99v1372h99v-1372z" />
    <glyph glyph-name="uniB1D4" unicode="&#xb1d4;" 
d="M1726 197h-1255v-252h1298v-82h-1396v411h1255v238h-1255v80h1353v-395zM1380 1196v-80h-497v-242l647 9v-80l-1411 -21v84l665 8v242h-501v529h98v-449h999zM1731 694h-99v975h99v-975z" />
    <glyph glyph-name="uniB1DC" unicode="&#xb1dc;" 
d="M373 469h1353v-606h-1353v606zM1628 389h-1157v-444h1157v444zM1530 715l-1411 -21v84l665 8v281h-501v578h98v-496h999v-82h-497v-281l647 9v-80zM1731 567h-99v1102h99v-1102z" />
    <glyph glyph-name="uniB1DD" unicode="&#xb1dd;" 
d="M1628 563h98v-700h-1353v700h98v-223h1157v223zM471 -55h1157v315h-1157v-315zM1380 1176v-80h-497v-258l647 8v-80l-1411 -21v84l665 9v258h-501v549h98v-469h999zM1731 662h-99v1007h99v-1007z" />
    <glyph glyph-name="uniB1DF" unicode="&#xb1df;" 
d="M1380 1149v-82h-497v-303l647 8v-82l-1411 -20v86l665 8v303h-501v578h98v-496h999zM1841 -61l-51 -84q-155 25 -310.5 91.5t-283.5 164.5q-77 59 -137 131q-73 -94 -176 -168q-121 -87 -267 -148t-290 -84l-45 80q201 33 372.5 116t285 208t134.5 268h107
q-12 -111 -76 -209q61 -67 135 -121q127 -93 282.5 -157t319.5 -88zM1731 420h-99v1249h99v-1249z" />
    <glyph glyph-name="uniB1E8" unicode="&#xb1e8;" 
d="M1864 39h-1794v82h561v549h-344v938h98v-854h1323v-84h-297v-549h453v-82zM729 670v-549h584v549h-584z" />
    <glyph glyph-name="uniB1E9" unicode="&#xb1e9;" 
d="M1864 670h-1794v82h532v307h-315v598h98v-514h1282v-84h-285v-307h482v-82zM700 1059v-307h584v307h-584zM1655 -158h-99v504h-1323v82h1422v-586z" />
    <glyph glyph-name="uniB1EC" unicode="&#xb1ec;" 
d="M1864 600h-1794v82h532v336h-315v639h98v-557h1282v-82h-285v-336h482v-82zM700 1018v-336h584v336h-584zM283 416h98v-463h1337v-82h-1435v545z" />
    <glyph glyph-name="uniB1F0" unicode="&#xb1f0;" 
d="M1864 788h-1794v80h532v256h-315v533h98v-453h1282v-80h-285v-256h482v-80zM1655 188h-1282v-243h1323v-82h-1422v403h1282v234h-1282v80h1381v-392zM700 1124v-256h584v256h-584z" />
    <glyph glyph-name="uniB1F9" unicode="&#xb1f9;" 
d="M1556 551h99v-688h-1381v688h99v-217h1183v217zM1864 735h-1794v82h532v279h-315v561h98v-481h1282v-80h-285v-279h482v-82zM373 -55h1183v309h-1183v-309zM700 1096v-279h584v279h-584z" />
    <glyph glyph-name="uniB1FB" unicode="&#xb1fb;" 
d="M1864 666h-1794v82h532v311h-315v598h98v-516h1282v-82h-285v-311h482v-82zM700 1059v-311h584v311h-584zM1759 -61l-51 -84q-157 22 -314 83.5t-290 155.5q-91 64 -148 127q-76 -91 -186 -166q-121 -84 -269.5 -139t-297.5 -74l-45 80q204 28 379 103.5t294 196
t140 263.5h106q-12 -106 -73 -200q61 -64 135 -115q129 -88 291.5 -149t328.5 -82z" />
    <glyph glyph-name="uniB1FD" unicode="&#xb1fd;" 
d="M975 -227q-264 0 -427 119t-163 292t163 292.5t427 119.5t427 -119.5t163 -292.5t-163 -292t-427 -119zM975 -147q228 0 359.5 95.5t131.5 235.5t-132 236t-359 96q-228 0 -360 -96t-132 -236t132 -235.5t360 -95.5zM1667 1176v-80h-285v-285h482v-80h-1794v80h532v285
h-315v561h98v-481h1282zM700 1096v-285h584v285h-584z" />
    <glyph glyph-name="uniB204" unicode="&#xb204;" 
d="M1016 -150h-98v680h-848v82h1794v-82h-848v-680zM287 1628h98v-645h1323v-84h-1421v729z" />
    <glyph glyph-name="uniB205" unicode="&#xb205;" 
d="M1864 727h-848v-299h639v-586h-99v504h-1323v82h685v299h-848v82h1794v-82zM287 1657h98v-514h1282v-84h-1380v598z" />
    <glyph glyph-name="uniB208" unicode="&#xb208;" 
d="M1036 223h-98v424h-868v82h1794v-82h-828v-424zM1667 1100v-82h-1380v639h98v-557h1282zM283 416h98v-463h1337v-82h-1435v545z" />
    <glyph glyph-name="uniB20B" unicode="&#xb20b;" 
d="M1696 -55v-82h-1422v606h644v283h-848v82h1794v-82h-848v-283h639v-80h-1282v-444h1323zM1667 1161v-82h-1380v578h98v-496h1282z" />
    <glyph glyph-name="uniB20C" unicode="&#xb20c;" 
d="M1864 829h-848v-249h639v-392h-1282v-243h1323v-82h-1422v403h1282v234h-1282v80h644v249h-848v80h1794v-80zM1667 1204v-80h-1380v533h98v-453h1282z" />
    <glyph glyph-name="uniB214" unicode="&#xb214;" 
d="M274 469h644v283h-848v82h1794v-82h-848v-283h639v-606h-1381v606zM1556 389h-1183v-444h1183v444zM1667 1161v-82h-1380v578h98v-496h1282z" />
    <glyph glyph-name="uniB215" unicode="&#xb215;" 
d="M1556 551h99v-688h-1381v688h99v-217h1183v217zM373 -55h1183v309h-1183v-309zM1016 516h-98v258h-848v82h1794v-82h-848v-258zM1667 1176v-80h-1380v561h98v-481h1282z" />
    <glyph glyph-name="uniB217" unicode="&#xb217;" 
d="M1038 520h-102v236h-866v82h1794v-82h-826v-236zM1759 -61l-51 -84q-155 15 -316 72.5t-292 148.5q-80 56 -139 121q-73 -84 -189 -158q-122 -77 -271 -128.5t-298 -68.5l-45 78q205 25 380.5 95.5t293.5 183t139 245.5h106q-12 -101 -69 -184q51 -50 131 -108
q131 -84 294 -141t326 -72zM1667 1161v-82h-1380v578h98v-496h1282z" />
    <glyph glyph-name="uniB219" unicode="&#xb219;" 
d="M1864 805h-848v-211q108 -3 203 -31q163 -49 254.5 -150t91.5 -229q0 -173 -163 -292t-427 -119t-427 119t-163 292q0 128 91 229t253 150q90 25 189 31v211h-848v82h1794v-82zM975 -147q228 0 359.5 95.5t131.5 235.5t-132 236t-359 96q-228 0 -360 -96t-132 -236
t132 -235.5t360 -95.5zM1667 1176v-80h-1380v561h98v-481h1282z" />
    <glyph glyph-name="uniB220" unicode="&#xb220;" 
d="M1133 293v82h487v1294h98v-1819h-98v443h-487zM834 -106h-99v737l-614 -8v86l1376 16v-82l-663 -10v-739zM1354 1063v-84h-1061v647h98v-563h963z" />
    <glyph glyph-name="uniB234" unicode="&#xb234;" 
d="M1898 -68l-55 -77q-100 35 -202 100t-183 149q-43 43 -65 76q-39 -62 -93 -119q-74 -84 -168.5 -148t-189.5 -97l-57 63q101 37 180 90q-20 7 -66 31q-121 67 -208 160q-38 38 -54 61q-60 -87 -121 -143q-82 -76 -178.5 -131t-189.5 -80l-55 67q203 53 356 196t182 314
h98q-15 -84 -51 -157q21 -33 60 -72q88 -85 211 -145q70 -32 98 -41q43 37 80 77q142 158 166 338h100q-13 -107 -63 -198q42 -53 75 -86q181 -166 393 -228zM817 543h-98v340l-600 -9v87l1390 16v-82l-692 -10v-342zM1153 680v82h479v907h99v-1126h-99v137h-479zM1360 1233
v-84h-1077v496h98v-412h979z" />
    <glyph glyph-name="uniB23C" unicode="&#xb23c;" 
d="M926 324v82h350v1243h96v-1727h-96v402h-350zM1755 -150h-96v1819h96v-1819zM690 -66h-96v713l-481 -8v86l1050 16v-82l-473 -10v-715zM1085 1061v-82h-858v639h97v-557h761z" />
    <glyph glyph-name="uniB258" unicode="&#xb258;" 
d="M856 -106h-98v716l-637 -8v86l1397 17v-82l-662 -11v-718zM1718 -150h-98v1819h98v-1819zM1354 1042v-84h-1061v668h98v-584h963z" />
    <glyph glyph-name="uniB25C" unicode="&#xb25c;" 
d="M377 391h98v-424h1292v-82h-1390v506zM842 395h-99v328l-624 -8v84l1411 16v-80l-688 -10v-330zM1360 1151v-84h-1077v578h98v-494h979zM1731 301h-99v1368h99v-1368z" />
    <glyph glyph-name="uniB260" unicode="&#xb260;" 
d="M1726 186h-1255v-241h1298v-82h-1396v401h1255v228h-1255v79h1353v-385zM842 666h-99v227l-624 -8v84l1411 16v-80l-688 -10v-229zM1360 1260v-82h-1077v467h98v-385h979zM1731 666h-99v1003h99v-1003z" />
    <glyph glyph-name="uniB268" unicode="&#xb268;" 
d="M373 461h1353v-598h-1353v598zM1628 381h-1157v-436h1157v436zM842 559h-99v262l-624 -8v84l1411 16v-79l-688 -11v-264zM1360 1200v-84h-1077v529h98v-445h979zM1731 559h-99v1110h99v-1110z" />
    <glyph glyph-name="uniB269" unicode="&#xb269;" 
d="M1628 539h98v-676h-1353v676h98v-228h1157v228zM471 -55h1157v286h-1157v-286zM842 600h-99v262l-624 -8v84l1411 16v-80l-688 -10v-264zM1360 1239v-82h-1077v488h98v-406h979zM1731 641h-99v1028h99v-1028z" />
    <glyph glyph-name="uniB274" unicode="&#xb274;" 
d="M670 -129h-97v659h-503v82h1794v-82h-498v-680h-96v680h-600v-659zM287 1628h98v-645h1323v-84h-1421v729z" />
    <glyph glyph-name="uniB275" unicode="&#xb275;" 
d="M1864 735h-498v-307h289v-586h-99v504h-1323v82h332v307h-495v82h1794v-82zM662 735v-307h608v307h-608zM287 1657h98v-514h1282v-84h-1380v598z" />
    <glyph glyph-name="uniB27C" unicode="&#xb27c;" 
d="M1864 838h-498v-258h289v-392h-1282v-243h1323v-82h-1422v403h1282v234h-1282v80h291v258h-495v80h1794v-80zM662 838v-258h608v258h-608zM1667 1204v-80h-1380v533h98v-453h1282z" />
    <glyph glyph-name="uniB284" unicode="&#xb284;" 
d="M274 469h291v291h-495v82h1794v-82h-498v-291h289v-606h-1381v606zM1556 389h-1183v-444h1183v444zM662 760v-291h608v291h-608zM1667 1161v-82h-1380v578h98v-496h1282z" />
    <glyph glyph-name="uniB285" unicode="&#xb285;" 
d="M1556 571h99v-708h-1381v708h99v-227h1183v227zM373 -55h1183v319h-1183v-319zM702 508h-96v274h-536v82h1794v-82h-539v-274h-96v274h-527v-274zM1667 1176v-80h-1380v561h98v-481h1282z" />
    <glyph glyph-name="uniB289" unicode="&#xb289;" 
d="M1864 813h-498v-313q21 -12 39 -27q160 -114 160 -289q0 -173 -163 -292t-427 -119t-427 119t-163 292q0 84 41 158.5t117 130.5q3 3 11.5 8.5t10.5 7.5v324h-495v82h1794v-82zM975 -147q228 0 359.5 95.5t131.5 235.5t-132 236t-359 96q-228 0 -360 -96t-132 -236
t132 -235.5t360 -95.5zM1667 1176v-80h-1380v561h98v-481h1282zM1219 563l51 -18v268h-608v-274q38 16 67 24q106 33 246 33q141 0 244 -33z" />
    <glyph glyph-name="uniB290" unicode="&#xb290;" 
d="M287 1608h98v-854h1323v-84h-1421v938zM1864 59h-1794v82h1794v-82z" />
    <glyph glyph-name="uniB291" unicode="&#xb291;" 
d="M287 1657h98v-522h1282v-84h-1380v606zM1864 707h-1794v81h1794v-81zM1655 -158h-99v512h-1323v82h1422v-594z" />
    <glyph glyph-name="uniB294" unicode="&#xb294;" 
d="M1667 1092v-82h-1380v647h98v-565h1282zM1864 629h-1794v82h1794v-82zM283 436h98v-483h1337v-82h-1435v565z" />
    <glyph glyph-name="uniB298" unicode="&#xb298;" 
d="M1667 1196v-80h-1380v541h98v-461h1282zM1864 819h-1794v80h1794v-80zM1655 193h-1282v-248h1323v-82h-1422v407h1282v238h-1282v80h1381v-395z" />
    <glyph glyph-name="uniB299" unicode="&#xb299;" 
d="M1667 1196v-80h-1380v541h98v-461h1282zM1864 819h-1794v80h1794v-80zM246 270h585v238h-585v80h682v-395h-586v-254l745 24v-80l-841 -33v420zM1569 -158v666h-533v80h631v-746h-98z" />
    <glyph glyph-name="uniB29A" unicode="&#xb29a;" 
d="M1667 1196v-80h-1380v541h98v-461h1282zM1864 819h-1794v80h1794v-80zM246 270h561v238h-561v80h657v-395h-561v-254l602 24v-80l-698 -33v420zM1034 588h633v-725h-633v725zM1573 508h-445v-565h445v565z" />
    <glyph glyph-name="uniB2A0" unicode="&#xb2a0;" 
d="M1667 1153v-82h-1380v586h98v-504h1282zM1864 745h-1794v82h1794v-82zM274 477h1381v-614h-1381v614zM1556 397h-1183v-452h1183v452z" />
    <glyph glyph-name="uniB2A1" unicode="&#xb2a1;" 
d="M1667 1167v-80h-1380v570h98v-490h1282zM1864 754h-1794v82h1794v-82zM1556 559h99v-696h-1381v696h99v-221h1183v221zM373 -55h1183v313h-1183v-313z" />
    <glyph glyph-name="uniB2A3" unicode="&#xb2a3;" 
d="M1759 -61l-51 -84q-338 53 -604 247q-80 57 -148 131q-75 -93 -184 -170q-122 -86 -271 -143.5t-298 -77.5l-45 80q204 28 380.5 108t294 205.5t138.5 270.5h106q-12 -110 -76 -211q52 -54 138 -117q274 -190 620 -239zM1667 1133v-82h-1380v606h98v-524h1282zM1864 700
h-1794v82h1794v-82z" />
    <glyph glyph-name="uniB2A5" unicode="&#xb2a5;" 
d="M1864 774h-1794v80h1794v-80zM975 -227q-264 0 -427 119t-163 292t163 292.5t427 119.5t427 -119.5t163 -292.5t-163 -292t-427 -119zM975 -147q228 0 359.5 95.5t131.5 235.5t-132 236t-359 96q-228 0 -360 -96t-132 -236t132 -235.5t360 -95.5zM1667 1176v-80h-1380
v561h98v-481h1282z" />
    <glyph glyph-name="uniB2A6" unicode="&#xb2a6;" 
d="M1675 481v-80h-600q-22 -77 -78 -155q63 -54 146 -107q131 -79 296 -133.5t333 -73.5l-52 -79q-317 32 -618 217q-89 55 -156 116q-85 -88 -184 -149q-251 -152 -535 -195l-57 76q216 32 405 118.5t297 209.5q64 70 89 155h-707v80h1421zM1667 1153v-82h-1380v586h98
v-504h1282zM1864 745h-1794v82h1794v-82z" />
    <glyph glyph-name="uniB2AA" unicode="&#xb2aa;" 
d="M1675 481v-80h-268l-14 -456h323v-82h-1503v82h322l-15 456h-266v80h1421zM618 401l15 -456h661l15 456h-691zM1667 1153v-82h-1380v586h98v-504h1282zM1864 745h-1794v82h1794v-82z" />
    <glyph glyph-name="uniB2AC" unicode="&#xb2ac;" 
d="M1518 203l-1397 -21v86l1397 17v-82zM1718 -150h-98v1819h98v-1819zM1395 788v-81h-1123v880h99v-799h1024z" />
    <glyph glyph-name="uniB2B0" unicode="&#xb2b0;" 
d="M1731 297h-99v1372h99v-1372zM1530 629l-1411 -21v86l1411 17v-82zM1380 1087v-81h-1097v639h98v-558h999zM377 408h98v-441h1297v-82h-1395v523z" />
    <glyph glyph-name="uniB2B4" unicode="&#xb2b4;" 
d="M1530 827l-1411 -20v84l1411 16v-80zM1726 197h-1255v-252h1298v-82h-1396v411h1255v238h-1255v80h1353v-395zM1380 1196v-80h-1097v529h98v-449h999zM1731 694h-99v975h99v-975z" />
    <glyph glyph-name="uniB2C8" unicode="&#xb2c8;" 
d="M1686 -150h-99v1819h99v-1819zM223 1608h99v-1321l1099 55v-80l-1198 -65v1411z" />
    <glyph glyph-name="uniB2C9" unicode="&#xb2c9;" 
d="M205 1626h98v-817l1151 47v-82l-1249 -57v909zM1597 590v1079h99v-1079h-99zM1692 -158h-99v543h-1282v82h1381v-625z" />
    <glyph glyph-name="uniB2CC" unicode="&#xb2cc;" 
d="M205 1626h98v-846l1151 47v-82l-1249 -57v938zM1597 334v1335h99v-1335h-99zM381 453h98v-500h1268v-82h-1366v582z" />
    <glyph glyph-name="uniB2D0" unicode="&#xb2d0;" 
d="M1597 737v932h99v-932h-99zM1692 211h-1221v-266h1262v-82h-1360v426h1220v254h-1220v80h1319v-412zM205 1626h98v-721l1151 47v-80l-1249 -57v811z" />
    <glyph glyph-name="uniB2D2" unicode="&#xb2d2;" 
d="M1597 737v932h99v-932h-99zM205 1626h98v-721l1151 47v-80l-1249 -57v811zM315 289h539v254h-539v80h635v-412h-538v-272l579 24v-80l-676 -33v439zM1081 623h611v-760h-611v760zM1595 543h-417v-600h417v600z" />
    <glyph glyph-name="uniB2D8" unicode="&#xb2d8;" 
d="M205 1626h98v-756l1151 48v-82l-1249 -58v848zM1597 651v1018h99v-1018h-99zM373 528h1319v-665h-1319v665zM1593 449h-1122v-504h1122v504z" />
    <glyph glyph-name="uniB2D9" unicode="&#xb2d9;" 
d="M1597 711v958h99v-958h-99zM1593 596h99v-733h-1319v733h98v-234h1122v234zM471 -55h1122v338h-1122v-338zM205 1626h98v-741l1151 47v-80l-1249 -57v831z" />
    <glyph glyph-name="uniB2DB" unicode="&#xb2db;" 
d="M205 1626h98v-817l1151 47v-82l-1249 -57v909zM328 -160l-56 80q189 39 355.5 125.5t284.5 217t145 276.5h106q-17 -110 -80 -211q121 -133 295 -234q182 -102 400 -155l-49 -86q-146 38 -295.5 112t-268.5 172q-74 61 -125 127q-71 -89 -166 -166q-235 -185 -546 -258z
M1597 455v1214h99v-1214h-99z" />
    <glyph glyph-name="uniB2DD" unicode="&#xb2dd;" 
d="M205 1626h98v-741l1151 47v-80l-1249 -57v831zM1597 657v1012h99v-1012h-99zM1126 -186q-128 0 -235.5 33.5t-179 91.5t-111 134.5t-39.5 162.5q0 178 155 299.5t410 121.5t410.5 -122t155.5 -299q0 -115 -67.5 -210.5t-198 -153.5t-300.5 -58zM1126 -106q217 0 342 98.5
t125 243.5t-125 243.5t-342 98.5t-342 -98.5t-125 -243.5t125 -243.5t342 -98.5z" />
    <glyph glyph-name="uniB2E2" unicode="&#xb2e2;" 
d="M1774 -55v-82h-1442v82h342l-12 506h-289v81h1360v-81h-273l-14 -506h328zM760 451l12 -506h576l14 506h-602zM205 1626h98v-756l1151 48v-82l-1249 -58v848zM1597 651v1018h99v-1018h-99z" />
    <glyph glyph-name="uniB2E4" unicode="&#xb2e4;" 
d="M281 276l1060 56v-80l-1159 -66v1401h926v-82h-827v-1229zM1583 -150h-98v1819h98v-678h318v-82h-318v-1059z" />
    <glyph glyph-name="uniB2E5" unicode="&#xb2e5;" 
d="M270 799l1102 47v-82l-1200 -57v899h950v-82h-852v-725zM1626 -158h-98v543h-1262v82h1360v-625zM1898 1217v-82h-268v-545h-98v1079h98v-452h268z" />
    <glyph glyph-name="uniB2E6" unicode="&#xb2e6;" 
d="M270 799l1102 47v-82l-1200 -57v899h950v-82h-852v-725zM1898 1217v-82h-268v-545h-98v1079h98v-452h268zM903 -158h-96v543h-561v82h657v-625zM1626 -158h-96v543h-529v82h625v-625z" />
    <glyph glyph-name="uniB2E8" unicode="&#xb2e8;" 
d="M270 778l1102 47v-82l-1200 -57v920h950v-82h-852v-746zM336 453h98v-500h1256v-82h-1354v582zM1898 1196v-82h-268v-784h-98v1339h98v-473h268z" />
    <glyph glyph-name="uniB2EB" unicode="&#xb2eb;" 
d="M328 508h1298v-80h-1200v-483h1245v-82h-1343v645zM270 840l1102 47v-82l-1200 -57v858h950v-82h-852v-684zM1898 1237v-82h-268v-524h-98v1038h98v-432h268z" />
    <glyph glyph-name="uniB2EC" unicode="&#xb2ec;" 
d="M1898 1288v-82h-268v-469h-98v932h98v-381h268zM1626 211h-1200v-266h1241v-82h-1339v426h1200v254h-1200v80h1298v-412zM270 903l1102 47v-80l-1200 -57v793h950v-80h-852v-623z" />
    <glyph glyph-name="uniB2ED" unicode="&#xb2ed;" 
d="M1898 1288v-82h-268v-469h-98v932h98v-381h268zM270 903l1102 47v-80l-1200 -57v793h950v-80h-852v-623zM270 289h555v254h-555v80h652v-412h-555v-272l731 24v-80l-828 -33v439zM1626 -158h-98v701h-492v80h590v-781z" />
    <glyph glyph-name="uniB2EE" unicode="&#xb2ee;" 
d="M1898 1288v-82h-268v-469h-98v932h98v-381h268zM270 903l1102 47v-80l-1200 -57v793h950v-80h-852v-623zM270 289h529v254h-529v80h625v-412h-528v-272l569 24v-80l-666 -33v439zM1026 623h600v-760h-600v760zM1532 543h-412v-600h412v600z" />
    <glyph glyph-name="uniB2EF" unicode="&#xb2ef;" 
d="M1898 1288v-82h-268v-469h-98v932h98v-381h268zM270 903l1102 47v-80l-1200 -57v793h950v-80h-852v-623zM270 289h514v254h-514v80h613v-412h-514v-272l555 24v-80l-654 -33v439zM1532 623h94v-760h-612v760h94v-263h424v263zM1108 -57h424v340h-424v-340z" />
    </font>
</defs>
</svg>
